<svg width="75" height="95" viewBox="0 0 75 95" fill="none" xmlns="http://www.w3.org/2000/svg">
<path d="M54.2156 19.3398V21.5243C54.2156 25.1771 52.9622 28.5792 50.8852 31.2292H23.7758C21.6987 28.5434 20.4453 25.1771 20.4453 21.5243V19.3398C20.4453 10.6018 27.5002 3.54688 36.2382 3.54688H38.4227C47.1249 3.54688 54.2156 10.6376 54.2156 19.3398Z" fill="white"/>
<path d="M62.4162 64.1027C60.3033 62.7419 58.5127 61.202 57.0803 59.4831C54.6451 56.5823 51.9592 52.5714 50.7774 47.9517H55.1822C59.8019 47.9517 63.5263 44.1915 63.5263 39.6076C63.5263 34.9879 59.7661 31.2635 55.1822 31.2635C56.8654 28.3986 57.7965 25.1039 57.7965 21.5586V19.3741C57.7965 8.70222 49.0943 0 38.4224 0H36.2379C25.5302 0 16.8638 8.70222 16.8638 19.3741V21.5586C16.8638 25.1039 17.8308 28.4344 19.4781 31.2635C14.8584 31.2277 11.0982 34.9879 11.0982 39.5718C11.0982 44.1915 14.8584 47.9159 19.4423 47.9159H23.8471C22.6295 52.5356 19.9795 56.5465 17.5443 59.4472C16.1118 61.1662 14.2854 62.7419 12.2083 64.0669C-0.827084 72.3752 -0.0392284 90.4601 0.0323948 91.2121L0.211453 94.6142H74.4489L74.6279 91.2121C74.6638 90.4959 75.4874 72.411 62.4162 64.1027ZM71.0468 91.0689H3.57774C3.57774 91.0689 2.68245 74.4165 14.1422 67.1109C16.3983 65.6426 18.5112 63.8879 20.3018 61.775C22.9876 58.552 26.2465 53.7174 27.5357 47.9517H47.0888C48.378 53.7174 51.6369 58.552 54.3228 61.775C56.1133 63.9237 58.2262 65.6426 60.4824 67.1109C71.9421 74.4165 71.0468 91.0689 71.0468 91.0689ZM20.445 19.3383C20.445 10.6002 27.4999 3.54535 36.2379 3.54535H38.4224C47.1604 3.54535 54.2153 10.636 54.2153 19.3383V21.5228C54.2153 25.1756 52.9619 28.5776 50.8849 31.2277H23.7755C21.6984 28.5418 20.445 25.1756 20.445 21.5228V19.3383ZM19.4423 44.3706C16.7922 44.3706 14.6793 42.2219 14.6793 39.6076C14.6793 36.9576 16.828 34.8447 19.4423 34.8447H55.1822C57.8323 34.8447 59.9452 36.9934 59.9452 39.6076C59.9452 42.2577 57.7965 44.3706 55.1822 44.3706H19.4423Z" fill="#050303"/>
<path d="M71.0479 91.0693H3.57885C3.57885 91.0693 2.68356 74.4169 14.1433 67.1114C16.3994 65.6431 18.5123 63.8883 20.3029 61.7754C22.9887 58.5524 26.2476 53.7178 27.5368 47.9521H47.0899C48.3792 53.7178 51.638 58.5524 54.3239 61.7754C56.1145 63.9241 58.2273 65.6431 60.4835 67.1114C71.9432 74.4169 71.0479 91.0693 71.0479 91.0693Z" fill="white"/>
<path d="M59.9475 39.5715C59.9475 42.2216 57.7988 44.3345 55.1846 44.3345H19.4446C16.7945 44.3345 14.6816 42.1858 14.6816 39.5715C14.6816 36.9215 16.8303 34.8086 19.4446 34.8086H55.1846C57.8346 34.8086 59.9475 36.9573 59.9475 39.5715Z" fill="white"/>
</svg>
