<svg width="107" height="116" viewBox="0 0 107 116" fill="none" xmlns="http://www.w3.org/2000/svg">
<path d="M103.168 52.1072C102.244 42.3158 95.7729 34.4073 86.5635 32.2162C84.5778 31.7369 82.5921 31.5657 80.6065 31.5657C78.073 31.5657 75.5053 31.8738 72.9719 32.3189C69.5825 32.9009 66.3644 33.9622 63.2147 35.3317C62.8038 35.5028 62.3588 35.7082 61.9822 35.7082C61.5714 35.7082 61.229 35.4686 61.0578 34.7496C60.2704 30.9837 59.5514 27.2178 58.7982 23.3833H66.4671C67.4599 23.3833 68.2815 22.5617 68.2815 21.5688V14.1397C68.2815 13.1468 67.4599 12.3252 66.4671 12.3252H59.0036V5.23833C59.0036 4.24549 58.182 3.42383 57.1892 3.42383H49.76C48.7671 3.42383 47.9455 4.24549 47.9455 5.23833V12.017C47.877 12.1197 47.8085 12.2224 47.7058 12.3252H40.4821C39.4892 12.3252 38.6675 13.1468 38.6675 14.1397V21.5688C38.6675 22.5617 39.4892 23.3833 40.4821 23.3833H48.2536C47.3634 27.4916 46.5076 31.463 45.6174 35.5371C45.3093 35.5371 45.1381 35.5371 45.0354 35.5371C44.967 35.5371 44.9327 35.5371 44.8985 35.5371C44.3507 35.3659 43.8371 35.1605 43.2894 34.9551C37.8801 32.9009 32.3682 31.6342 26.6165 31.6342C25.6237 31.6342 24.5966 31.6684 23.5695 31.7711C6.75972 33.0721 -0.874872 52.3811 5.76688 64.4321C7.71833 67.9584 10.2518 71.0054 12.9564 73.9155C16.7566 77.9895 21.0018 81.687 24.22 86.2746C26.3084 85.453 28.6022 84.9737 30.9987 84.9737H78.1757C79.7848 84.9737 81.3596 85.1791 82.8318 85.5899C84.3039 83.2961 85.9815 81.105 88.0357 79.3247C91.8016 76.0039 95.2936 72.4776 98.3749 68.472C102.141 63.6105 103.75 58.2354 103.168 52.1072ZM44.4876 63.3023H44.4192C44.4192 66.2809 44.3849 69.2252 44.4534 72.2037C44.4876 73.7785 43.9399 74.5317 42.2966 74.5317C40.9271 74.5317 39.5919 74.8056 38.2225 74.8398C38.154 74.8398 38.0513 74.8398 37.9828 74.8398C36.9215 74.8398 35.8945 74.5317 35.1413 73.6758C31.5465 69.7045 27.6779 65.9728 24.4939 61.659C23.2614 59.9815 22.474 58.1327 22.5425 55.9416C22.6794 51.6964 25.2471 48.444 29.3896 47.725C30.3825 47.5539 31.3753 47.4511 32.3339 47.4511C36.271 47.4511 39.8658 48.8548 43.1525 51.4225C44.248 52.2784 44.5561 53.374 44.5219 54.7092C44.4534 57.585 44.4876 60.4265 44.4876 63.3023ZM83.7562 59.6734C83.1057 61.1455 82.1813 62.4465 81.0858 63.6447C78.4154 66.589 75.5738 69.4306 73.0403 72.5118C71.7051 74.1209 70.1988 74.7714 68.3843 74.7714C68.0419 74.7714 67.6653 74.7371 67.2887 74.7029C61.5371 73.9497 62.256 75.593 62.256 69.3621C62.256 67.4107 62.256 65.4934 62.256 63.542H62.2903C62.2903 60.8031 62.393 58.0643 62.256 55.3254C62.1533 53.237 63.0777 51.936 64.6868 50.8063C67.8022 48.6494 71.1574 47.5196 74.7864 47.5196C75.5053 47.5196 76.2243 47.5539 76.9775 47.6566C82.8318 48.3755 86.1869 54.3668 83.7562 59.6734Z" fill="white"/>
<path d="M77.0447 47.6555C76.2915 47.5528 75.5725 47.5186 74.8536 47.5186C71.2246 47.5186 67.8695 48.6483 64.754 50.8052C63.1107 51.935 62.2206 53.2359 62.3233 55.3243C62.4602 58.0632 62.3575 60.8021 62.3575 63.5409H62.3233C62.3233 65.4924 62.3233 67.4096 62.3233 69.361C62.289 75.592 61.6043 73.9486 67.3559 74.7018C67.7325 74.7361 68.0749 74.7703 68.4515 74.7703C70.2317 74.7703 71.7724 74.0856 73.1076 72.5107C75.641 69.4295 78.4826 66.6222 81.153 63.6436C82.2143 62.4454 83.1386 61.1444 83.8234 59.6723C86.1856 54.3657 82.8306 48.3744 77.0447 47.6555ZM68.4172 71.3467C68.2118 71.3467 68.0064 71.3467 67.801 71.3125C67.0136 71.2098 66.3289 71.1413 65.7469 71.1071C65.7469 70.5935 65.7811 70.0457 65.7811 69.3953C65.7811 68.6078 65.7811 67.7862 65.7811 66.9988H65.8153V63.5752C65.8153 62.7535 65.8153 61.9319 65.8495 61.1444C65.8838 59.2272 65.8838 57.2073 65.7811 55.1874C65.7468 54.6396 65.7468 54.3315 66.7397 53.6468C69.3416 51.8665 72.012 50.9764 74.8878 50.9764C75.4698 50.9764 76.0861 51.0106 76.6681 51.0791C78.3114 51.2845 79.7151 52.2089 80.5025 53.6125C81.2899 55.0504 81.3584 56.728 80.6737 58.2686C80.1944 59.3299 79.4754 60.357 78.5853 61.3498C77.6952 62.3427 76.7708 63.3355 75.8464 64.2941C74.0319 66.2113 72.1832 68.2312 70.4372 70.3196C69.7182 71.1755 69.1019 71.3467 68.4172 71.3467Z" fill="#050303"/>
<path d="M44.4864 63.3023C44.4864 60.4607 44.4522 57.5849 44.5207 54.7434C44.5549 53.4082 44.2468 52.3126 43.1513 51.4567C39.8646 48.889 36.2698 47.4854 32.3327 47.4854C31.3741 47.4854 30.3813 47.5538 29.3884 47.7592C25.2459 48.4782 22.644 51.7306 22.5412 55.9758C22.4728 58.1327 23.2602 60.0157 24.4927 61.6932C27.6766 66.007 31.5795 69.7387 35.1401 73.71C35.9275 74.5659 36.9203 74.874 37.9816 74.874C38.0501 74.874 38.1528 74.874 38.2213 74.874C39.5907 74.8398 40.9259 74.5659 42.2954 74.5659C43.9387 74.5659 44.4864 73.8127 44.4522 72.2379C44.3837 69.2594 44.418 66.3151 44.418 63.3366H44.4864V63.3023ZM37.9816 71.4162C37.8104 71.4162 37.7078 71.382 37.6735 71.382C36.578 70.1837 35.4482 68.9855 34.3868 67.8215C31.8192 65.0826 29.3542 62.4807 27.2316 59.6391C26.3414 58.4066 25.9306 57.2768 25.9648 56.0443C26.0333 53.3397 27.5055 51.5252 29.9704 51.1144C30.7921 50.9774 31.5795 50.9089 32.367 50.9089C35.4482 50.9089 38.2897 51.9703 41.0628 54.1271L41.0971 54.1613C41.0971 54.2298 41.1313 54.3668 41.1313 54.6406C41.0971 56.3867 41.0971 58.1327 41.0971 59.8445H41.0628V63.2681C41.0628 64.124 41.0628 65.0141 41.0628 65.87C41.0628 67.5818 41.0628 69.3621 41.0628 71.1081C40.6178 71.1423 40.1727 71.1766 39.7277 71.245C39.1457 71.3135 38.6321 71.3477 38.1186 71.382C38.0501 71.4162 38.0158 71.4162 37.9816 71.4162Z" fill="#050303"/>
<path d="M90.3612 81.8579C94.6407 78.092 98.167 74.3945 101.146 70.5259C105.391 64.9797 107.205 58.6803 106.555 51.7989C106.041 46.2869 103.953 41.22 100.598 37.1459C97.14 33.0034 92.5866 30.1618 87.3485 28.9293C85.2259 28.4158 83.0005 28.1761 80.604 28.1761C78.1733 28.1761 75.5714 28.4158 72.3874 28.9635C69.6486 29.4428 66.8413 30.2303 63.8627 31.3943C63.5546 29.8537 63.2465 28.3473 62.9726 26.8409H66.4647C69.3405 26.8409 71.7027 24.4786 71.7027 21.6028V14.1394C71.7027 11.2294 69.3405 8.90132 66.4647 8.90132H62.4248V5.23809C62.4248 2.36227 60.0626 0 57.1867 0H49.7575C46.8817 0 44.5195 2.36227 44.5195 5.23809V8.86709H40.4796C37.6038 8.86709 35.2415 11.2294 35.2415 14.1052V21.5344C35.2415 24.4102 37.6038 26.7724 40.4796 26.7724H44.0059L43.0473 31.1546C37.3299 29.1347 31.9207 28.1419 26.6483 28.1419C25.5528 28.1419 24.423 28.1761 23.3275 28.2788C14.7685 28.9635 7.47626 33.7908 3.29949 41.5623C1.27957 45.3283 0.115563 49.5735 0.0128554 53.7845C-0.124088 58.201 0.834499 62.412 2.82018 66.0067C5.14822 70.2177 8.16097 73.6413 10.5232 76.1748C11.7215 77.4415 12.9198 78.674 14.118 79.8723C16.7199 82.4742 19.1849 84.9734 21.2391 87.7807C16.1722 91.0331 12.817 96.7163 12.817 103.153V115.58H96.5237V103.153C96.5237 95.9289 92.3127 89.6637 86.2187 86.7194C87.5539 84.7338 88.9233 83.1247 90.3612 81.8579ZM93.1001 103.221V112.225H16.2406V103.221C16.2406 97.9146 19.0137 93.2585 23.1905 90.6223C23.7041 90.3142 24.2176 90.0061 24.7654 89.7664C25.4843 89.4241 26.2375 89.1502 27.0249 88.9105C28.3259 88.5339 29.6611 88.3628 31.0648 88.3628H78.2418C78.995 88.3628 79.7139 88.4312 80.4671 88.5339C81.2203 88.6366 81.9392 88.8078 82.624 89.0132C83.206 89.1844 83.788 89.4241 84.3358 89.6637C89.5054 91.9918 93.1001 97.1614 93.1001 103.221ZM82.9321 85.5554C81.4599 85.1788 79.8851 84.9392 78.276 84.9392H31.099C28.7025 84.9392 26.4087 85.4185 24.3203 86.2401C21.0679 81.6525 16.8569 77.9551 13.0567 73.881C10.3178 70.9709 7.81862 67.9239 5.86718 64.3977C-0.808813 52.3809 6.86002 33.0718 23.6698 31.7366C24.6969 31.6682 25.6898 31.5997 26.7168 31.5997C32.4685 31.5997 37.9804 32.8664 43.3897 34.9206C43.9032 35.126 44.451 35.3314 44.9987 35.5026C45.033 35.5026 45.0672 35.5026 45.1357 35.5026C45.2384 35.5026 45.4096 35.5026 45.7177 35.5026C46.6079 31.3943 47.4637 27.4572 48.3539 23.3489H40.5823C39.5895 23.3489 38.7678 22.5272 38.7678 21.5344V14.1394C38.7678 13.1466 39.5895 12.3249 40.5823 12.3249H47.8061C47.9088 12.2564 47.9773 12.1537 48.0457 12.0168V5.23809C48.0457 4.24525 48.8674 3.42359 49.8603 3.42359H57.2894C58.2823 3.42359 59.1039 4.24525 59.1039 5.23809V12.2907H66.5673C67.5602 12.2907 68.3818 13.1123 68.3818 14.1052V21.5344C68.3818 22.5272 67.5602 23.3489 66.5673 23.3489H58.8985C59.6517 27.1833 60.3707 30.9492 61.1581 34.7152C61.295 35.4341 61.6716 35.6738 62.0824 35.6738C62.459 35.6738 62.9041 35.4683 63.3149 35.2972C66.4646 33.9277 69.6828 32.8664 73.0721 32.2844C75.6056 31.8393 78.1733 31.5312 80.7068 31.5312C82.6924 31.5312 84.6781 31.7024 86.6638 32.1817C95.8733 34.3728 102.344 42.2813 103.268 52.0727C103.85 58.1667 102.241 63.576 98.5436 68.4032C95.4966 72.3746 92.0046 75.9351 88.2044 79.256C86.0818 81.0705 84.37 83.2274 82.9321 85.5554Z" fill="#050303"/>
<path d="M93.1036 103.221V112.225H16.2441V103.221C16.2441 97.9141 19.0173 93.258 23.194 90.6219C23.7076 90.3138 24.2211 90.0056 24.7689 89.766C25.4878 89.4236 26.241 89.1497 27.0284 88.9101C28.3294 88.5335 29.6646 88.3623 31.0683 88.3623H78.2453C78.9985 88.3623 79.7175 88.4308 80.4706 88.5335C81.2238 88.6362 81.9428 88.8074 82.6275 89.0128C83.2095 89.184 83.7915 89.4236 84.3393 89.6633C89.5089 91.9913 93.1036 97.1609 93.1036 103.221Z" fill="white"/>
</svg>
