<svg width="107" height="84" viewBox="0 0 107 84" fill="none" xmlns="http://www.w3.org/2000/svg">
<path d="M9.48439 9.24146L26.8077 10.4739C26.8077 10.4739 31.5665 11.3983 34.8874 15.9517L34.6477 15.9859L34.2027 18.4509C34.1342 18.8618 32.3197 28.6874 32.3197 42.3818C32.3197 50.4272 32.936 58.1303 34.2027 65.2856L34.6477 67.7848L34.9559 67.819C31.635 72.4066 26.842 73.331 26.842 73.331L9.51862 74.5635C5.78691 70.3867 5.54726 63.608 5.54726 61.7593C5.54726 61.4511 5.54726 61.28 5.54726 61.28L17.8379 58.3699L17.8379 51.7624L4.48595 50.4272C3.56158 48.4415 3.52735 43.3746 3.52735 41.9709L3.52735 41.834C3.52735 40.4303 3.59582 35.3292 4.48595 33.3777L17.8379 32.0425L17.8379 25.4008L5.54727 22.4907C5.54727 22.4907 5.54727 22.3196 5.54727 22.0457C5.51303 20.2312 5.78692 13.4182 9.48439 9.24146Z" fill="#FF1E21"/>
<path d="M76.347 14.103C76.0388 15.4382 75.8677 16.8419 75.8677 18.2798L75.8677 65.4568C75.8677 66.7235 76.0046 67.956 76.2442 69.1885L40.1939 64.9775L38.4479 64.7721L37.5577 64.6693C37.455 64.0873 37.3523 63.5053 37.2496 62.9233C36.2568 56.5554 35.8117 50.3245 35.7432 44.6414C35.7432 43.8539 35.709 43.1008 35.709 42.3476C35.709 41.252 35.709 40.1565 35.7432 39.0952C35.9144 30.5704 36.7703 23.8944 37.2496 20.8475C37.4208 19.6834 37.5577 19.0329 37.5577 19.0329L38.4136 18.9302L40.1597 18.7248L76.347 14.103Z" fill="#FF1E21"/>
<path d="M77.6127 10.4763L38.6523 15.4747C37.4198 13.3521 35.9477 11.8115 34.5782 10.6817C31.1889 7.90857 27.8338 7.18961 27.4572 7.12114L27.2518 7.08691L27.0463 7.08691L9.72299 5.85441L8.04544 5.7517L6.91565 7.01843C2.39652 12.0853 2.05416 19.8226 2.05416 22.0822C2.05416 22.4246 2.05416 22.6642 2.05416 22.6985L2.15687 25.3004L4.69032 25.8824L14.3448 28.1762L14.3448 28.9979L4.07407 30.0249L2.12263 30.2303L1.30097 32.0106C0.239657 34.3044 5.93062e-06 38.6524 5.50412e-06 41.9048L5.48616e-06 42.0417C5.05966e-06 45.2941 0.205419 49.6421 1.30097 51.9359L2.12263 53.7161L4.07407 53.9216L14.3448 54.9486L14.3448 55.7703L4.69032 58.0641L2.15686 58.6803L2.05415 61.2823C2.05415 61.3165 2.05415 61.5219 2.05415 61.8985C2.05415 64.1581 2.39651 71.8954 6.91564 76.9623L8.04543 78.229L9.72299 78.0921L27.0463 76.8596L27.2517 76.8596L27.4572 76.8253C27.8338 76.7569 31.2231 76.0379 34.5782 73.2648C35.9477 72.135 37.454 70.5602 38.6865 68.4033L77.373 72.9225C80.1804 79.3588 86.651 83.8779 94.1144 83.8779L106.542 83.8779L106.542 9.66131e-05L94.1144 9.49835e-05C86.8564 9.40317e-05 80.557 4.3138 77.6127 10.4763ZM26.8067 73.3333L9.48333 74.5658C5.75163 70.389 5.51198 63.6103 5.51198 61.7616C5.51198 61.4534 5.51198 61.2823 5.51198 61.2823L17.8026 58.3722L17.8027 51.7647L4.45067 50.4295C3.5263 48.4438 3.49206 43.3769 3.49206 41.9732L3.49206 41.8363C3.49206 40.4326 3.56054 35.3315 4.45067 33.38L17.8027 32.0448L17.8027 25.4031L5.51198 22.493C5.51198 22.493 5.51198 22.3219 5.51198 22.048C5.51198 20.2335 5.78587 13.4548 9.48334 9.24376L26.8067 10.4762C26.8067 10.4762 31.5655 11.4006 34.8863 15.954L34.6467 15.9882L34.2016 18.4532C34.1332 18.8641 32.3187 28.6897 32.3187 42.3841C32.3187 50.4295 32.9349 58.1326 34.2016 65.2879L34.6467 67.7871L34.9548 67.8213C31.5997 72.3747 26.8067 73.3333 26.8067 73.3333ZM40.1929 64.9797L38.4469 64.7743L37.5567 64.6716C37.454 64.0896 37.3513 63.5076 37.2486 62.9256C36.2558 56.5577 35.8107 50.3268 35.7422 44.6436C35.7422 43.8562 35.708 43.103 35.708 42.3498C35.708 41.2543 35.708 40.1588 35.7422 39.0974C35.9134 30.5727 36.7693 23.8967 37.2486 20.8497C37.4198 19.6857 37.5567 19.0352 37.5567 19.0352L38.4126 18.9325L40.1587 18.7271L76.346 14.071C76.0379 15.4062 75.8667 16.8099 75.8667 18.2478L75.8667 65.4591C75.8667 66.7258 76.0036 67.9583 76.2433 69.1908L40.1929 64.9797ZM103.153 3.42368L103.153 80.3174L94.1486 80.3174C88.8078 80.3174 84.1175 77.4758 81.5156 73.2648C81.139 72.6828 80.8309 72.0666 80.557 71.4161C80.2831 70.8341 80.0777 70.2178 79.9065 69.6358C79.5299 68.3349 79.3245 66.9312 79.3245 65.4933L79.3245 18.3163C79.3245 16.673 79.5984 15.1323 80.0777 13.6602C80.2831 13.044 80.5228 12.4277 80.8309 11.8457C81.139 11.1952 81.5156 10.579 81.8922 9.96272C84.5626 6.0256 89.0475 3.45791 94.1829 3.45791L103.153 3.45791L103.153 3.42368Z" fill="#050303"/>
<path d="M94.1503 3.41973L103.154 3.41973L103.154 80.3135L94.1503 80.3135C88.8095 80.3135 84.1192 77.4719 81.5173 73.2609C81.1407 72.6789 80.8325 72.0626 80.5587 71.4122C80.2848 70.8301 80.0794 70.2139 79.9082 69.6319C79.5316 68.3309 79.3262 66.9272 79.3262 65.4893L79.3262 18.3123C79.3262 16.669 79.6001 15.1284 80.0794 13.6563C80.2848 13.04 80.5244 12.4238 80.8326 11.8417C81.1407 11.1913 81.5173 10.575 81.8939 9.95877C84.53 6.02165 89.0149 3.41973 94.1503 3.41973Z" fill="#FF1E21"/>
</svg>
