<svg width="116" height="107" viewBox="0 0 116 107" fill="none" xmlns="http://www.w3.org/2000/svg">
<path d="M52.1072 3.51576C42.3158 4.44013 34.4073 10.9107 32.2162 20.1201C31.7369 22.1058 31.5657 24.0915 31.5657 26.0772C31.5657 28.6106 31.8738 31.1783 32.3189 33.7118C32.9009 37.1011 33.9622 40.3193 35.3317 43.469C35.5028 43.8798 35.7083 44.3249 35.7083 44.7015C35.7083 45.1123 35.4686 45.4547 34.7496 45.6259C30.9837 46.4133 27.2178 47.1322 23.3833 47.8854L23.3833 40.2166C23.3833 39.2237 22.5617 38.4021 21.5688 38.4021L14.1397 38.4021C13.1468 38.4021 12.3252 39.2237 12.3252 40.2166L12.3252 47.68L5.23834 47.68C4.2455 47.68 3.42384 48.5016 3.42384 49.4945L3.42383 56.9237C3.42383 57.9165 4.24549 58.7382 5.23833 58.7382L12.017 58.7382C12.1197 58.8066 12.2225 58.8751 12.3252 58.9778L12.3252 66.2016C12.3252 67.1944 13.1468 68.0161 14.1397 68.0161L21.5688 68.0161C22.5617 68.0161 23.3833 67.1944 23.3833 66.2016L23.3833 58.4301C27.4916 59.3202 31.463 60.1761 35.5371 61.0662C35.5371 61.3743 35.5371 61.5455 35.5371 61.6482C35.5371 61.7167 35.5371 61.7509 35.5371 61.7852C35.3659 62.3329 35.1605 62.8465 34.9551 63.3943C32.9009 68.8035 31.6342 74.3155 31.6342 80.0671C31.6342 81.06 31.6684 82.087 31.7711 83.1141C33.0721 99.9239 52.3811 107.559 64.4321 100.917C67.9584 98.9653 71.0054 96.4319 73.9155 93.7272C77.9895 89.9271 81.687 85.6818 86.2746 82.4636C85.453 80.3753 84.9737 78.0814 84.9737 75.6849L84.9737 28.5079C84.9737 26.8989 85.1791 25.324 85.5899 23.8519C83.2961 22.3797 81.105 20.7021 79.3247 18.648C76.0039 14.882 72.4776 11.39 68.472 8.30879C63.6105 4.54284 58.2355 2.93376 52.1072 3.51576ZM63.3024 62.196L63.3024 62.2645C66.2809 62.2645 69.2252 62.2987 72.2037 62.2303C73.7785 62.196 74.5317 62.7438 74.5317 64.3871C74.5317 65.7565 74.8056 67.0917 74.8398 68.4612C74.8398 68.5296 74.8398 68.6324 74.8398 68.7008C74.8398 69.7622 74.5317 70.7892 73.6758 71.5424C69.7045 75.1372 65.9728 79.0058 61.659 82.1897C59.9815 83.4222 58.1327 84.2097 55.9416 84.1412C51.6964 84.0043 48.444 81.4366 47.725 77.294C47.5539 76.3012 47.4512 75.3084 47.4512 74.3498C47.4512 70.4126 48.8548 66.8178 51.4225 63.5312C52.2784 62.4356 53.374 62.1275 54.7092 62.1618C57.585 62.2302 60.4265 62.196 63.3024 62.196ZM59.6734 22.9275C61.1455 23.578 62.4465 24.5023 63.6447 25.5979C66.589 28.2683 69.4306 31.1099 72.5118 33.6433C74.1209 34.9785 74.7714 36.4849 74.7714 38.2994C74.7714 38.6417 74.7371 39.0183 74.7029 39.3949C73.9497 45.1465 75.593 44.4276 69.3621 44.4276C67.4107 44.4276 65.4935 44.4276 63.542 44.4276L63.542 44.3934C60.8031 44.3934 58.0643 44.2907 55.3254 44.4276C53.237 44.5303 51.9361 43.606 50.8063 41.9969C48.6494 38.8814 47.5196 35.5263 47.5196 31.8973C47.5196 31.1783 47.5539 30.4594 47.6566 29.7062C48.3755 23.8519 54.3668 20.4967 59.6734 22.9275Z" fill="#FF1E21"/>
<path d="M47.6545 29.639C47.5518 30.3921 47.5176 31.1111 47.5176 31.8301C47.5176 35.4591 48.6474 38.8142 50.8042 41.9296C51.934 43.573 53.235 44.4631 55.3234 44.3604C58.0622 44.2234 60.8011 44.3261 63.54 44.3262L63.54 44.3604C65.4914 44.3604 67.4086 44.3604 69.3601 44.3604C75.591 44.3946 73.9477 45.0793 74.7008 39.3277C74.7351 38.9511 74.7693 38.6088 74.7693 38.2322C74.7693 36.4519 74.0846 34.9113 72.5098 33.5761C69.4285 31.0426 66.6212 28.2011 63.6427 25.5307C62.4444 24.4693 61.1435 23.545 59.6713 22.8603C54.3648 20.498 48.3735 23.8531 47.6545 29.639ZM71.3457 38.2664C71.3457 38.4718 71.3457 38.6772 71.3115 38.8826C71.2088 39.6701 71.1403 40.3548 71.1061 40.9368C70.5925 40.9368 70.0448 40.9026 69.3943 40.9026C68.6069 40.9026 67.7852 40.9026 66.9978 40.9026L66.9978 40.8683L63.5742 40.8683C62.7525 40.8683 61.9309 40.8683 61.1435 40.8341C59.2262 40.7999 57.2063 40.7999 55.1864 40.9026C54.6386 40.9368 54.3305 40.9368 53.6458 39.944C51.8655 37.3421 50.9754 34.6716 50.9754 31.7958C50.9754 31.2138 51.0096 30.5976 51.0781 30.0156C51.2835 28.3723 52.2079 26.9686 53.6116 26.1811C55.0495 25.3937 56.727 25.3252 58.2676 26.01C59.3289 26.4893 60.356 27.2082 61.3489 28.0983C62.3417 28.9885 63.3345 29.9128 64.2932 30.8372C66.2104 32.6517 68.2303 34.5005 70.3187 36.2465C71.1746 36.9654 71.3457 37.5817 71.3457 38.2664Z" fill="#050303"/>
<path d="M63.3033 62.1972C60.4617 62.1972 57.5859 62.2314 54.7443 62.163C53.4091 62.1287 52.3136 62.4368 51.4577 63.5324C48.89 66.819 47.4863 70.4138 47.4863 74.351C47.4863 75.3096 47.5548 76.3024 47.7602 77.2952C48.4792 81.4378 51.7316 84.0397 55.9768 84.1424C58.1337 84.2109 60.0167 83.4234 61.6942 82.1909C66.0079 79.007 69.7396 75.1041 73.711 71.5436C74.5669 70.7562 74.875 69.7634 74.875 68.702C74.875 68.6336 74.875 68.5308 74.875 68.4624C74.8408 67.0929 74.5669 65.7577 74.5669 64.3883C74.5669 62.745 73.8137 62.1972 72.2389 62.2315C69.2603 62.2999 66.3161 62.2657 63.3375 62.2657L63.3375 62.1972L63.3033 62.1972ZM71.4172 68.702C71.4172 68.8732 71.383 68.9759 71.383 69.0101C70.1847 70.1057 68.9865 71.2355 67.8224 72.2968C65.0836 74.8645 62.4816 77.3294 59.6401 79.4521C58.4076 80.3422 57.2778 80.7531 56.0453 80.7188C53.3407 80.6503 51.5262 79.1782 51.1153 76.7132C50.9784 75.8915 50.9099 75.1041 50.9099 74.3167C50.9099 71.2355 51.9712 68.3939 54.1281 65.6208L54.1623 65.5865C54.2308 65.5865 54.3677 65.5523 54.6416 65.5523C56.3877 65.5866 58.1337 65.5865 59.8455 65.5865L59.8455 65.6208L63.2691 65.6208C64.125 65.6208 65.0151 65.6208 65.871 65.6208C67.5828 65.6208 69.363 65.6208 71.1091 65.6208C71.1433 66.0659 71.1775 66.5109 71.246 66.956C71.3145 67.538 71.3487 68.0516 71.383 68.5651C71.4172 68.6336 71.4172 68.6678 71.4172 68.702Z" fill="#050303"/>
<path d="M81.858 16.3224C78.092 12.0429 74.3945 8.51663 70.5259 5.53811C64.9797 1.29286 58.6803 -0.521654 51.7989 0.128827C46.2869 0.642364 41.22 2.73076 37.1459 6.08587C33.0034 9.54369 30.1618 14.097 28.9293 19.3351C28.4158 21.4578 28.1761 23.6831 28.1761 26.0796C28.1761 28.5104 28.4158 31.1123 28.9635 34.2962C29.4428 37.0351 30.2303 39.8424 31.3943 42.8209C29.8537 43.129 28.3473 43.4372 26.8409 43.7111L26.8409 40.219C26.8409 37.3432 24.4786 34.9809 21.6028 34.9809L14.1394 34.9809C11.2294 34.9809 8.90133 37.3432 8.90133 40.219L8.90133 44.2588L5.23809 44.2588C2.36228 44.2588 7.87625e-06 46.6211 7.49914e-06 49.4969L6.52491e-06 56.9261C6.1478e-06 59.8019 2.36228 62.1642 5.23809 62.1642L8.86709 62.1642L8.86709 66.204C8.86709 69.0798 11.2294 71.4421 14.1052 71.4421L21.5344 71.4421C24.4102 71.4421 26.7724 69.0798 26.7724 66.204L26.7724 62.6777L31.1546 63.6363C29.1347 69.3537 28.1419 74.763 28.1419 80.0353C28.1419 81.1309 28.1761 82.2606 28.2788 83.3562C28.9635 91.9151 33.7908 99.2074 41.5623 103.384C45.3283 105.404 49.5735 106.568 53.7845 106.671C58.201 106.808 62.412 105.849 66.0067 103.863C70.2177 101.535 73.6413 98.5227 76.1748 96.1604C77.4415 94.9622 78.674 93.7639 79.8723 92.5656C82.4742 89.9637 84.9734 87.4987 87.7807 85.4446C91.0331 90.5115 96.7163 93.8666 103.153 93.8666L115.58 93.8666L115.58 10.16L103.153 10.16C95.9289 10.16 89.6637 14.371 86.7194 20.4649C84.7338 19.1297 83.1247 17.7603 81.858 16.3224ZM103.221 13.5835L112.225 13.5835L112.225 90.443L103.221 90.443C97.9146 90.443 93.2585 87.6699 90.6223 83.4931C90.3142 82.9796 90.0061 82.4661 89.7664 81.9183C89.4241 81.1993 89.1502 80.4462 88.9105 79.6587C88.5339 78.3578 88.3628 77.0226 88.3628 75.6189L88.3628 28.4419C88.3628 27.6887 88.4312 26.9697 88.5339 26.2165C88.6367 25.4633 88.8078 24.7444 89.0132 24.0597C89.1844 23.4777 89.4241 22.8957 89.6637 22.3479C91.9918 17.1783 97.1614 13.5835 103.221 13.5835ZM85.5554 23.7516C85.1788 25.2237 84.9392 26.7986 84.9392 28.4076L84.9392 75.5847C84.9392 77.9812 85.4185 80.275 86.2401 82.3633C81.6525 85.6157 77.9551 89.8268 73.881 93.6269C70.9709 96.3658 67.9239 98.865 64.3977 100.816C52.3809 107.492 33.0718 99.8236 31.7366 83.0138C31.6682 81.9867 31.5997 80.9939 31.5997 79.9668C31.5997 74.2152 32.8664 68.7032 34.9206 63.294C35.126 62.7804 35.3314 62.2327 35.5026 61.6849C35.5026 61.6507 35.5026 61.6164 35.5026 61.548C35.5026 61.4453 35.5026 61.274 35.5026 60.9659C31.3943 60.0758 27.4572 59.2199 23.3489 58.3298L23.3489 66.1013C23.3489 67.0941 22.5272 67.9158 21.5344 67.9158L14.1394 67.9158C13.1466 67.9158 12.3249 67.0941 12.3249 66.1013L12.3249 58.8775C12.2564 58.7748 12.1537 58.7064 12.0168 58.6379L5.23809 58.6379C4.24525 58.6379 3.42359 57.8162 3.42359 56.8234L3.42359 49.3942C3.42359 48.4014 4.24525 47.5797 5.23809 47.5797L12.2907 47.5797L12.2907 40.1163C12.2907 39.1235 13.1123 38.3018 14.1052 38.3018L21.5344 38.3018C22.5272 38.3018 23.3489 39.1235 23.3489 40.1163L23.3489 47.7851C27.1833 47.0319 30.9492 46.313 34.7152 45.5256C35.4341 45.3886 35.6738 45.012 35.6738 44.6012C35.6738 44.2246 35.4684 43.7796 35.2972 43.3687C33.9277 40.219 32.8664 37.0009 32.2844 33.6115C31.8394 31.0781 31.5312 28.5103 31.5312 25.9769C31.5312 23.9912 31.7024 22.0055 32.1817 20.0198C34.3728 10.8104 42.2813 4.33983 52.0728 3.41546C58.1667 2.83345 63.576 4.44255 68.4033 8.14003C72.3746 11.187 75.9351 14.6791 79.256 18.4792C81.0705 20.6019 83.2274 22.3137 85.5554 23.7516Z" fill="#050303"/>
<path d="M103.222 13.58L112.226 13.58L112.226 90.4395L103.222 90.4395C97.9151 90.4395 93.259 87.6664 90.6229 83.4896C90.3147 82.9761 90.0066 82.4625 89.767 81.9148C89.4246 81.1958 89.1507 80.4426 88.9111 79.6552C88.5345 78.3542 88.3633 77.019 88.3633 75.6154L88.3633 28.4383C88.3633 27.6851 88.4318 26.9662 88.5345 26.213C88.6372 25.4598 88.8084 24.7409 89.0138 24.0562C89.1849 23.4742 89.4246 22.8921 89.6642 22.3444C91.9923 17.1748 97.1619 13.58 103.222 13.58Z" fill="#FF1E21"/>
</svg>
