<svg width="115" height="97" viewBox="0 0 115 97" fill="none" xmlns="http://www.w3.org/2000/svg">
<path d="M13.6946 48.9914C13.5576 49.7788 13.0783 50.4293 12.3936 50.8401C5.34104 55.0854 3.42383 61.0767 3.42383 61.0767C5.27257 64.5345 15.0983 65.5958 15.0983 65.5958C18.0425 75.8666 30.5386 79.1532 35.674 80.0776C37.2489 80.3515 38.721 80.9335 40.0562 81.8236L57.7561 93.1557C70.2522 92.1286 70.4919 76.4486 70.4919 75.2161C70.4919 75.1476 70.4919 75.1476 70.4919 75.1476L60.7004 67.7184C60.8716 66.7256 60.9401 65.7328 60.9401 64.8084C60.9401 52.997 49.3341 47.2796 49.3341 47.2796C56.4894 45.4309 60.4608 43.5821 70.0126 56.5575C74.2921 62.4119 79.7698 66.212 84.4943 68.6086C84.3232 67.6157 84.2205 66.5886 84.2205 65.5273L84.2205 18.3503C84.2205 16.0908 84.6313 13.9339 85.3845 11.914C27.2178 -8.04553 15.3037 40.5694 13.6946 48.9914ZM30.6413 55.462C31.7027 55.5304 32.8667 56.1125 33.6199 57.8585C34.0649 58.8513 34.1676 59.9811 34.0307 61.0424C33.8937 62.138 33.8595 63.9867 34.8523 65.9382C34.8523 65.9382 26.8412 63.6444 27.0466 58.8513C27.115 56.9341 28.7241 55.325 30.6413 55.462Z" fill="#FF1E21"/>
<path d="M86.8564 8.86711C66.7257 1.84876 49.7447 2.05416 36.3243 9.41487C27.9707 14.0025 21.2605 21.2263 16.3647 30.915C12.5988 38.3099 10.9897 45.1571 10.4077 48.0329C7.18954 50.0186 4.45067 52.6205 2.43075 55.6333C2.1911 56.0099 4.89804e-06 59.2965 4.66458e-06 61.0768L4.55234e-06 61.9327L0.410835 62.6859C1.67756 65.0139 4.4849 66.7257 9.07251 67.924C10.3392 68.2663 11.5717 68.506 12.5646 68.6772C16.9468 79.0506 29.5798 82.44 35.0918 83.4328C36.2215 83.6382 37.2829 84.0491 38.2415 84.6653L55.9414 96.0316L56.9342 96.6479L58.0983 96.5451C61.7273 96.237 64.8427 94.9018 67.3762 92.5738C69.3619 90.7593 70.9367 88.3628 72.0322 85.4527C73.8467 80.7282 73.9495 76.0721 73.9495 75.182C73.9495 75.1135 73.9495 75.045 73.9495 75.045L73.9152 73.3675L72.58 72.3404L64.3292 66.0752C64.3634 65.6302 64.3634 65.1851 64.3634 64.74C64.3634 58.064 61.3164 53.0656 58.0983 49.6763C60.529 50.5664 63.5075 53.4422 67.2392 58.5091C72.8197 66.1095 80.1804 70.5259 85.8293 72.9566C88.7051 79.2903 95.073 83.7067 102.468 83.7067L114.896 83.7067L114.896 1.86633e-05L102.468 1.70336e-05C95.8262 0.102724 90.0403 3.62902 86.8564 8.86711ZM69.9439 56.5919C60.3921 43.6165 56.4207 45.4652 49.2654 47.314C49.2654 47.314 60.8714 53.0314 60.8714 64.8427C60.8714 65.7671 60.8029 66.7257 60.6317 67.7528L70.4232 75.182C70.4232 75.182 70.4232 75.2162 70.4232 75.2504C70.4232 76.4829 70.1835 92.1629 57.6874 93.19L39.9875 81.8237C38.6523 80.9678 37.1459 80.3858 35.6053 80.0777C30.4699 79.1533 17.9396 75.8667 15.0295 65.5959C15.0295 65.5959 5.23809 64.5346 3.35512 61.0768C3.35512 61.0768 5.27233 55.0513 12.3249 50.8403C13.0096 50.4294 13.4889 49.779 13.6259 48.9915C15.235 40.5695 27.1491 -8.04541 85.2473 11.9483C84.4941 13.934 84.0833 16.1251 84.0833 18.3847L84.0833 65.5617C84.0833 66.623 84.186 67.6501 84.3572 68.6429C79.7011 66.2122 74.2233 62.412 69.9439 56.5919ZM111.438 3.52633L111.438 80.3858L102.434 80.3858C97.8119 80.3858 93.7036 78.2974 90.9647 74.9765C90.3827 74.2576 89.8349 73.4702 89.3898 72.6485C89.0132 71.9296 88.6709 71.2106 88.397 70.4232C87.8492 68.8826 87.5753 67.2393 87.5753 65.5275L87.5753 18.3504C87.5753 16.5017 87.9177 14.7214 88.5339 13.0781C88.7394 12.5303 88.979 12.0168 89.2529 11.5033C89.5268 10.9897 89.8007 10.4762 90.143 9.99689C92.8134 6.05977 97.3326 3.49208 102.434 3.49208L111.438 3.49208L111.438 3.52633Z" fill="#050303"/>
<path d="M30.6416 55.4607C31.7029 55.5292 32.8669 56.1112 33.6201 57.8572C34.0652 58.8501 34.1679 59.9799 34.031 61.0412C33.894 62.1367 33.8598 63.9855 34.8526 65.9369C34.8526 65.9369 26.8414 63.6431 27.0469 58.8501C27.1153 56.9329 28.7244 55.3238 30.6416 55.4607Z" fill="#050303"/>
<path d="M102.435 3.52272L111.439 3.52272L111.439 80.3822L102.435 80.3822C97.8127 80.3822 93.7044 78.2938 90.9655 74.9729C90.3835 74.254 89.8357 73.4666 89.3907 72.6449C89.0141 71.926 88.6717 71.207 88.3978 70.4196C87.8501 68.879 87.5762 67.2356 87.5762 65.5239L87.5762 18.3468C87.5762 16.4981 87.9185 14.7178 88.5348 13.0745C88.7402 12.5267 88.9798 12.0132 89.2537 11.4997C89.5276 10.9861 89.8015 10.4726 90.1439 9.99329C92.8143 6.12464 97.2992 3.52272 102.435 3.52272Z" fill="#FF1E21"/>
</svg>
