<svg width="95" height="75" viewBox="0 0 95 75" fill="none" xmlns="http://www.w3.org/2000/svg">
<path d="M19.3398 20.435L21.5243 20.435C25.1771 20.435 28.5792 21.6884 31.2292 23.7654L31.2292 50.8748C28.5434 52.9519 25.1771 54.2053 21.5243 54.2053L19.3398 54.2053C10.6018 54.2053 3.54688 47.1504 3.54688 38.4124L3.54688 36.2279C3.54688 27.5257 10.6376 20.435 19.3398 20.435Z" fill="#FF1E21"/>
<path d="M64.1028 12.2334C62.7419 14.3463 61.202 16.1369 59.4831 17.5694C56.5823 20.0046 52.5714 22.6904 47.9517 23.8722L47.9517 19.4674C47.9517 14.8477 44.1915 11.1233 39.6076 11.1233C34.9879 11.1233 31.2635 14.8835 31.2635 19.4674C28.3986 17.7842 25.1039 16.8531 21.5586 16.8531L19.3741 16.8531C8.70222 16.8531 6.43794e-06 25.5554 5.03849e-06 36.2272L4.75203e-06 38.4117C3.34789e-06 49.1194 8.70222 57.7858 19.3741 57.7858L21.5586 57.7858C25.1039 57.7858 28.4344 56.8189 31.2635 55.1715C31.2277 59.7912 34.9879 63.5515 39.5718 63.5515C44.1915 63.5515 47.9159 59.7912 47.9159 55.2074L47.9159 50.8025C52.5356 52.0201 56.5465 54.6702 59.4472 57.1054C61.1662 58.5378 62.7419 60.3642 64.0669 62.4413C72.3752 75.4767 90.4601 74.6889 91.2121 74.6172L94.6142 74.4382L94.6142 0.20076L91.2121 0.0217011C90.4959 -0.0141105 72.411 -0.837783 64.1028 12.2334ZM91.0689 3.60286L91.0689 71.0719C91.0689 71.0719 74.4165 71.9672 67.1109 60.5075C65.6426 58.2513 63.8879 56.1385 61.775 54.3479C58.552 51.662 53.7174 48.4032 47.9517 47.1139L47.9517 27.5608C53.7174 26.2716 58.552 23.0127 61.775 20.3269C63.9237 18.5363 65.6427 16.4234 67.1109 14.1673C74.4165 2.70757 91.0689 3.60286 91.0689 3.60286ZM19.3383 54.2046C10.6002 54.2046 3.54535 47.1497 3.54535 38.4117L3.54535 36.2272C3.54535 27.4892 10.636 20.4343 19.3383 20.4343L21.5228 20.4343C25.1756 20.4343 28.5777 21.6877 31.2277 23.7648L31.2277 50.8742C28.5418 52.9512 25.1756 54.2046 21.5228 54.2046L19.3383 54.2046ZM44.3706 55.2074C44.3706 57.8574 42.2219 59.9703 39.6076 59.9703C36.9576 59.9703 34.8447 57.8216 34.8447 55.2074L34.8447 19.4674C34.8447 16.8173 36.9934 14.7044 39.6076 14.7044C42.2577 14.7044 44.3706 16.8531 44.3706 19.4674L44.3706 55.2074Z" fill="#050303"/>
<path d="M91.0683 3.59979L91.0683 71.0688C91.0683 71.0688 74.4159 71.9641 67.1104 60.5044C65.6421 58.2483 63.8873 56.1354 61.7745 54.3448C58.5514 51.6589 53.7168 48.4001 47.9512 47.1109L47.9512 27.5577C53.7168 26.2685 58.5514 23.0097 61.7745 20.3238C63.9232 18.5332 65.6421 16.4203 67.1104 14.1642C74.4159 2.7045 91.0683 3.59979 91.0683 3.59979Z" fill="#FF1E21"/>
<path d="M39.5715 14.7021C42.2216 14.7021 44.3345 16.8508 44.3345 19.4651L44.3345 55.205C44.3345 57.8551 42.1858 59.968 39.5715 59.968C36.9215 59.968 34.8086 57.8193 34.8086 55.205L34.8086 19.4651C34.8086 16.815 36.9573 14.7021 39.5715 14.7021Z" fill="#FF1E21"/>
</svg>
