<svg width="109" height="109" viewBox="0 0 109 109" fill="none" xmlns="http://www.w3.org/2000/svg">
<path d="M42.6589 9.56177C43.3094 11.2736 44.1996 12.0952 45.7402 12.7457C56.7641 17.2648 67.7881 21.784 78.8463 26.3373C78.5381 27.6725 78.3669 29.0762 78.3669 30.5141L78.3669 77.6911C78.3669 79.0263 78.5039 80.3273 78.7778 81.5598C67.8223 86.0104 56.9011 90.6322 45.9456 95.1171C44.3023 95.8019 43.2067 96.4181 42.6932 98.4723C41.803 102.033 37.6605 104.772 34.1684 104.737C30.8476 104.737 27.3555 102.17 26.0545 98.8489C25.6779 97.8903 25.5068 97.0001 25.5068 96.11C25.5068 93.8847 26.5681 91.8648 28.4168 90.0503C31.7035 86.8321 35.0586 86.4212 38.8588 88.7151C39.6804 89.1944 40.2967 89.297 40.9814 88.6123C45.9456 83.7851 50.9098 78.9921 55.874 74.1648C55.737 73.8909 55.6343 73.5828 55.4974 73.3089C50.7044 73.5143 45.9798 73.0008 41.1868 72.8296C35.5036 72.6242 29.7863 72.3161 24.1031 71.9053C22.5283 71.8025 21.7408 72.0764 21.0219 73.6855C19.3443 77.3487 16.2973 79.1632 12.2233 78.8551C8.14919 78.5812 5.51303 76.2189 4.10936 72.5215C3.73276 71.4944 3.52735 70.4674 3.52735 69.4745C3.52735 66.5645 5.03373 63.7913 7.66989 62.0795C11.5043 59.5461 15.9892 59.683 18.865 62.9354C20.3714 64.613 21.6039 64.4076 23.3499 63.9283C31.4638 61.8399 39.0299 58.2109 46.9384 55.5747C48.1709 55.1639 49.6773 55.1639 50.6701 53.7945C47.1781 51.98 43.4121 51.0898 39.7831 49.7546C34.3396 47.7347 28.7934 45.9545 23.3499 44.0373C21.6039 43.421 20.4399 43.421 18.9335 44.9959C15.8865 48.2483 11.6755 48.4537 8.04648 46.1256C5.17067 44.2769 3.59582 41.3326 3.59582 38.2172C3.59582 37.1901 3.767 36.163 4.1436 35.1359C5.27338 31.8835 8.86815 29.2131 12.5314 29.0419C16.2973 28.8708 19.2416 30.5141 20.8507 33.9035C21.5354 35.3414 22.0832 35.9576 23.7607 35.9576C34.2712 35.8891 44.7131 34.999 55.155 34.28C55.3262 34.28 55.5316 34.0746 55.7028 33.9719C55.7028 33.835 55.737 33.6638 55.737 33.5269C55.737 33.4584 55.737 33.3899 55.6686 33.3557C50.944 28.905 46.2195 24.4543 41.5292 19.9694C40.5363 19.0451 39.5092 18.2234 38.3795 19.4902C37.0443 20.9965 35.3325 20.7911 33.7234 20.7226C30.0601 20.5515 26.8077 17.5729 25.7807 13.7385C25.6095 13.088 25.541 12.4376 25.541 11.7871C25.541 9.11671 26.842 6.48055 29.17 5.11111C35.1955 1.44788 40.5363 4.18675 42.6589 9.56177Z" fill="#FF1E21"/>
<path d="M27.3545 2.13187C24.0678 4.08331 22.0479 7.74654 22.0479 11.7521C22.0479 12.7107 22.1506 13.6694 22.3903 14.5595C23.7939 19.9345 28.3473 23.8716 33.4827 24.077C33.5854 24.077 33.6881 24.077 33.7908 24.077C35.2287 24.1455 37.5225 24.2825 39.5767 22.8446C41.8362 24.9672 44.0958 27.124 46.3211 29.2124C47.0401 29.8971 47.759 30.5819 48.478 31.2666C40.3983 31.8486 32.0448 32.4306 23.8624 32.4991C23.8282 32.4649 23.8282 32.4306 23.8282 32.3964C21.6713 27.843 17.4603 25.3438 12.2907 25.5834C7.29225 25.7888 2.46499 29.3151 0.821671 33.937C0.342369 35.3064 0.102717 36.7443 0.102717 38.1822C0.102717 42.496 2.36228 46.5358 6.12823 48.9665C11.2978 52.2874 17.2891 51.6369 21.3632 47.3232C21.4659 47.2205 21.5686 47.1178 21.6028 47.0836C21.7055 47.1178 21.8767 47.152 22.1164 47.2547C24.3417 48.0422 26.6355 48.8296 28.8266 49.5828C32.0105 50.6783 35.2972 51.7739 38.4811 52.9721C39.4055 53.3145 40.3298 53.6226 41.2542 53.9307C39.6109 54.547 37.9676 55.1975 36.3585 55.8137C31.5997 57.6625 27.1148 59.4085 22.3903 60.641C22.1848 60.6752 21.7398 60.8121 21.5001 60.8464C21.4659 60.8121 21.3974 60.7437 21.3289 60.6752C17.3918 56.2588 11.1267 55.6768 5.68316 59.2373C2.12263 61.5653 5.61189e-06 65.3998 5.07315e-06 69.5081C4.88011e-06 70.9802 0.273892 72.4181 0.78743 73.7875C2.73887 78.9229 6.676 81.9699 11.8456 82.3123C17.2206 82.6889 21.6028 80.1554 23.8966 75.3624C29.3059 75.739 35.0233 76.0471 40.9119 76.2525C42.384 76.321 43.8904 76.3895 45.3625 76.4922C46.3211 76.5607 47.2797 76.5949 48.2383 76.6634C45.294 79.5049 42.3498 82.3465 39.4055 85.2223C34.6125 82.7916 29.9221 83.6132 25.8481 87.6188C23.2804 90.1523 21.911 93.0965 21.911 96.1093C21.911 97.4445 22.1848 98.7797 22.6984 100.115C24.5129 104.771 29.2717 108.195 33.9962 108.195C39.3028 108.229 44.6093 104.223 45.8761 99.3275C46.013 98.7797 46.013 98.7455 47.1085 98.3004C51.5934 96.4517 56.1126 94.5687 60.529 92.7542C66.7942 90.1523 73.2647 87.4476 79.7011 84.8457C82.4742 91.3848 88.979 95.9724 96.5109 95.9724L108.939 95.9724L108.939 12.2657L96.5109 12.2657C89.0817 12.2657 82.6796 16.7164 79.8038 23.1185C77.3046 22.0914 74.8054 21.0643 72.3061 20.0372C63.9868 16.6137 55.3594 13.0874 46.9031 9.59531C46.2184 9.32142 46.0472 9.18445 45.7391 8.32855C44.267 4.52837 41.5623 1.78951 38.1388 0.625486C35.8107 -0.196175 31.9763 -0.641234 27.3545 2.13187ZM96.6136 15.655L105.618 15.655L105.618 92.5145L96.6136 92.5145C90.4854 92.5145 85.2473 88.8171 82.9877 83.5448C82.7481 83.0312 82.5769 82.4834 82.4057 81.9357C82.2345 81.3879 82.0976 80.8401 81.9949 80.2581C81.8579 79.4365 81.7552 78.5806 81.7552 77.6904L81.7552 30.5134C81.7552 29.5548 81.8579 28.5962 82.0291 27.6718C82.1318 27.0898 82.2688 26.5421 82.44 25.9943C82.6111 25.4465 82.8166 24.933 83.0562 24.3852C85.4185 19.2498 90.5881 15.655 96.6136 15.655ZM42.6579 9.56108C43.3084 11.2729 44.1985 12.0945 45.7391 12.745C56.7631 17.2641 67.787 21.7833 78.8452 26.3367C78.5371 27.6719 78.3659 29.0755 78.3659 30.5134L78.3659 77.6904C78.3659 79.0256 78.5028 80.3266 78.7767 81.5591C67.8212 86.0097 56.9 90.6316 45.9445 95.1165C44.3012 95.8012 43.2057 96.4174 42.6921 98.4716C41.802 102.032 37.6594 104.771 34.1674 104.737C30.8465 104.737 27.3545 102.169 26.0535 98.8482C25.6769 97.8896 25.5057 96.9994 25.5057 96.1093C25.5057 93.884 26.567 91.8641 28.4158 90.0496C31.7024 86.8314 35.0575 86.4206 38.8577 88.7144C39.6794 89.1937 40.2956 89.2964 40.9803 88.6116C45.9445 83.7844 50.9087 78.9914 55.8729 74.1641C55.736 73.8902 55.6333 73.5821 55.4963 73.3082C50.7033 73.5137 45.9788 73.0001 41.1857 72.8289C35.5026 72.6235 29.7852 72.3154 24.102 71.9046C22.5272 71.8019 21.7398 72.0757 21.0208 73.6848C19.3433 77.3481 16.2963 79.1625 12.2222 78.8544C8.14814 78.5805 5.51198 76.2183 4.10831 72.5208C3.73171 71.4937 3.5263 70.4667 3.5263 69.4738C3.5263 66.5638 5.03268 63.7906 7.66884 62.0788C11.5033 59.5454 15.9882 59.6823 18.864 62.9347C20.3703 64.6123 21.6028 64.4069 23.3489 63.9276C31.4628 61.8392 39.0289 58.2102 46.9374 55.574C48.1699 55.1632 49.6762 55.1632 50.6691 53.7938C47.177 51.9793 43.4111 51.0891 39.7821 49.7539C34.3386 47.734 28.7924 45.9538 23.3489 44.0366C21.6028 43.4203 20.4388 43.4203 18.9324 44.9952C15.8854 48.2476 11.6744 48.453 8.04543 46.1249C5.16962 44.2762 3.59477 41.3319 3.59477 38.2165C3.59477 37.1894 3.76595 36.1623 4.14255 35.1352C5.27233 31.8828 8.8671 29.2124 12.5303 29.0412C16.2963 28.8701 19.2406 30.5134 20.8496 33.9028C21.5344 35.3407 22.0821 35.9569 23.7597 35.9569C34.2701 35.8884 44.712 34.9983 55.154 34.2794C55.3252 34.2794 55.5306 34.0739 55.7018 33.9712C55.7018 33.8343 55.736 33.6631 55.736 33.5262C55.736 33.4577 55.736 33.3892 55.6675 33.355C50.943 28.9043 46.2184 24.4536 41.5281 19.9687C40.5353 19.0444 39.5082 18.2228 38.3784 19.4895C37.0432 20.9959 35.3314 20.7904 33.7223 20.722C30.0591 20.5508 26.8067 17.5723 25.7796 13.7378C25.6084 13.0874 25.54 12.4369 25.54 11.7864C25.54 9.11601 26.8409 6.47985 29.169 5.11042C35.1945 1.44718 40.5353 4.18605 42.6579 9.56108Z" fill="#050303"/>
<path d="M96.6142 15.6556L105.618 15.6556L105.618 92.5151L96.6142 92.5151C90.486 92.5151 85.2479 88.8177 82.9884 83.5453C82.7487 83.0318 82.5775 82.484 82.4063 81.9362C82.2352 81.3884 82.0982 80.8407 81.9955 80.2587C81.8586 79.437 81.7559 78.5811 81.7559 77.691L81.7559 30.514C81.7559 29.5554 81.8586 28.5967 82.0298 27.6724C82.1325 27.0904 82.2694 26.5426 82.4406 25.9949C82.6118 25.4471 82.8172 24.9335 83.0568 24.3857C85.4191 19.2504 90.5887 15.6556 96.6142 15.6556Z" fill="#FF1E21"/>
</svg>
