<svg width="112" height="84" viewBox="0 0 112 84" fill="none" xmlns="http://www.w3.org/2000/svg">
<path d="M61.9328 12.1509C68.9169 12.5617 75.2848 14.7186 81.0364 18.4503L81.0364 65.3192C70.2521 72.5087 55.4622 73.7412 43.5139 67.9895C34.3045 63.5731 26.7383 57.0683 20.2335 49.2968C18.556 47.3111 18.556 47.3111 16.4333 48.8859C13.8314 50.8032 10.9898 51.3167 8.11403 49.7418C5.27245 48.2012 3.49219 45.839 3.49219 42.5181L3.49219 42.3469C3.56066 38.8891 5.68329 36.7322 8.49063 35.1231C9.62041 34.4726 10.579 34.6096 11.6403 35.4312C23.1093 44.3326 36.6667 47.0372 50.6692 48.3382C53.3738 48.5778 56.1469 48.5094 58.8516 48.7148C60.4607 48.8175 60.9742 48.2355 60.9742 46.7976C60.9742 46.7291 60.9742 46.6606 60.9742 46.5579C60.9057 44.9146 60.8715 43.237 60.8715 41.5937C60.8715 40.1558 60.9057 38.7521 60.94 37.3142C60.94 37.2457 60.94 37.1773 60.94 37.0746C60.94 35.4655 60.2552 34.9177 58.5777 34.8492C52.9972 34.6438 47.4168 34.1987 41.9048 33.2059C36.7352 32.2815 31.7368 30.8094 26.396 28.4129C36.4956 18.4502 47.4168 11.295 61.9328 12.1509Z" fill="#FF1E21"/>
<path d="M81.4129 14.6533C75.4901 11.127 69.0537 9.14133 62.1723 8.7305C44.8832 7.73766 32.6953 17.4264 23.9993 25.9854L20.4046 29.5117L24.958 31.5658C30.2987 33.9624 35.5026 35.5714 41.2885 36.5985C46.0815 37.4544 51.2169 38.0022 57.4478 38.2418C57.4135 39.3374 57.4136 40.4329 57.4136 41.5627C57.4135 42.7267 57.4478 43.925 57.4478 45.1917C56.6604 45.1575 55.9072 45.1232 55.154 45.1232C53.6818 45.089 52.2782 45.0548 50.9087 44.9178C38.2072 43.7196 24.9237 41.4257 13.6601 32.6956C11.5033 31.018 9.03827 30.8126 6.74447 32.1136C2.29381 34.6471 0.102714 37.9679 5.43677e-06 42.2474L5.40535e-06 42.487C4.83069e-06 46.8692 2.29381 50.5325 6.43635 52.7578C10.1681 54.7777 14.2421 54.4696 17.9738 51.9704C25.2661 60.5294 33.1403 66.7945 42.0074 71.074C54.435 77.0653 69.7727 76.1409 81.4129 69.1226C83.1247 77.4419 90.4854 83.707 99.3182 83.707L111.746 83.707L111.746 0.000363564L99.3182 0.000361935C90.4854 0.000360776 83.0562 6.29978 81.4129 14.6533ZM43.5138 67.9928C34.3043 63.5763 26.7382 57.0715 20.2334 49.3C18.5558 47.3143 18.5558 47.3143 16.4332 48.8892C13.8313 50.8064 10.9897 51.3199 8.1139 49.7451C5.27233 48.2045 3.49206 45.8422 3.49206 42.5213L3.49206 42.3501C3.56054 38.8923 5.68316 36.7354 8.4905 35.1263C9.62028 34.4759 10.5789 34.6128 11.6402 35.4345C23.1092 44.3358 36.6666 47.0405 50.6691 48.3414C53.3737 48.5811 56.1468 48.5126 58.8515 48.718C60.4605 48.8207 60.9741 48.2387 60.9741 46.8008C60.9741 46.7323 60.9741 46.6638 60.9741 46.5611C60.9056 44.9178 60.8714 43.2403 60.8714 41.5969C60.8714 40.159 60.9056 38.7554 60.9398 37.3174C60.9398 37.249 60.9398 37.1805 60.9398 37.0778C60.9398 35.4687 60.2551 34.921 58.5776 34.8525C52.9971 34.6471 47.4167 34.202 41.9047 33.2091C36.7351 32.2848 31.7367 30.8126 26.3959 28.4161C36.5297 18.4535 47.4509 11.2982 61.9669 12.1541C68.951 12.5649 75.3189 14.7218 81.0705 18.4535L81.0705 65.3224C70.252 72.4777 55.4621 73.7444 43.5138 67.9928ZM108.322 3.42395L108.322 80.2835L99.3182 80.2835C91.6494 80.2835 85.35 74.4976 84.5626 67.0342C84.4941 66.5207 84.4941 65.9729 84.4941 65.4594L84.4941 18.2823C84.4941 17.7688 84.5284 17.2552 84.5626 16.7417C85.35 9.27829 91.6494 3.45817 99.3182 3.45818L108.322 3.45818L108.322 3.42395Z" fill="#050303"/>
<path d="M99.3183 3.4198L108.322 3.4198L108.322 80.2793L99.3183 80.2793C91.6494 80.2793 85.35 74.4935 84.5626 67.03C84.4941 66.5165 84.4941 65.9687 84.4941 65.4552L84.4941 18.2782C84.4941 17.7646 84.5284 17.2511 84.5626 16.7376C85.3158 9.2399 91.6152 3.41979 99.3183 3.4198Z" fill="#FF1E21"/>
</svg>
