<svg width="97" height="115" viewBox="0 0 97 115" fill="none" xmlns="http://www.w3.org/2000/svg">
<path d="M47.6564 13.6946C46.869 13.5576 46.2186 13.0783 45.8077 12.3936C41.5625 5.34104 35.5712 3.42383 35.5712 3.42383C32.1134 5.27256 31.0521 15.0983 31.0521 15.0983C20.7813 18.0425 17.4947 30.5386 16.5703 35.674C16.2964 37.2489 15.7144 38.721 14.8243 40.0562L3.49219 57.7561C4.51926 70.2522 20.1993 70.4919 21.4318 70.4919C21.5003 70.4919 21.5003 70.4919 21.5003 70.4919L28.9294 60.7004C29.9223 60.8716 30.9151 60.9401 31.8395 60.9401C43.6508 60.9401 49.3682 49.3341 49.3682 49.3341C51.217 56.4894 53.0657 60.4608 40.0903 70.0126C34.236 74.2921 30.4358 79.7698 28.0393 84.4943C29.0321 84.3232 30.0592 84.2205 31.1205 84.2205H78.2975C80.5571 84.2205 82.714 84.6313 84.7339 85.3845C104.693 27.2178 56.0785 15.3037 47.6564 13.6946ZM41.1859 30.6413C41.1174 31.7026 40.5354 32.8667 38.7894 33.6199C37.7965 34.0649 36.6667 34.1676 35.6054 34.0307C34.5099 33.8937 32.6611 33.8595 30.7097 34.8523C30.7097 34.8523 33.0035 26.8412 37.7965 27.0466C39.7137 27.115 41.3228 28.7241 41.1859 30.6413Z" fill="#222222"/>
<path d="M87.7808 86.8564C94.7991 66.7257 94.5937 49.7447 87.233 36.3242C82.6454 27.9707 75.4216 21.2605 65.7328 16.3647C58.3379 12.5988 51.4907 10.9897 48.6149 10.4077C46.6292 7.18953 44.0273 4.45066 41.0146 2.43075C40.638 2.19109 37.3513 0 35.5711 0H34.7152L33.962 0.41083C31.6339 1.67756 29.9221 4.4849 28.7239 9.0725C28.3815 10.3392 28.1419 11.5717 27.9707 12.5646C17.5972 16.9468 14.2079 29.5798 13.2151 35.0918C13.0096 36.2215 12.5988 37.2828 11.9826 38.2415L0.616262 55.9414L0 56.9342L0.102724 58.0983C0.410847 61.7273 1.74604 64.8427 4.07408 67.3762C5.88858 69.3619 8.28508 70.9367 11.1951 72.0322C15.9197 73.8467 20.5758 73.9495 21.4659 73.9495C21.5344 73.9495 21.6028 73.9495 21.6028 73.9495L23.2804 73.9152L24.3075 72.58L30.5726 64.3292C31.0177 64.3634 31.4628 64.3634 31.9078 64.3634C38.5838 64.3634 43.5823 61.3164 46.9716 58.0983C46.0815 60.529 43.2057 63.5075 38.1388 67.2392C30.5384 72.8197 26.122 80.1804 23.6912 85.8293C17.3576 88.7051 12.9412 95.073 12.9412 102.468V114.896H96.6478V102.468C96.5451 95.8262 93.0188 90.0403 87.7808 86.8564ZM40.056 69.9439C53.0313 60.3921 51.1826 56.4207 49.3339 49.2654C49.3339 49.2654 43.6165 60.8714 31.8051 60.8714C30.8808 60.8714 29.9221 60.8029 28.8951 60.6317L21.4659 70.4232C21.4659 70.4232 21.4316 70.4232 21.3974 70.4232C20.1649 70.4232 4.48491 70.1835 3.45783 57.6874L14.8241 39.9875C15.68 38.6523 16.262 37.1459 16.5702 35.6053C17.4945 30.4699 20.7812 17.9396 31.0519 15.0295C31.0519 15.0295 32.1132 5.23809 35.5711 3.35511C35.5711 3.35511 41.5966 5.27232 45.8076 12.3249C46.2184 13.0096 46.8689 13.4889 47.6563 13.6259C56.0783 15.235 104.693 27.149 84.6995 85.2473C82.7138 84.4941 80.5228 84.0833 78.2632 84.0833H31.0862C30.0249 84.0833 28.9978 84.186 28.0049 84.3572C30.4357 79.7011 34.2359 74.2233 40.056 69.9439ZM93.1215 111.438H16.262V102.434C16.262 97.8119 18.3504 93.7036 21.6713 90.9647C22.3903 90.3827 23.1777 89.8349 23.9993 89.3898C24.7183 89.0132 25.4373 88.6709 26.2247 88.397C27.7653 87.8492 29.4086 87.5753 31.1204 87.5753H78.2974C80.1461 87.5753 81.9264 87.9177 83.5697 88.5339C84.1175 88.7393 84.631 88.979 85.1446 89.2529C85.6581 89.5268 86.1717 89.8007 86.651 90.143C90.5881 92.8134 93.1558 97.3326 93.1558 102.434V111.438H93.1215Z" fill="white"/>
<path d="M41.1871 30.6416C41.1187 31.7029 40.5366 32.8669 38.7906 33.6201C37.7978 34.0652 36.668 34.1679 35.6067 34.031C34.5111 33.894 32.6624 33.8598 30.7109 34.8526C30.7109 34.8526 33.0047 26.8414 37.7978 27.0469C39.715 27.1153 41.3241 28.7244 41.1871 30.6416Z" fill="white"/>
<path d="M93.1251 102.434V111.438H16.2656V102.434C16.2656 97.8117 18.354 93.7034 21.6749 90.9645C22.3939 90.3825 23.1813 89.8348 24.0029 89.3897C24.7219 89.0131 25.4408 88.6707 26.2283 88.3969C27.7689 87.8491 29.4122 87.5752 31.124 87.5752H78.301C80.1497 87.5752 81.93 87.9175 83.5733 88.5338C84.1211 88.7392 84.6346 88.9789 85.1482 89.2528C85.6617 89.5266 86.1753 89.8005 86.6546 90.1429C90.5232 92.8133 93.1251 97.2982 93.1251 102.434Z" fill="#222222"/>
</svg>
