<svg width="84" height="112" viewBox="0 0 84 112" fill="none" xmlns="http://www.w3.org/2000/svg">
<path d="M71.5562 61.9318C71.1454 68.9159 68.9885 75.2838 65.2568 81.0354H18.3879C11.1983 70.2511 9.96588 55.4612 15.7175 43.5129C20.1339 34.3035 26.6387 26.7374 34.4103 20.2325C36.396 18.555 36.3959 18.555 34.8211 16.4324C32.9039 13.8304 32.3903 10.9889 33.9652 8.11305C35.5058 5.27147 37.8681 3.49121 41.1889 3.49121H41.3601C44.818 3.55968 46.9748 5.68231 48.5839 8.48965C49.2344 9.61943 49.0975 10.578 48.2758 11.6393C39.3745 23.1084 36.6698 36.6658 35.3689 50.6682C35.1292 53.3729 35.1977 56.146 34.9923 58.8506C34.8896 60.4597 35.4716 60.9732 36.9095 60.9732C36.9779 60.9732 37.0464 60.9732 37.1491 60.9732C38.7925 60.9047 40.47 60.8705 42.1133 60.8705C43.5512 60.8705 44.9549 60.9047 46.3928 60.939C46.4613 60.939 46.5298 60.939 46.6325 60.939C48.2415 60.939 48.7893 60.2543 48.8578 58.5767C49.0632 52.9963 49.5083 47.4158 50.5011 41.9038C51.4255 36.7342 52.8976 31.7358 55.2942 26.395C65.2568 36.4946 72.4121 47.4158 71.5562 61.9318Z" fill="#222222"/>
<path d="M69.0537 81.4129C72.58 75.4901 74.5657 69.0537 74.9765 62.1723C75.9694 44.8832 66.2806 32.6952 57.7217 23.9993L54.1953 20.4046L52.1412 24.9579C49.7447 30.2987 48.1356 35.5026 47.1085 41.2884C46.2526 46.0815 45.7049 51.2169 45.4652 57.4478C44.3697 57.4135 43.2741 57.4135 42.1443 57.4135C40.9803 57.4135 39.7821 57.4478 38.5153 57.4478C38.5496 56.6604 38.5838 55.9072 38.5838 55.154C38.618 53.6818 38.6523 52.2782 38.7892 50.9087C39.9875 38.2072 42.2813 24.9237 51.0114 13.6601C52.689 11.5033 52.8944 9.03827 51.5934 6.74447C49.06 2.2938 45.7391 0.102708 41.4596 0H41.22C36.8378 0 33.1746 2.2938 30.9492 6.43634C28.9293 10.1681 29.2374 14.2421 31.7366 17.9738C23.1777 25.2661 16.9125 33.1403 12.633 42.0074C6.64177 54.435 7.56612 69.7727 14.5845 81.4129C6.26515 83.1247 0 90.4854 0 99.3182V111.746H83.7067V99.3182C83.7067 90.4854 77.4073 83.0562 69.0537 81.4129ZM15.7143 43.5138C20.1307 34.3043 26.6355 26.7382 34.407 20.2334C36.3927 18.5558 36.3927 18.5558 34.8179 16.4332C32.9006 13.8313 32.3871 10.9897 33.962 8.1139C35.5026 5.27232 37.8648 3.49206 41.1857 3.49206H41.3569C44.8147 3.56053 46.9716 5.68315 48.5807 8.49049C49.2312 9.62028 49.0942 10.5789 48.2726 11.6402C39.3712 23.1092 36.6666 36.6666 35.3656 50.6691C35.126 53.3737 35.1944 56.1468 34.989 58.8514C34.8863 60.4605 35.4683 60.9741 36.9062 60.9741C36.9747 60.9741 37.0432 60.9741 37.1459 60.9741C38.7892 60.9056 40.4668 60.8714 42.1101 60.8714C43.548 60.8714 44.9517 60.9056 46.3896 60.9398C46.4581 60.9398 46.5265 60.9398 46.6292 60.9398C48.2383 60.9398 48.7861 60.2551 48.8546 58.5776C49.06 52.9971 49.5051 47.4167 50.4979 41.9047C51.4223 36.7351 52.8944 31.7366 55.2909 26.3958C65.2536 36.5297 72.4088 47.4509 71.553 61.9669C71.1421 68.951 68.9853 75.3189 65.2535 81.0705H18.3846C11.2293 70.252 9.96264 55.4621 15.7143 43.5138ZM80.2831 108.322H3.42359V99.3182C3.42359 91.6494 9.20943 85.35 16.6728 84.5626C17.1864 84.4941 17.7342 84.4941 18.2477 84.4941H65.4247C65.9383 84.4941 66.4518 84.5283 66.9653 84.5626C74.4288 85.35 80.2489 91.6494 80.2489 99.3182V108.322H80.2831Z" fill="white"/>
<path d="M80.2872 99.3183V108.322H3.42773V99.3183C3.42773 91.6494 9.21358 85.35 16.677 84.5626C17.1905 84.4941 17.7383 84.4941 18.2518 84.4941H65.4289C65.9424 84.4941 66.4559 84.5284 66.9695 84.5626C74.4671 85.3158 80.2872 91.6152 80.2872 99.3183Z" fill="#222222"/>
</svg>
