<svg width="109" height="109" viewBox="0 0 109 109" fill="none" xmlns="http://www.w3.org/2000/svg">
<path d="M98.633 42.658C96.9212 43.3084 96.0996 44.1986 95.4491 45.7392C90.93 56.7631 86.4108 67.7871 81.8575 78.8453C80.5223 78.5371 79.1186 78.366 77.6807 78.366H30.5037C29.1685 78.366 27.8675 78.5029 26.635 78.7768C22.1844 67.8213 17.5626 56.9001 13.0777 45.9446C12.3929 44.3013 11.7767 43.2057 9.72253 42.6922C6.162 41.8021 3.42311 37.6595 3.45735 34.1675C3.45735 30.8466 6.02506 27.3545 9.34594 26.0536C10.3045 25.677 11.1947 25.5058 12.0848 25.5058C14.3101 25.5058 16.33 26.5671 18.1445 28.4158C21.3627 31.7025 21.7735 35.0576 19.4797 38.8578C19.0004 39.6794 18.8978 40.2957 19.5825 40.9804C24.4097 45.9446 29.2027 50.9088 34.03 55.873C34.3039 55.7361 34.612 55.6333 34.8859 55.4964C34.6805 50.7034 35.194 45.9788 35.3652 41.1858C35.5706 35.5027 35.8787 29.7853 36.2895 24.1021C36.3923 22.5273 36.1184 21.7398 34.5093 21.0209C30.8461 19.3433 29.0316 16.2963 29.3397 12.2223C29.6136 8.14821 31.9759 5.51205 35.6733 4.10838C36.7004 3.73178 37.7274 3.52637 38.7203 3.52637C41.6303 3.52637 44.4035 5.03275 46.1153 7.66891C48.6487 11.5033 48.5118 15.9882 45.2594 18.864C43.5818 20.3704 43.7872 21.6029 44.2665 23.3489C46.3549 31.4628 49.9839 39.029 52.6201 46.9374C53.0309 48.1699 53.0309 49.6763 54.4003 50.6691C56.2148 47.1771 57.105 43.4111 58.4402 39.7821C60.4601 34.3386 62.2403 28.7924 64.1575 23.3489C64.7738 21.6029 64.7738 20.4389 63.1989 18.9325C59.9465 15.8855 59.7411 11.6745 62.0692 8.0455C63.9179 5.16969 66.8622 3.59484 69.9776 3.59484C71.0047 3.59484 72.0318 3.76602 73.0589 4.14261C76.3113 5.2724 78.9817 8.86716 79.1529 12.5304C79.324 16.2963 77.6807 19.2406 74.2913 20.8497C72.8534 21.5344 72.2372 22.0822 72.2372 23.7598C72.3057 34.2702 73.1958 44.7121 73.9148 55.154C73.9148 55.3252 74.1202 55.5306 74.2229 55.7018C74.3598 55.7018 74.531 55.7361 74.6679 55.7361C74.7364 55.7361 74.8049 55.7361 74.8391 55.6676C79.2898 50.943 83.7405 46.2185 88.2254 41.5282C89.1497 40.5353 89.9714 39.5083 88.7046 38.3785C87.1983 37.0433 87.4037 35.3315 87.4721 33.7224C87.6433 30.0592 90.6219 26.8068 94.4563 25.7797C95.1067 25.6085 95.7572 25.54 96.4077 25.54C99.0781 25.54 101.714 26.841 103.084 29.169C106.747 35.1945 104.008 40.5353 98.633 42.658Z" fill="#222222"/>
<path d="M106.063 27.3544C104.111 24.0678 100.448 22.0479 96.4427 22.0479C95.4841 22.0479 94.5254 22.1506 93.6353 22.3902C88.2603 23.7939 84.3232 28.3473 84.1177 33.4827C84.1177 33.5854 84.1177 33.6881 84.1177 33.7908C84.0493 35.2287 83.9123 37.5225 85.3502 39.5766C83.2276 41.8362 81.0708 44.0958 78.9824 46.3211C78.2977 47.0401 77.6129 47.759 76.9282 48.478C76.3462 40.3983 75.7642 32.0448 75.6957 23.8624C75.7299 23.8282 75.7642 23.8282 75.7984 23.8282C80.3518 21.6713 82.851 17.4603 82.6114 12.2907C82.4059 7.29224 78.8796 2.46498 74.2578 0.821661C72.8884 0.342359 71.4505 0.102708 70.0126 0.102708C65.6988 0.102708 61.659 2.36227 59.2283 6.12822C55.9074 11.2978 56.5579 17.2891 60.8716 21.3632C60.9743 21.4659 61.077 21.5686 61.1112 21.6028C61.077 21.7055 61.0428 21.8767 60.94 22.1164C60.1526 24.3417 59.3652 26.6355 58.612 28.8266C57.5165 32.0105 56.4209 35.2972 55.2227 38.4811C54.8803 39.4055 54.5722 40.3298 54.2641 41.2542C53.6478 39.6109 52.9973 37.9676 52.3811 36.3585C50.5323 31.5997 48.7863 27.1148 47.5538 22.3902C47.5196 22.1848 47.3827 21.7398 47.3484 21.5001C47.3827 21.4659 47.4511 21.3974 47.5196 21.3289C51.936 17.3918 52.518 11.1267 48.9575 5.68315C46.6295 2.12262 42.795 0 38.6867 0C37.2146 0 35.7767 0.273887 34.4073 0.787425C29.2719 2.73887 26.2249 6.67599 25.8825 11.8456C25.5059 17.2206 28.0394 21.6028 32.8324 23.8966C32.4558 29.3059 32.1477 35.0233 31.9423 40.9119C31.8738 42.384 31.8053 43.8904 31.7026 45.3625C31.6341 46.3211 31.5999 47.2797 31.5314 48.2383C28.6899 45.294 25.8483 42.3498 22.9725 39.4055C25.4032 34.6125 24.5816 29.9221 20.576 25.8481C18.0425 23.2804 15.0982 21.9109 12.0855 21.9109C10.7503 21.9109 9.41507 22.1848 8.07987 22.6984C3.4238 24.5129 0.000217841 29.2717 0.000217841 33.9962C-0.034018 39.3028 3.97159 44.6093 8.86731 45.8761C9.41509 46.013 9.44932 46.013 9.89439 47.1085C11.7431 51.5934 13.6261 56.1126 15.4406 60.529C18.0425 66.7942 20.7472 73.2647 23.3491 79.7011C16.81 82.4742 12.2224 88.979 12.2224 96.5109V108.939H95.9291V96.5109C95.9291 89.0817 91.4784 82.6796 85.0763 79.8038C86.1034 77.3046 87.1305 74.8054 88.1576 72.3061C91.5811 63.9868 95.1074 55.3594 98.5995 46.9031C98.8734 46.2184 99.0103 46.0472 99.8662 45.7391C103.666 44.267 106.405 41.5623 107.569 38.1387C108.391 35.8107 108.836 31.9763 106.063 27.3544ZM92.5398 96.6136V105.618H15.6803V96.6136C15.6803 90.4854 19.3777 85.2473 24.65 82.9877C25.1636 82.7481 25.7114 82.5769 26.2591 82.4057C26.8069 82.2345 27.3547 82.0976 27.9367 81.9949C28.7583 81.8579 29.6142 81.7552 30.5044 81.7552H77.6814C78.64 81.7552 79.5986 81.8579 80.523 82.0291C81.105 82.1318 81.6527 82.2688 82.2005 82.4399C82.7483 82.6111 83.2618 82.8165 83.8096 83.0562C88.945 85.4185 92.5398 90.5881 92.5398 96.6136ZM98.6337 42.6579C96.9219 43.3084 96.1003 44.1985 95.4498 45.7391C90.9307 56.7631 86.4115 67.787 81.8581 78.8452C80.523 78.5371 79.1193 78.3659 77.6814 78.3659H30.5044C29.1692 78.3659 27.8682 78.5028 26.6357 78.7767C22.1851 67.8212 17.5632 56.9 13.0783 45.9445C12.3936 44.3012 11.7774 43.2057 9.72321 42.6921C6.16268 41.802 3.4238 37.6594 3.45803 34.1674C3.45803 30.8465 6.02575 27.3545 9.34662 26.0535C10.3052 25.6769 11.1954 25.5057 12.0855 25.5057C14.3108 25.5057 16.3307 26.567 18.1452 28.4158C21.3634 31.7024 21.7742 35.0575 19.4804 38.8577C19.0011 39.6794 18.8984 40.2956 19.5832 40.9803C24.4104 45.9445 29.2034 50.9087 34.0307 55.8729C34.3046 55.736 34.6127 55.6333 34.8866 55.4963C34.6812 50.7033 35.1947 45.9788 35.3659 41.1857C35.5713 35.5026 35.8794 29.7852 36.2902 24.102C36.3929 22.5272 36.1191 21.7398 34.51 21.0208C30.8467 19.3433 29.0323 16.2963 29.3404 12.2222C29.6143 8.14813 31.9765 5.51197 35.674 4.1083C36.7011 3.73171 37.7281 3.52629 38.721 3.52629C41.631 3.52629 44.4042 5.03267 46.1159 7.66883C48.6494 11.5032 48.5125 15.9881 45.26 18.864C43.5825 20.3703 43.7879 21.6028 44.2672 23.3489C46.3556 31.4628 49.9846 39.0289 52.6208 46.9374C53.0316 48.1699 53.0316 49.6762 54.401 50.6691C56.2155 47.177 57.1057 43.4111 58.4409 39.7821C60.4608 34.3386 62.241 28.7924 64.1582 23.3489C64.7745 21.6028 64.7745 20.4388 63.1996 18.9324C59.9472 15.8854 59.7418 11.6744 62.0698 8.04543C63.9186 5.16961 66.8629 3.59477 69.9783 3.59477C71.0054 3.59477 72.0325 3.76594 73.0596 4.14254C76.312 5.27232 78.9824 8.86709 79.1536 12.5303C79.3247 16.2963 77.6814 19.2406 74.292 20.8496C72.8541 21.5344 72.2379 22.0821 72.2379 23.7597C72.3064 34.2701 73.1965 44.712 73.9154 55.154C73.9154 55.3251 74.1209 55.5306 74.2236 55.7017C74.3605 55.7017 74.5317 55.736 74.6686 55.736C74.7371 55.736 74.8056 55.736 74.8398 55.6675C79.2905 50.943 83.7412 46.2184 88.2261 41.5281C89.1504 40.5353 89.972 39.5082 88.7053 38.3784C87.1989 37.0432 87.4044 35.3314 87.4728 33.7223C87.644 30.0591 90.6225 26.8067 94.457 25.7796C95.1074 25.6084 95.7579 25.54 96.4084 25.54C99.0788 25.54 101.715 26.8409 103.084 29.169C106.748 35.1945 104.009 40.5353 98.6337 42.6579Z" fill="white"/>
<path d="M92.5392 96.6132V105.617H15.6797V96.6132C15.6797 90.485 19.3771 85.2469 24.6495 82.9874C25.163 82.7477 25.7108 82.5765 26.2586 82.4054C26.8064 82.2342 27.3541 82.0972 27.9361 81.9945C28.7578 81.8576 29.6137 81.7549 30.5038 81.7549H77.6808C78.6394 81.7549 79.598 81.8576 80.5224 82.0288C81.1044 82.1315 81.6522 82.2684 82.1999 82.4396C82.7477 82.6108 83.2613 82.8162 83.809 83.0558C88.9444 85.4181 92.5392 90.5877 92.5392 96.6132Z" fill="#222222"/>
</svg>
