<svg width="84" height="107" viewBox="0 0 84 107" fill="none" xmlns="http://www.w3.org/2000/svg">
<path d="M74.6365 9.48341L73.404 26.8068C73.404 26.8068 72.4796 31.5655 67.9262 34.8864L67.892 34.6468L65.427 34.2017C65.0162 34.1332 55.1905 32.3187 41.4962 32.3187C33.4507 32.3187 25.7477 32.935 18.5924 34.2017L16.0931 34.6468L16.0589 34.9549C11.4713 31.634 10.5469 26.841 10.5469 26.841L9.31445 9.51764C13.4912 5.78593 20.2699 5.54628 22.1187 5.54628C22.4268 5.54628 22.598 5.54628 22.598 5.54628L25.508 17.837H32.1155L33.4507 4.48497C35.4364 3.5606 40.5033 3.52637 41.907 3.52637H42.0439C43.4476 3.52637 48.5487 3.59484 50.5002 4.48497L51.8354 17.837H58.4771L61.3872 5.54628C61.3872 5.54628 61.5584 5.54628 61.8323 5.54628C63.6468 5.51205 70.4597 5.78593 74.6365 9.48341Z" fill="#222222"/>
<path d="M69.7749 76.347C68.4397 76.0388 67.0361 75.8677 65.5982 75.8677H18.4212C17.1544 75.8677 15.9219 76.0046 14.6895 76.2442L18.9005 40.1939L19.1059 38.4479L19.2086 37.5577C19.7906 37.455 20.3726 37.3523 20.9546 37.2496C27.3225 36.2568 33.5534 35.8117 39.2366 35.7432C40.024 35.7432 40.7772 35.709 41.5304 35.709C42.6259 35.709 43.7215 35.709 44.7828 35.7432C53.3075 35.9144 59.9835 36.7703 63.0305 37.2496C64.1945 37.4208 64.845 37.5577 64.845 37.5577L64.9477 38.4136L65.1531 40.1596L69.7749 76.347Z" fill="#222222"/>
<path d="M73.4017 77.6127L68.4032 38.6523C70.5259 37.4198 72.0665 35.9477 73.1963 34.5782C75.9694 31.1889 76.6883 27.8338 76.7568 27.4572L76.791 27.2517V27.0463L78.0235 9.72298L78.1262 8.04543L76.8595 6.91564C71.7926 2.39651 64.0553 2.05415 61.7957 2.05415C61.4534 2.05415 61.2137 2.05415 61.1795 2.05415L58.5776 2.15686L57.9955 4.69031L55.7017 14.3448H54.8801L53.853 4.07407L53.6476 2.12262L51.8673 1.30096C49.5735 0.239651 45.2256 0 41.9732 0H41.8362C38.5838 0 34.2359 0.205415 31.942 1.30096L30.1618 2.12262L29.9564 4.07407L28.9293 14.3448H28.1076L25.8138 4.69031L25.1976 2.15686L22.5957 2.05415C22.5614 2.05415 22.356 2.05415 21.9794 2.05415C19.7199 2.05415 11.9826 2.39651 6.91565 6.91564L5.64892 8.04543L5.78586 9.72298L7.01835 27.0463V27.2517L7.05259 27.4572C7.12106 27.8338 7.84001 31.2231 10.6131 34.5782C11.7429 35.9477 13.3178 37.454 15.4746 38.6865L10.9555 77.373C4.51913 80.1804 0 86.651 0 94.1144V106.542H83.8778V94.1144C83.8778 86.8564 79.5641 80.557 73.4017 77.6127ZM10.5446 26.8067L9.31216 9.48333C13.4889 5.75162 20.2676 5.51197 22.1164 5.51197C22.4245 5.51197 22.5957 5.51197 22.5957 5.51197L25.5057 17.8026H32.1132L33.4484 4.45066C35.4341 3.52629 40.501 3.49206 41.9047 3.49206H42.0416C43.4453 3.49206 48.5464 3.56053 50.4979 4.45066L51.8331 17.8026H58.4748L61.3849 5.51197C61.3849 5.51197 61.5561 5.51197 61.83 5.51197C63.6445 5.51197 70.4232 5.78586 74.6342 9.48333L73.4017 26.8067C73.4017 26.8067 72.4773 31.5655 67.9239 34.8863L67.8897 34.6467L65.4247 34.2016C65.0139 34.1332 55.1882 32.3187 41.4939 32.3187C33.4484 32.3187 25.7454 32.9349 18.5901 34.2016L16.0909 34.6467L16.0566 34.9548C11.5032 31.5997 10.5446 26.8067 10.5446 26.8067ZM18.8982 40.1929L19.1036 38.4469L19.2063 37.5567C19.7883 37.454 20.3703 37.3513 20.9523 37.2486C27.3202 36.2558 33.5511 35.8107 39.2343 35.7422C40.0217 35.7422 40.7749 35.708 41.5281 35.708C42.6236 35.708 43.7192 35.708 44.7805 35.7422C53.3052 35.9134 59.9812 36.7693 63.0282 37.2486C64.1922 37.4198 64.8427 37.5567 64.8427 37.5567L64.9454 38.4126L65.1508 40.1587L69.8069 76.346C68.4717 76.0378 67.068 75.8667 65.6301 75.8667H18.4189C17.1522 75.8667 15.9197 76.0036 14.6872 76.2433L18.8982 40.1929ZM80.4543 103.153H3.56053V94.1486C3.56053 88.8078 6.4021 84.1175 10.6131 81.5156C11.1951 81.139 11.8114 80.8309 12.4618 80.557C13.0439 80.2831 13.6601 80.0777 14.2421 79.9065C15.5431 79.5299 16.9468 79.3245 18.3847 79.3245H65.5617C67.205 79.3245 68.7456 79.5984 70.2177 80.0777C70.834 80.2831 71.4502 80.5227 72.0322 80.8309C72.6827 81.139 73.299 81.5156 73.9152 81.8922C77.8523 84.5626 80.42 89.0475 80.42 94.1828V103.153H80.4543Z" fill="white"/>
<path d="M80.4582 94.1493V103.153H3.56445V94.1493C3.56445 88.8085 6.40603 84.1182 10.617 81.5163C11.1991 81.1397 11.8153 80.8316 12.4658 80.5577C13.0478 80.2838 13.664 80.0784 14.246 79.9072C15.547 79.5306 16.9507 79.3252 18.3886 79.3252H65.5656C67.2089 79.3252 68.7495 79.5991 70.2217 80.0784C70.8379 80.2838 71.4542 80.5234 72.0362 80.8316C72.6867 81.1397 73.3029 81.5163 73.9192 81.8929C77.8563 84.529 80.4582 89.0139 80.4582 94.1493Z" fill="#222222"/>
</svg>
