<svg width="2347" height="2103" viewBox="0 0 2347 2103" fill="none" xmlns="http://www.w3.org/2000/svg">
<path d="M146.664 131.386H293.327V262.771H146.664V131.386Z" fill="#070A13"/>
<path d="M0 131.386H146.663V1970.78H0V131.386Z" fill="#3186C1"/>
<path d="M146.664 0H2199.94V131.385H146.664V0Z" fill="#070A13"/>
<path d="M146.664 394.156H293.327V525.542H146.664V394.156Z" fill="#070A13"/>
<path d="M146.664 656.928H293.327V788.313H146.664V656.928Z" fill="#070A13"/>
<path d="M146.664 919.698H293.327V1051.08H146.664V919.698Z" fill="#070A13"/>
<path d="M146.664 1182.47H293.327V1313.86H146.664V1182.47Z" fill="#070A13"/>
<path d="M146.664 1445.24H293.327V1576.63H146.664V1445.24Z" fill="#070A13"/>
<path d="M146.664 1708.01H293.327V1839.4H146.664V1708.01Z" fill="#070A13"/>
<path d="M146.664 262.771H293.327V394.157H146.664V262.771Z" fill="#3186C1"/>
<path d="M146.664 525.542H293.327V656.927H146.664V525.542Z" fill="#3186C1"/>
<path d="M146.664 788.313H293.327V919.699H146.664V788.313Z" fill="#3186C1"/>
<path d="M146.664 1051.08H293.327V1182.47H146.664V1051.08Z" fill="#3186C1"/>
<path d="M146.664 1313.86H293.327V1445.24H146.664V1313.86Z" fill="#3186C1"/>
<path d="M146.664 1576.63H293.327V1708.01H146.664V1576.63Z" fill="white"/>
<path d="M146.664 1839.4H293.327V1970.78H146.664V1839.4Z" fill="white"/>
<path d="M0 1970.78H146.663V2102.17H0V1970.78Z" fill="#FFEB51"/>
<path d="M146.664 1970.78H2199.94V2102.17H146.664V1970.78Z" fill="white"/>
<path d="M0 0H146.663V131.385H0V0Z" fill="#FFEB51"/>
<path d="M2199.94 0H2346.61V131.385H2199.94V0Z" fill="#FFEB51"/>
<path d="M2199.94 1970.78H2346.61V2102.17H2199.94V1970.78Z" fill="#FFEB51"/>
<path d="M2199.94 131.386H2346.61V1970.78H2199.94V131.386Z" fill="#B53A3C"/>
<path d="M293.326 131.386H439.989V262.771H293.326V131.386Z" fill="#3186C1"/>
<path d="M293.326 394.156H439.989V525.542H293.326V394.156Z" fill="#3186C1"/>
<path d="M293.326 656.928H439.989V788.313H293.326V656.928Z" fill="#3186C1"/>
<path d="M293.326 919.698H439.989V1051.08H293.326V919.698Z" fill="#3186C1"/>
<path d="M293.326 1182.47H439.989V1313.86H293.326V1182.47Z" fill="#3186C1"/>
<path d="M293.326 1445.24H439.989V1576.63H293.326V1445.24Z" fill="#3186C1"/>
<path d="M293.326 1708.01H439.989V1839.4H293.326V1708.01Z" fill="white"/>
<path d="M293.326 262.771H439.989V394.157H293.326V262.771Z" fill="#070A13"/>
<path d="M293.326 525.542H439.989V656.927H293.326V525.542Z" fill="#070A13"/>
<path d="M293.326 788.313H439.989V919.699H293.326V788.313Z" fill="#070A13"/>
<path d="M293.326 1051.08H439.989V1182.47H293.326V1051.08Z" fill="#070A13"/>
<path d="M293.326 1313.86H439.989V1445.24H293.326V1313.86Z" fill="#070A13"/>
<path d="M293.326 1576.63H439.989V1708.01H293.326V1576.63Z" fill="#070A13"/>
<path d="M293.326 1839.4H439.989V1970.78H293.326V1839.4Z" fill="#070A13"/>
<path d="M439.988 131.386H586.651V262.771H439.988V131.386Z" fill="#070A13"/>
<path d="M439.988 394.156H586.651V525.542H439.988V394.156Z" fill="#070A13"/>
<path d="M439.988 656.928H586.651V788.313H439.988V656.928Z" fill="#070A13"/>
<path d="M439.988 919.698H586.651V1051.08H439.988V919.698Z" fill="#070A13"/>
<path d="M439.988 1182.47H586.651V1313.86H439.988V1182.47Z" fill="#070A13"/>
<path d="M439.988 1445.24H586.651V1576.63H439.988V1445.24Z" fill="#070A13"/>
<path d="M439.988 1708.01H586.651V1839.4H439.988V1708.01Z" fill="#070A13"/>
<path d="M439.988 262.771H586.651V394.157H439.988V262.771Z" fill="#3186C1"/>
<path d="M439.988 525.542H586.651V656.927H439.988V525.542Z" fill="#3186C1"/>
<path d="M439.988 788.313H586.651V919.699H439.988V788.313Z" fill="#3186C1"/>
<path d="M439.988 1051.08H586.651V1182.47H439.988V1051.08Z" fill="#3186C1"/>
<path d="M439.988 1313.86H586.651V1445.24H439.988V1313.86Z" fill="#3186C1"/>
<path d="M439.988 1576.63H586.651V1708.01H439.988V1576.63Z" fill="white"/>
<path d="M439.988 1839.4H586.651V1970.78H439.988V1839.4Z" fill="white"/>
<path d="M586.652 131.386H733.315V262.771H586.652V131.386Z" fill="#3186C1"/>
<path d="M586.652 394.156H733.315V525.542H586.652V394.156Z" fill="#3186C1"/>
<path d="M586.652 656.928H733.315V788.313H586.652V656.928Z" fill="white"/>
<path d="M586.652 919.698H733.315V1051.08H586.652V919.698Z" fill="white"/>
<path d="M586.652 1182.47H733.315V1313.86H586.652V1182.47Z" fill="white"/>
<path d="M586.652 1445.24H733.315V1576.63H586.652V1445.24Z" fill="white"/>
<path d="M586.652 1708.01H733.315V1839.4H586.652V1708.01Z" fill="white"/>
<path d="M586.652 262.771H733.315V394.157H586.652V262.771Z" fill="#070A13"/>
<path d="M586.652 525.542H733.315V656.927H586.652V525.542Z" fill="#070A13"/>
<path d="M586.652 788.313H733.315V919.699H586.652V788.313Z" fill="#070A13"/>
<path d="M586.652 1051.08H733.315V1182.47H586.652V1051.08Z" fill="#070A13"/>
<path d="M586.652 1313.86H733.315V1445.24H586.652V1313.86Z" fill="#070A13"/>
<path d="M586.652 1576.63H733.315V1708.01H586.652V1576.63Z" fill="#B53A3C"/>
<path d="M586.652 1839.4H733.315V1970.78H586.652V1839.4Z" fill="#B53A3C"/>
<path d="M733.314 131.386H879.977V262.771H733.314V131.386Z" fill="#070A13"/>
<path d="M733.314 394.156H879.977V525.542H733.314V394.156Z" fill="#070A13"/>
<path d="M733.314 656.928H879.977V788.313H733.314V656.928Z" fill="#070A13"/>
<path d="M733.314 919.698H879.977V1051.08H733.314V919.698Z" fill="#070A13"/>
<path d="M733.314 1182.47H879.977V1313.86H733.314V1182.47Z" fill="#070A13"/>
<path d="M733.314 1445.24H879.977V1576.63H733.314V1445.24Z" fill="#070A13"/>
<path d="M733.314 1708.01H879.977V1839.4H733.314V1708.01Z" fill="#B53A3C"/>
<path d="M733.314 262.771H879.977V394.157H733.314V262.771Z" fill="#3186C1"/>
<path d="M733.314 525.542H879.977V656.927H733.314V525.542Z" fill="white"/>
<path d="M733.314 788.313H879.977V919.699H733.314V788.313Z" fill="white"/>
<path d="M733.314 1051.08H879.977V1182.47H733.314V1051.08Z" fill="white"/>
<path d="M733.314 1313.86H879.977V1445.24H733.314V1313.86Z" fill="white"/>
<path d="M733.314 1576.63H879.977V1708.01H733.314V1576.63Z" fill="white"/>
<path d="M733.314 1839.4H879.977V1970.78H733.314V1839.4Z" fill="white"/>
<path d="M879.979 131.386H1026.64V262.771H879.979V131.386Z" fill="#3186C1"/>
<path d="M879.979 394.156H1026.64V525.542H879.979V394.156Z" fill="#3186C1"/>
<path d="M879.979 656.928H1026.64V788.313H879.979V656.928Z" fill="white"/>
<path d="M879.979 919.698H1026.64V1051.08H879.979V919.698Z" fill="white"/>
<path d="M879.979 1182.47H1026.64V1313.86H879.979V1182.47Z" fill="white"/>
<path d="M879.979 1445.24H1026.64V1576.63H879.979V1445.24Z" fill="white"/>
<path d="M879.979 1708.01H1026.64V1839.4H879.979V1708.01Z" fill="white"/>
<path d="M879.979 262.771H1026.64V394.157H879.979V262.771Z" fill="#070A13"/>
<path d="M879.979 525.542H1026.64V656.927H879.979V525.542Z" fill="#070A13"/>
<path d="M879.979 788.313H1026.64V919.699H879.979V788.313Z" fill="#070A13"/>
<path d="M879.979 1051.08H1026.64V1182.47H879.979V1051.08Z" fill="#070A13"/>
<path d="M879.979 1313.86H1026.64V1445.24H879.979V1313.86Z" fill="#070A13"/>
<path d="M879.979 1576.63H1026.64V1708.01H879.979V1576.63Z" fill="#B53A3C"/>
<path d="M879.979 1839.4H1026.64V1970.78H879.979V1839.4Z" fill="#B53A3C"/>
<path d="M1026.64 131.386H1173.3V262.771H1026.64V131.386Z" fill="#070A13"/>
<path d="M1026.64 394.156H1173.3V525.542H1026.64V394.156Z" fill="#070A13"/>
<path d="M1026.64 656.928H1173.3V788.313H1026.64V656.928Z" fill="#070A13"/>
<path d="M1026.64 919.698H1173.3V1051.08H1026.64V919.698Z" fill="#070A13"/>
<path d="M1026.64 1182.47H1173.3V1313.86H1026.64V1182.47Z" fill="#070A13"/>
<path d="M1026.64 1445.24H1173.3V1576.63H1026.64V1445.24Z" fill="#070A13"/>
<path d="M1026.64 1708.01H1173.3V1839.4H1026.64V1708.01Z" fill="#B53A3C"/>
<path d="M1026.64 262.771H1173.3V394.157H1026.64V262.771Z" fill="#3186C1"/>
<path d="M1026.64 525.542H1173.3V656.927H1026.64V525.542Z" fill="white"/>
<path d="M1026.64 788.313H1173.3V919.699H1026.64V788.313Z" fill="white"/>
<path d="M1026.64 1051.08H1173.3V1182.47H1026.64V1051.08Z" fill="white"/>
<path d="M1026.64 1313.86H1173.3V1445.24H1026.64V1313.86Z" fill="white"/>
<path d="M1026.64 1576.63H1173.3V1708.01H1026.64V1576.63Z" fill="white"/>
<path d="M1026.64 1839.4H1173.3V1970.78H1026.64V1839.4Z" fill="white"/>
<path d="M1173.3 131.386H1319.97V262.771H1173.3V131.386Z" fill="#3186C1"/>
<path d="M1173.3 394.156H1319.97V525.542H1173.3V394.156Z" fill="#3186C1"/>
<path d="M1173.3 656.928H1319.97V788.313H1173.3V656.928Z" fill="white"/>
<path d="M1173.3 919.698H1319.97V1051.08H1173.3V919.698Z" fill="white"/>
<path d="M1173.3 1182.47H1319.97V1313.86H1173.3V1182.47Z" fill="white"/>
<path d="M1173.3 1445.24H1319.97V1576.63H1173.3V1445.24Z" fill="white"/>
<path d="M1173.3 1708.01H1319.97V1839.4H1173.3V1708.01Z" fill="white"/>
<path d="M1173.3 262.771H1319.97V394.157H1173.3V262.771Z" fill="#070A13"/>
<path d="M1173.3 525.542H1319.97V656.927H1173.3V525.542Z" fill="#070A13"/>
<path d="M1173.3 788.313H1319.97V919.699H1173.3V788.313Z" fill="#070A13"/>
<path d="M1173.3 1051.08H1319.97V1182.47H1173.3V1051.08Z" fill="#070A13"/>
<path d="M1173.3 1313.86H1319.97V1445.24H1173.3V1313.86Z" fill="#070A13"/>
<path d="M1173.3 1576.63H1319.97V1708.01H1173.3V1576.63Z" fill="#B53A3C"/>
<path d="M1173.3 1839.4H1319.97V1970.78H1173.3V1839.4Z" fill="#B53A3C"/>
<path d="M1319.97 131.386H1466.63V262.771H1319.97V131.386Z" fill="#070A13"/>
<path d="M1319.97 394.156H1466.63V525.542H1319.97V394.156Z" fill="#070A13"/>
<path d="M1319.97 656.928H1466.63V788.313H1319.97V656.928Z" fill="#070A13"/>
<path d="M1319.97 919.698H1466.63V1051.08H1319.97V919.698Z" fill="#070A13"/>
<path d="M1319.97 1182.47H1466.63V1313.86H1319.97V1182.47Z" fill="#070A13"/>
<path d="M1319.97 1445.24H1466.63V1576.63H1319.97V1445.24Z" fill="#070A13"/>
<path d="M1319.97 1708.01H1466.63V1839.4H1319.97V1708.01Z" fill="#B53A3C"/>
<path d="M1319.97 262.771H1466.63V394.157H1319.97V262.771Z" fill="#3186C1"/>
<path d="M1319.97 525.542H1466.63V656.927H1319.97V525.542Z" fill="white"/>
<path d="M1319.97 788.313H1466.63V919.699H1319.97V788.313Z" fill="white"/>
<path d="M1319.97 1051.08H1466.63V1182.47H1319.97V1051.08Z" fill="white"/>
<path d="M1319.97 1313.86H1466.63V1445.24H1319.97V1313.86Z" fill="white"/>
<path d="M1319.97 1576.63H1466.63V1708.01H1319.97V1576.63Z" fill="white"/>
<path d="M1319.97 1839.4H1466.63V1970.78H1319.97V1839.4Z" fill="white"/>
<path d="M1466.63 131.386H1613.29V262.771H1466.63V131.386Z" fill="#3186C1"/>
<path d="M1466.63 394.156H1613.29V525.542H1466.63V394.156Z" fill="#3186C1"/>
<path d="M1466.63 656.928H1613.29V788.313H1466.63V656.928Z" fill="white"/>
<path d="M1466.63 919.698H1613.29V1051.08H1466.63V919.698Z" fill="white"/>
<path d="M1466.63 1182.47H1613.29V1313.86H1466.63V1182.47Z" fill="white"/>
<path d="M1466.63 1445.24H1613.29V1576.63H1466.63V1445.24Z" fill="white"/>
<path d="M1466.63 1708.01H1613.29V1839.4H1466.63V1708.01Z" fill="white"/>
<path d="M1466.63 262.771H1613.29V394.157H1466.63V262.771Z" fill="#070A13"/>
<path d="M1466.63 525.542H1613.29V656.927H1466.63V525.542Z" fill="#070A13"/>
<path d="M1466.63 788.313H1613.29V919.699H1466.63V788.313Z" fill="#070A13"/>
<path d="M1466.63 1051.08H1613.29V1182.47H1466.63V1051.08Z" fill="#070A13"/>
<path d="M1466.63 1313.86H1613.29V1445.24H1466.63V1313.86Z" fill="#070A13"/>
<path d="M1466.63 1576.63H1613.29V1708.01H1466.63V1576.63Z" fill="#B53A3C"/>
<path d="M1466.63 1839.4H1613.29V1970.78H1466.63V1839.4Z" fill="#B53A3C"/>
<path d="M1613.29 131.386H1759.96V262.771H1613.29V131.386Z" fill="#070A13"/>
<path d="M1613.29 394.156H1759.96V525.542H1613.29V394.156Z" fill="#070A13"/>
<path d="M1613.29 656.928H1759.96V788.313H1613.29V656.928Z" fill="#070A13"/>
<path d="M1613.29 919.698H1759.96V1051.08H1613.29V919.698Z" fill="#070A13"/>
<path d="M1613.29 1182.47H1759.96V1313.86H1613.29V1182.47Z" fill="#070A13"/>
<path d="M1613.29 1445.24H1759.96V1576.63H1613.29V1445.24Z" fill="#070A13"/>
<path d="M1613.29 1708.01H1759.96V1839.4H1613.29V1708.01Z" fill="#B53A3C"/>
<path d="M1613.29 262.771H1759.96V394.157H1613.29V262.771Z" fill="#3186C1"/>
<path d="M1613.29 525.542H1759.96V656.927H1613.29V525.542Z" fill="white"/>
<path d="M1613.29 788.313H1759.96V919.699H1613.29V788.313Z" fill="white"/>
<path d="M1613.29 1051.08H1759.96V1182.47H1613.29V1051.08Z" fill="white"/>
<path d="M1613.29 1313.86H1759.96V1445.24H1613.29V1313.86Z" fill="white"/>
<path d="M1613.29 1576.63H1759.96V1708.01H1613.29V1576.63Z" fill="white"/>
<path d="M1613.29 1839.4H1759.96V1970.78H1613.29V1839.4Z" fill="white"/>
<path d="M1759.96 131.386H1906.62V262.771H1759.96V131.386Z" fill="white"/>
<path d="M1759.96 394.156H1906.62V525.542H1759.96V394.156Z" fill="white"/>
<path d="M1759.96 656.928H1906.62V788.313H1759.96V656.928Z" fill="white"/>
<path d="M1759.96 919.698H1906.62V1051.08H1759.96V919.698Z" fill="white"/>
<path d="M1759.96 1182.47H1906.62V1313.86H1759.96V1182.47Z" fill="white"/>
<path d="M1759.96 1445.24H1906.62V1576.63H1759.96V1445.24Z" fill="white"/>
<path d="M1759.96 1708.01H1906.62V1839.4H1759.96V1708.01Z" fill="white"/>
<path d="M1759.96 262.771H1906.62V394.157H1759.96V262.771Z" fill="#070A13"/>
<path d="M1759.96 525.542H1906.62V656.927H1759.96V525.542Z" fill="#B53A3C"/>
<path d="M1759.96 788.313H1906.62V919.699H1759.96V788.313Z" fill="#B53A3C"/>
<path d="M1759.96 1051.08H1906.62V1182.47H1759.96V1051.08Z" fill="#B53A3C"/>
<path d="M1759.96 1313.86H1906.62V1445.24H1759.96V1313.86Z" fill="#B53A3C"/>
<path d="M1759.96 1576.63H1906.62V1708.01H1759.96V1576.63Z" fill="#B53A3C"/>
<path d="M1759.96 1839.4H1906.62V1970.78H1759.96V1839.4Z" fill="#B53A3C"/>
<path d="M1906.62 131.386H2053.28V262.771H1906.62V131.386Z" fill="#070A13"/>
<path d="M1906.62 394.156H2053.28V525.542H1906.62V394.156Z" fill="#070A13"/>
<path d="M1906.62 656.928H2053.28V788.313H1906.62V656.928Z" fill="#B53A3C"/>
<path d="M1906.62 919.698H2053.28V1051.08H1906.62V919.698Z" fill="#B53A3C"/>
<path d="M1906.62 1182.47H2053.28V1313.86H1906.62V1182.47Z" fill="#B53A3C"/>
<path d="M1906.62 1445.24H2053.28V1576.63H1906.62V1445.24Z" fill="#B53A3C"/>
<path d="M1906.62 1708.01H2053.28V1839.4H1906.62V1708.01Z" fill="#B53A3C"/>
<path d="M1906.62 262.771H2053.28V394.157H1906.62V262.771Z" fill="white"/>
<path d="M1906.62 525.542H2053.28V656.927H1906.62V525.542Z" fill="white"/>
<path d="M1906.62 788.313H2053.28V919.699H1906.62V788.313Z" fill="white"/>
<path d="M1906.62 1051.08H2053.28V1182.47H1906.62V1051.08Z" fill="white"/>
<path d="M1906.62 1313.86H2053.28V1445.24H1906.62V1313.86Z" fill="white"/>
<path d="M1906.62 1576.63H2053.28V1708.01H1906.62V1576.63Z" fill="white"/>
<path d="M1906.62 1839.4H2053.28V1970.78H1906.62V1839.4Z" fill="white"/>
<path d="M2053.28 131.386H2199.94V262.771H2053.28V131.386Z" fill="white"/>
<path d="M2053.28 394.156H2199.94V525.542H2053.28V394.156Z" fill="white"/>
<path d="M2053.28 656.928H2199.94V788.313H2053.28V656.928Z" fill="white"/>
<path d="M2053.28 919.698H2199.94V1051.08H2053.28V919.698Z" fill="white"/>
<path d="M2053.28 1182.47H2199.94V1313.86H2053.28V1182.47Z" fill="white"/>
<path d="M2053.28 1445.24H2199.94V1576.63H2053.28V1445.24Z" fill="white"/>
<path d="M2053.28 1708.01H2199.94V1839.4H2053.28V1708.01Z" fill="white"/>
<path d="M2053.28 262.771H2199.94V394.157H2053.28V262.771Z" fill="#070A13"/>
<path d="M2053.28 525.542H2199.94V656.927H2053.28V525.542Z" fill="#B53A3C"/>
<path d="M2053.28 788.313H2199.94V919.699H2053.28V788.313Z" fill="#B53A3C"/>
<path d="M2053.28 1051.08H2199.94V1182.47H2053.28V1051.08Z" fill="#B53A3C"/>
<path d="M2053.28 1313.86H2199.94V1445.24H2053.28V1313.86Z" fill="#B53A3C"/>
<path d="M2053.28 1576.63H2199.94V1708.01H2053.28V1576.63Z" fill="#B53A3C"/>
<path d="M2053.28 1839.4H2199.94V1970.78H2053.28V1839.4Z" fill="#B53A3C"/>
<path d="M585.125 131.386H589.708V1970.78H585.125V131.386Z" fill="#FFEB51"/>
<path d="M1759.96 131.386H1764.54V1970.78H1759.96V131.386Z" fill="#FFEB51"/>
<path d="M2199.94 524.015L2199.94 528.598L146.663 528.598L146.663 524.015L2199.94 524.015Z" fill="#FFEB51"/>
<path d="M2199.94 0L2199.94 4.5833L146.663 4.58321L146.663 -8.53777e-05L2199.94 0Z" fill="#FFEB51"/>
<path d="M2199.94 1970.78L2199.94 1975.37L146.663 1975.37L146.663 1970.78L2199.94 1970.78Z" fill="#FFEB51"/>
<path d="M2199.94 131.386L2204.53 131.386L2204.53 1970.78L2199.94 1970.78L2199.94 131.386Z" fill="#FFEB51"/>
<path d="M2199.94 126.803L2199.94 131.386L146.663 131.386L146.663 126.803L2199.94 126.803Z" fill="#FFEB51"/>
<path d="M2199.94 2097.58L2199.94 2102.17L146.663 2102.17L146.663 2097.58L2199.94 2097.58Z" fill="#FFEB51"/>
<path d="M2342.02 131.386L2346.61 131.386L2346.61 1970.78L2342.02 1970.78L2342.02 131.386Z" fill="#FFEB51"/>
<path d="M4.58398 1970.78L0.000617027 1970.78L0.000769795 131.386L4.58414 131.386L4.58398 1970.78Z" fill="#FFEB51"/>
<path d="M146.664 1970.78L142.081 1970.78L142.081 131.386L146.664 131.386L146.664 1970.78Z" fill="#FFEB51"/>
<path d="M2214.28 1577L2214.28 1581.58L160.999 1581.58L160.999 1577L2214.28 1577Z" fill="#FFEB51"/>
<path d="M70.3017 73.3158L96.2732 77.899C96.2732 77.8481 96.2987 78.4337 96.3496 79.6559C96.4515 80.929 96.5533 82.304 96.6552 83.7808C96.757 85.5122 96.8843 87.4983 97.0371 89.739L55.0243 80.1906L55.0243 66.4409L96.2732 56.8926L97.0371 69.4964L70.3017 73.3158Z" fill="#070A13"/>
<path d="M96.2732 41.7156L97.0371 51.6459L55.0243 52.5625L55.0243 41.1045L96.2732 41.7156Z" fill="#070A13"/>
<path d="M2276.55 42.7502L2286.48 41.9863L2287.4 83.9991H2275.94L2276.55 42.7502Z" fill="#070A13"/>
<path d="M2260.54 42.7502L2270.47 41.9863L2271.38 83.9991H2259.93L2260.54 42.7502Z" fill="#070A13"/>
<path d="M2296.22 2047L2296.98 2056.93L2254.97 2057.85L2254.97 2046.39L2296.22 2047Z" fill="#070A13"/>
<path d="M2296.22 2030.99L2296.98 2040.92L2254.97 2041.83L2254.97 2030.38L2296.22 2030.99Z" fill="#070A13"/>
<path d="M2296.22 2014.97L2296.98 2024.9L2254.97 2025.82L2254.97 2014.36L2296.22 2014.97Z" fill="#070A13"/>
<path d="M67.8435 2013.53L77.7738 2012.77L78.6905 2054.78H67.2324L67.8435 2013.53Z" fill="#070A13"/>
<path d="M177.488 1127.21L190.321 1115.88C190.321 1111.38 191.069 1107.39 192.566 1103.9C194.135 1100.48 196.309 1097.59 199.09 1095.24C201.87 1092.88 205.15 1091.1 208.928 1089.89C212.707 1088.68 216.842 1088.07 221.334 1088.07C225.825 1088.07 229.889 1088.68 233.525 1089.89C237.232 1091.17 240.405 1093.03 243.043 1095.45C245.681 1097.87 247.713 1100.83 249.139 1104.33C250.564 1107.82 251.277 1111.81 251.277 1116.3C251.277 1120.8 250.564 1124.79 249.139 1128.28C247.713 1131.85 245.681 1134.84 243.043 1137.26C240.405 1139.69 237.232 1141.54 233.525 1142.83C229.889 1144.11 225.825 1144.75 221.334 1144.75C215.416 1144.75 210.14 1143.61 205.506 1141.33C200.943 1139.12 197.343 1135.95 194.705 1131.81L188.075 1139.3L177.488 1127.21ZM234.167 1115.88C234.167 1111.95 232.919 1108.96 230.424 1106.89C228 1104.83 224.827 1103.79 220.906 1103.79C216.985 1103.79 213.741 1104.83 211.174 1106.89C208.679 1108.96 207.431 1111.95 207.431 1115.88C207.431 1119.8 208.679 1122.86 211.174 1125.07C213.741 1127.28 216.985 1128.39 220.906 1128.39C224.827 1128.39 228 1127.28 230.424 1125.07C232.919 1122.86 234.167 1119.8 234.167 1115.88Z" fill="#070A13"/>
<path d="M1111.16 1949.88L1099.83 1937.05C1095.34 1937.05 1091.34 1936.3 1087.85 1934.8C1084.43 1933.23 1081.54 1931.06 1079.19 1928.28C1076.84 1925.5 1075.05 1922.22 1073.84 1918.44C1072.63 1914.66 1072.02 1910.53 1072.02 1906.04C1072.02 1901.54 1072.63 1897.48 1073.84 1893.84C1075.12 1890.14 1076.98 1886.96 1079.4 1884.33C1081.83 1881.69 1084.79 1879.66 1088.28 1878.23C1091.77 1876.8 1095.76 1876.09 1100.26 1876.09C1104.75 1876.09 1108.74 1876.8 1112.23 1878.23C1115.8 1879.66 1118.79 1881.69 1121.22 1884.33C1123.64 1886.96 1125.49 1890.14 1126.78 1893.84C1128.06 1897.48 1128.7 1901.54 1128.7 1906.04C1128.7 1911.95 1127.56 1917.23 1125.28 1921.86C1123.07 1926.43 1119.9 1930.03 1115.76 1932.66L1123.25 1939.29L1111.16 1949.88ZM1099.83 1893.2C1095.91 1893.2 1092.91 1894.45 1090.85 1896.95C1088.78 1899.37 1087.74 1902.54 1087.74 1906.46C1087.74 1910.38 1088.78 1913.63 1090.85 1916.19C1092.91 1918.69 1095.91 1919.94 1099.83 1919.94C1103.75 1919.94 1106.82 1918.69 1109.03 1916.19C1111.24 1913.63 1112.34 1910.38 1112.34 1906.46C1112.34 1902.54 1111.24 1899.37 1109.03 1896.95C1106.82 1894.45 1103.75 1893.2 1099.83 1893.2Z" fill="#B53A3C"/>
<path d="M2167.58 1105.57L2154.75 1116.91C2154.75 1121.4 2154 1125.39 2152.5 1128.89C2150.93 1132.31 2148.76 1135.2 2145.98 1137.55C2143.2 1139.9 2139.92 1141.68 2136.14 1142.89C2132.36 1144.11 2128.22 1144.71 2123.73 1144.71C2119.24 1144.71 2115.18 1144.11 2111.54 1142.89C2107.83 1141.61 2104.66 1139.76 2102.02 1137.33C2099.39 1134.91 2097.35 1131.95 2095.93 1128.46C2094.5 1124.96 2093.79 1120.97 2093.79 1116.48C2093.79 1111.99 2094.5 1108 2095.93 1104.5C2097.35 1100.94 2099.39 1097.94 2102.02 1095.52C2104.66 1093.1 2107.83 1091.24 2111.54 1089.96C2115.18 1088.68 2119.24 1088.03 2123.73 1088.03C2129.65 1088.03 2134.93 1089.17 2139.56 1091.46C2144.12 1093.67 2147.72 1096.84 2150.36 1100.97L2156.99 1093.49L2167.58 1105.57ZM2110.9 1116.91C2110.9 1120.83 2112.15 1123.82 2114.64 1125.89C2117.07 1127.96 2120.24 1128.99 2124.16 1128.99C2128.08 1128.99 2131.33 1127.96 2133.89 1125.89C2136.39 1123.82 2137.64 1120.83 2137.64 1116.91C2137.64 1112.99 2136.39 1109.92 2133.89 1107.71C2131.33 1105.5 2128.08 1104.4 2124.16 1104.4C2120.24 1104.4 2117.07 1105.5 2114.64 1107.71C2112.15 1109.92 2110.9 1112.99 2110.9 1116.91Z" fill="white"/>
<path d="M224.529 2052.18C222.696 2053.92 220.379 2054.78 217.578 2054.78C215.643 2054.78 213.835 2054.45 212.154 2053.79C210.525 2053.13 209.073 2052.18 207.8 2050.96C206.578 2049.74 205.61 2048.24 204.898 2046.46C204.185 2044.62 203.828 2042.56 203.828 2040.27C203.828 2038.38 204.134 2036.68 204.745 2035.15C205.407 2033.62 206.298 2032.35 207.418 2031.33C208.539 2030.26 209.863 2029.45 211.39 2028.89C212.918 2028.33 214.599 2028.05 216.432 2028.05C217.654 2028.05 218.749 2028.25 219.717 2028.66C220.684 2029.01 221.499 2029.47 222.161 2030.03C222.874 2030.59 223.46 2031.23 223.918 2031.94C224.376 2032.6 224.733 2033.27 224.987 2033.93L225.216 2028.05L235.147 2027.28L235.911 2054.78H224.453L224.529 2052.18ZM220.251 2046.38C221.117 2046.38 221.932 2046.15 222.696 2045.69C223.51 2045.18 224.198 2044.62 224.758 2044.01L224.911 2038.13C224.504 2037.77 223.918 2037.42 223.154 2037.06C222.39 2036.65 221.423 2036.45 220.251 2036.45C219.691 2036.45 219.106 2036.53 218.494 2036.68C217.934 2036.83 217.4 2037.09 216.89 2037.44C216.432 2037.8 216.05 2038.28 215.744 2038.89C215.439 2039.45 215.286 2040.17 215.286 2041.03C215.286 2042 215.439 2042.81 215.744 2043.48C216.05 2044.14 216.432 2044.7 216.89 2045.16C217.4 2045.56 217.934 2045.87 218.494 2046.07C219.106 2046.28 219.691 2046.38 220.251 2046.38Z" fill="#070A13"/>
<path d="M2291.58 1913.28L2260.26 1912.89L2261.03 1917.86L2250.33 1917.1L2249.57 1902.58L2291.58 1901.82L2291.58 1913.28Z" fill="#070A13"/>
<path d="M53.4989 1906.07L84.8176 1906.45L84.0537 1901.49L94.7479 1902.25L95.5117 1916.76L53.4989 1917.53L53.4989 1906.07Z" fill="#070A13"/>
<path d="M350.721 2054.78L351.485 2013.53L361.415 2012.77L361.797 2033.47C362.102 2032.86 362.484 2032.22 362.943 2031.56C363.401 2030.9 363.961 2030.31 364.623 2029.8C365.336 2029.29 366.151 2028.89 367.068 2028.58C367.984 2028.22 369.028 2028.05 370.199 2028.05C372.033 2028.05 373.713 2028.33 375.241 2028.89C376.769 2029.45 378.093 2030.26 379.213 2031.33C380.333 2032.35 381.199 2033.62 381.81 2035.15C382.472 2036.68 382.803 2038.38 382.803 2040.27C382.803 2042.56 382.447 2044.62 381.734 2046.46C381.021 2048.24 380.028 2049.74 378.755 2050.96C377.533 2052.18 376.081 2053.13 374.401 2053.79C372.72 2054.45 370.938 2054.78 369.054 2054.78C367.73 2054.78 366.456 2054.58 365.234 2054.17C364.012 2053.76 362.968 2053.13 362.102 2052.26L362.179 2054.78H350.721ZM366.38 2036.45C365.311 2036.45 364.394 2036.63 363.63 2036.98C362.866 2037.34 362.281 2037.7 361.873 2038.05L361.95 2044.16C362.51 2044.72 363.172 2045.23 363.936 2045.69C364.75 2046.15 365.565 2046.38 366.38 2046.38C366.94 2046.38 367.5 2046.28 368.061 2046.07C368.672 2045.87 369.206 2045.56 369.665 2045.16C370.174 2044.7 370.581 2044.14 370.887 2043.48C371.192 2042.81 371.345 2042 371.345 2041.03C371.345 2040.17 371.192 2039.45 370.887 2038.89C370.581 2038.28 370.174 2037.8 369.665 2037.44C369.206 2037.09 368.672 2036.83 368.061 2036.68C367.5 2036.52 366.94 2036.45 366.38 2036.45Z" fill="#070A13"/>
<path d="M2251.1 1789.96C2250.69 1789.04 2250.31 1788 2249.95 1786.83C2249.7 1785.81 2249.44 1784.61 2249.19 1783.24C2248.93 1781.81 2248.8 1780.23 2248.8 1778.5C2248.8 1776.77 2249.11 1775.09 2249.72 1773.46C2250.28 1771.83 2251.15 1770.38 2252.32 1769.11C2253.44 1767.78 2254.86 1766.74 2256.6 1765.98C2258.28 1765.16 2260.26 1764.75 2262.55 1764.75C2265.2 1764.75 2267.52 1765.24 2269.51 1766.2C2271.49 1767.17 2273.22 1768.37 2274.7 1769.8C2276.18 1771.22 2277.48 1772.75 2278.6 1774.38C2279.72 1776.01 2280.76 1777.46 2281.73 1778.73L2280.89 1764.75L2291.58 1764.75L2291.58 1791.49L2280.12 1792.25C2278.95 1789.4 2277.63 1786.85 2276.15 1784.61C2275.54 1783.65 2274.88 1782.7 2274.17 1781.79C2273.4 1780.87 2272.61 1780.06 2271.8 1779.34C2270.93 1778.63 2270.07 1778.07 2269.2 1777.66C2268.28 1777.2 2267.34 1776.98 2266.37 1776.98C2264.44 1776.98 2263.06 1777.48 2262.25 1778.5C2261.43 1779.52 2261.03 1780.79 2261.03 1782.32C2261.03 1783.49 2261.1 1784.56 2261.26 1785.53C2261.41 1786.45 2261.59 1787.24 2261.79 1787.9C2261.99 1788.71 2262.25 1789.4 2262.55 1789.96L2251.1 1789.96Z" fill="#070A13"/>
<path d="M93.9838 1766.61C94.3912 1767.53 94.7731 1768.57 95.1296 1769.75C95.3842 1770.76 95.6388 1771.96 95.8935 1773.34C96.1481 1774.76 96.2754 1776.34 96.2754 1778.07C96.2754 1779.8 95.9698 1781.48 95.3588 1783.11C94.7986 1784.74 93.9329 1786.19 92.7616 1787.47C91.6413 1788.79 90.2154 1789.84 88.4839 1790.6C86.8034 1791.41 84.8174 1791.82 82.5257 1791.82C79.8777 1791.82 77.5606 1791.34 75.5745 1790.37C73.5885 1789.4 71.857 1788.21 70.3802 1786.78C68.9034 1785.35 67.6048 1783.83 66.4845 1782.2C65.3642 1780.57 64.3202 1779.12 63.3526 1777.84L64.1929 1791.82L53.4987 1791.82L53.4987 1765.09L64.9568 1764.32C66.128 1767.17 67.4521 1769.72 68.9289 1771.96C69.54 1772.93 70.202 1773.87 70.9149 1774.79C71.6788 1775.7 72.4681 1776.52 73.2829 1777.23C74.1486 1777.94 75.0144 1778.5 75.8801 1778.91C76.7967 1779.37 77.7388 1779.6 78.7064 1779.6C80.6415 1779.6 82.0165 1779.09 82.8313 1778.07C83.6461 1777.05 84.0535 1775.78 84.0535 1774.25C84.0535 1773.08 83.9771 1772.01 83.8243 1771.04C83.6716 1770.13 83.4933 1769.34 83.2896 1768.68C83.0859 1767.86 82.8313 1767.17 82.5257 1766.61L93.9838 1766.61Z" fill="#070A13"/>
<path d="M500.512 2040.27C500.512 2038.38 500.868 2036.65 501.581 2035.07C502.345 2033.44 503.414 2032.07 504.789 2030.95C506.164 2029.78 507.845 2028.89 509.831 2028.28C511.817 2027.61 514.058 2027.28 516.553 2027.28C518.081 2027.28 519.43 2027.41 520.601 2027.66C521.773 2027.92 522.766 2028.17 523.581 2028.43C524.497 2028.78 525.337 2029.17 526.101 2029.57L525.337 2035.68C525.287 2035.58 524.726 2035.3 523.657 2034.84C522.588 2034.39 520.983 2034.16 518.845 2034.16C516.909 2034.16 515.28 2034.69 513.956 2035.76C512.632 2036.83 511.97 2038.33 511.97 2040.27C511.97 2042.2 512.53 2043.83 513.65 2045.16C514.822 2046.48 516.553 2047.14 518.845 2047.14C520.882 2047.14 522.486 2047.02 523.657 2046.76C524.268 2046.66 524.828 2046.53 525.337 2046.38V2054.02C524.777 2054.32 524.064 2054.58 523.199 2054.78C522.486 2054.99 521.569 2055.16 520.449 2055.32C519.379 2055.47 518.081 2055.55 516.553 2055.55C514.058 2055.55 511.817 2055.19 509.831 2054.48C507.845 2053.71 506.164 2052.67 504.789 2051.34C503.414 2050.02 502.345 2048.42 501.581 2046.53C500.868 2044.65 500.512 2042.56 500.512 2040.27Z" fill="#070A13"/>
<path d="M2251.1 1659.06C2250.79 1658.45 2250.54 1657.68 2250.33 1656.77C2250.13 1656 2249.95 1655.06 2249.8 1653.94C2249.64 1652.77 2249.57 1651.42 2249.57 1649.89C2249.57 1646.63 2250.05 1643.93 2251.02 1641.79C2251.99 1639.6 2253.21 1637.95 2254.69 1636.83C2256.16 1635.66 2257.79 1634.97 2259.58 1634.77C2261.31 1634.51 2262.96 1634.66 2264.54 1635.22C2266.12 1635.73 2267.52 1636.6 2268.74 1637.82C2269.91 1639.04 2270.65 1640.52 2270.96 1642.25C2271.42 1640.06 2272.26 1638.31 2273.48 1636.98C2274.7 1635.61 2276.1 1634.69 2277.68 1634.23C2279.26 1633.77 2280.91 1633.72 2282.64 1634.08C2284.38 1634.44 2285.95 1635.2 2287.38 1636.37C2288.81 1637.54 2290 1639.15 2290.97 1641.18C2291.89 1643.17 2292.35 1645.56 2292.35 1648.36C2292.35 1650.65 2292.22 1652.51 2291.96 1653.94C2291.76 1655.31 2291.5 1656.38 2291.2 1657.15C2290.89 1658.06 2290.51 1658.7 2290.05 1659.06L2277.83 1659.82C2278.39 1659.36 2278.9 1658.73 2279.36 1657.91C2279.77 1657.25 2280.12 1656.38 2280.43 1655.31C2280.73 1654.25 2280.89 1652.95 2280.89 1651.42C2280.89 1649.13 2280.53 1647.47 2279.82 1646.45C2279.1 1645.38 2278.32 1644.95 2277.45 1645.15C2276.58 1645.36 2275.79 1646.2 2275.08 1647.68C2274.37 1649.1 2274.01 1651.11 2274.01 1653.71L2267.14 1652.95C2267.14 1650.81 2266.78 1649.15 2266.07 1647.98C2265.35 1646.81 2264.57 1646.15 2263.7 1646C2262.83 1645.84 2262.04 1646.22 2261.33 1647.14C2260.62 1648.01 2260.26 1649.43 2260.26 1651.42C2260.26 1652.39 2260.39 1653.33 2260.64 1654.25C2260.9 1655.16 2261.15 1655.98 2261.41 1656.69C2261.76 1657.56 2262.15 1658.34 2262.55 1659.06L2251.1 1659.06Z" fill="#070A13"/>
<path d="M93.984 1634.75C94.2895 1635.36 94.5442 1636.12 94.7479 1637.04C94.9515 1637.8 95.1298 1638.74 95.2826 1639.87C95.4353 1641.04 95.5117 1642.39 95.5117 1643.91C95.5117 1647.17 95.0279 1649.87 94.0604 1652.01C93.0928 1654.2 91.8706 1655.86 90.3938 1656.98C88.917 1658.15 87.2874 1658.83 85.505 1659.04C83.7736 1659.29 82.1185 1659.14 80.5399 1658.58C78.9612 1658.07 77.5608 1657.21 76.3386 1655.98C75.1673 1654.76 74.4289 1653.28 74.1234 1651.55C73.6651 1653.74 72.8248 1655.5 71.6026 1656.82C70.3804 1658.2 68.98 1659.11 67.4013 1659.57C65.8227 1660.03 64.1676 1660.08 62.4362 1659.73C60.7047 1659.37 59.1261 1658.61 57.7002 1657.43C56.2743 1656.26 55.0776 1654.66 54.11 1652.62C53.1934 1650.64 52.735 1648.24 52.735 1645.44C52.735 1643.15 52.8624 1641.29 53.117 1639.87C53.3207 1638.49 53.5753 1637.42 53.8808 1636.66C54.1864 1635.74 54.5683 1635.1 55.0267 1634.75L67.2486 1633.98C66.6884 1634.44 66.1791 1635.08 65.7208 1635.89C65.3134 1636.56 64.957 1637.42 64.6514 1638.49C64.3459 1639.56 64.1931 1640.86 64.1931 1642.39C64.1931 1644.68 64.5496 1646.33 65.2625 1647.35C65.9754 1648.42 66.7648 1648.85 67.6305 1648.65C68.4962 1648.45 69.2855 1647.61 69.9985 1646.13C70.7114 1644.7 71.0679 1642.69 71.0679 1640.09L77.9427 1640.86C77.9427 1643 78.2992 1644.65 79.0121 1645.82C79.7251 1646.99 80.5144 1647.66 81.3801 1647.81C82.2459 1647.96 83.0352 1647.58 83.7481 1646.66C84.4611 1645.8 84.8176 1644.37 84.8176 1642.39C84.8176 1641.42 84.6902 1640.48 84.4356 1639.56C84.181 1638.64 83.9264 1637.83 83.6717 1637.12C83.3153 1636.25 82.9333 1635.46 82.5259 1634.75L93.984 1634.75Z" fill="#070A13"/>
<path d="M664.441 2054.78V2052.26C662.659 2053.94 660.367 2054.78 657.566 2054.78C655.631 2054.78 653.823 2054.45 652.143 2053.79C650.513 2053.13 649.062 2052.18 647.789 2050.96C646.566 2049.74 645.599 2048.24 644.886 2046.46C644.173 2044.62 643.816 2042.56 643.816 2040.27C643.816 2038.38 644.122 2036.68 644.733 2035.15C645.395 2033.62 646.286 2032.35 647.407 2031.33C648.527 2030.26 649.851 2029.45 651.379 2028.89C652.906 2028.33 654.587 2028.05 656.42 2028.05C657.592 2028.05 658.635 2028.22 659.552 2028.58C660.469 2028.89 661.258 2029.29 661.92 2029.8C662.633 2030.31 663.219 2030.9 663.677 2031.56C664.135 2032.22 664.517 2032.86 664.823 2033.47L665.205 2013.53L675.135 2012.77L675.899 2054.78H664.441ZM660.24 2046.38C661.054 2046.38 661.844 2046.15 662.608 2045.69C663.371 2045.23 664.033 2044.72 664.594 2044.16L664.746 2038.05C664.339 2037.7 663.753 2037.34 662.99 2036.98C662.277 2036.63 661.36 2036.45 660.24 2036.45C659.679 2036.45 659.094 2036.52 658.483 2036.68C657.923 2036.83 657.388 2037.09 656.879 2037.44C656.42 2037.8 656.038 2038.28 655.733 2038.89C655.427 2039.45 655.274 2040.17 655.274 2041.03C655.274 2042 655.427 2042.81 655.733 2043.48C656.038 2044.14 656.42 2044.7 656.879 2045.16C657.388 2045.56 657.923 2045.87 658.483 2046.07C659.094 2046.28 659.679 2046.38 660.24 2046.38Z" fill="#070A13"/>
<path d="M2283.33 1503.09L2291.58 1503.02L2291.58 1514.47L2283.48 1514.25L2283.18 1530.52L2271.72 1531.28L2250.33 1513.33L2249.57 1503.4L2272.64 1503.25L2272.48 1499.96L2283.18 1500.72L2283.33 1503.09ZM2272.79 1513.94L2264.39 1513.71L2272.48 1522.88L2272.79 1513.94Z" fill="#070A13"/>
<path d="M61.7487 1527.94L53.4989 1528.02L53.4989 1516.56L61.5959 1516.79L61.9015 1500.52L73.3595 1499.75L94.7479 1517.7L95.5117 1527.64L72.4429 1527.79L72.5956 1531.07L61.9015 1530.31L61.7487 1527.94ZM72.2901 1517.09L80.6927 1517.32L72.5956 1508.16L72.2901 1517.09Z" fill="#070A13"/>
<path d="M793.092 2040.27C793.092 2038.38 793.423 2036.65 794.085 2035.07C794.798 2033.44 795.765 2032.07 796.988 2030.95C798.21 2029.78 799.687 2028.89 801.418 2028.28C803.149 2027.61 805.085 2027.28 807.223 2027.28C809.311 2027.28 811.17 2027.64 812.8 2028.35C814.429 2029.06 815.779 2030.03 816.848 2031.25C817.968 2032.43 818.809 2033.8 819.369 2035.38C819.929 2036.91 820.209 2038.54 820.209 2040.27L806.307 2045.23C807.478 2046.51 809.184 2047.14 811.425 2047.14C812.443 2047.14 813.385 2047.07 814.251 2046.91C815.168 2046.76 815.957 2046.58 816.619 2046.38C817.383 2046.18 818.07 2045.92 818.681 2045.62L819.445 2053.25C818.58 2053.71 817.612 2054.09 816.543 2054.4C815.626 2054.71 814.531 2054.96 813.258 2055.16C812.036 2055.42 810.661 2055.55 809.133 2055.55C806.638 2055.55 804.397 2055.19 802.411 2054.48C800.425 2053.71 798.744 2052.67 797.369 2051.34C795.995 2050.02 794.925 2048.42 794.161 2046.53C793.448 2044.65 793.092 2042.56 793.092 2040.27ZM812.57 2037.98C812.57 2037.93 812.494 2037.75 812.341 2037.44C812.239 2037.14 812.036 2036.81 811.73 2036.45C811.476 2036.04 811.094 2035.68 810.584 2035.38C810.126 2035.07 809.515 2034.92 808.751 2034.92C807.223 2034.92 806.128 2035.43 805.466 2036.45C804.855 2037.47 804.55 2038.71 804.55 2040.19L812.57 2037.98Z" fill="#070A13"/>
<path d="M2261.03 1375.08L2260.64 1386L2263.32 1386.54C2263.32 1384.6 2263.62 1382.69 2264.23 1380.81C2264.79 1378.87 2265.69 1377.17 2266.91 1375.69C2268.08 1374.16 2269.58 1372.94 2271.42 1372.02C2273.2 1371.11 2275.34 1370.65 2277.83 1370.65C2279.16 1370.65 2280.66 1370.88 2282.34 1371.33C2284.02 1371.74 2285.6 1372.51 2287.07 1373.63C2288.55 1374.75 2289.8 1376.3 2290.82 1378.29C2291.84 1380.22 2292.35 1382.72 2292.35 1385.77C2292.35 1387.71 2292.22 1389.36 2291.96 1390.74C2291.76 1392.06 2291.5 1393.16 2291.2 1394.02C2290.89 1395.04 2290.51 1395.85 2290.05 1396.47L2277.83 1397.23C2278.39 1396.62 2278.9 1395.88 2279.36 1395.01C2279.77 1394.3 2280.12 1393.44 2280.43 1392.42C2280.73 1391.35 2280.89 1390.15 2280.89 1388.83C2280.89 1388.11 2280.81 1387.38 2280.66 1386.61C2280.51 1385.8 2280.25 1385.06 2279.89 1384.4C2279.54 1383.73 2279.08 1383.2 2278.52 1382.79C2277.91 1382.33 2277.17 1382.1 2276.3 1382.1C2275.74 1382.1 2275.11 1382.28 2274.39 1382.64C2273.68 1383 2273.02 1383.71 2272.41 1384.78C2271.8 1385.85 2271.29 1387.32 2270.88 1389.21C2270.42 1391.09 2270.19 1393.56 2270.19 1396.62L2251.1 1395.85L2249.57 1375.08L2261.03 1375.08Z" fill="#070A13"/>
<path d="M84.0537 1393.19L84.4356 1382.26L81.7621 1381.73C81.7621 1383.66 81.4565 1385.57 80.8454 1387.46C80.2853 1389.39 79.3941 1391.1 78.1719 1392.57C77.0006 1394.1 75.4983 1395.32 73.6651 1396.24C71.8827 1397.16 69.7439 1397.62 67.2486 1397.62C65.9245 1397.62 64.4222 1397.39 62.7417 1396.93C61.0612 1396.52 59.4826 1395.76 58.0057 1394.64C56.5289 1393.52 55.2813 1391.96 54.2628 1389.98C53.2443 1388.04 52.735 1385.55 52.735 1382.49C52.735 1380.56 52.8624 1378.9 53.117 1377.53C53.3207 1376.2 53.5753 1375.11 53.8808 1374.24C54.1864 1373.22 54.5683 1372.41 55.0267 1371.8L67.2486 1371.03C66.6884 1371.64 66.1791 1372.38 65.7208 1373.25C65.3134 1373.96 64.957 1374.83 64.6514 1375.85C64.3459 1376.91 64.1931 1378.11 64.1931 1379.44C64.1931 1380.15 64.2695 1380.89 64.4222 1381.65C64.575 1382.47 64.8296 1383.2 65.1861 1383.87C65.5426 1384.53 66.0009 1385.06 66.5611 1385.47C67.1722 1385.93 67.9106 1386.16 68.7763 1386.16C69.3365 1386.16 69.973 1385.98 70.686 1385.62C71.3989 1385.27 72.0609 1384.55 72.672 1383.48C73.2831 1382.41 73.7924 1380.94 74.1998 1379.05C74.6581 1377.17 74.8873 1374.7 74.8873 1371.64L93.984 1372.41L95.5117 1393.19L84.0537 1393.19Z" fill="#070A13"/>
<path d="M945.571 2054.78L946.258 2033.55L944.043 2033.39V2027.28L945.494 2027.21C945.24 2026.39 945.061 2025.53 944.96 2024.61C944.858 2023.69 944.807 2022.8 944.807 2021.93C944.807 2018.88 945.902 2016.59 948.091 2015.06C950.332 2013.53 953.566 2012.77 957.793 2012.77H962.376V2023.46H957.029C955.654 2023.46 954.584 2023.62 953.82 2023.92C953.057 2024.18 952.496 2024.51 952.14 2024.91C951.784 2025.27 951.58 2025.65 951.529 2026.06C951.478 2026.42 951.478 2026.72 951.529 2026.98L960.084 2026.52V2034.16L956.341 2034L957.029 2054.78H945.571Z" fill="#070A13"/>
<path d="M2261.03 1242.81C2261.03 1245.97 2261.46 1248.64 2262.33 1250.83C2263.19 1253.02 2264.46 1254.68 2266.14 1255.8C2265.74 1254.93 2265.43 1253.94 2265.23 1252.82C2264.97 1251.7 2264.85 1250.4 2264.85 1248.92C2264.85 1247.35 2265.13 1245.79 2265.69 1244.26C2266.2 1242.69 2266.98 1241.29 2268.05 1240.06C2269.07 1238.84 2270.35 1237.85 2271.87 1237.08C2273.35 1236.32 2275.08 1235.94 2277.07 1235.94C2279.36 1235.94 2281.45 1236.32 2283.33 1237.08C2285.22 1237.8 2286.82 1238.84 2288.14 1240.22C2289.47 1241.59 2290.51 1243.27 2291.28 1245.26C2291.99 1247.24 2292.35 1249.48 2292.35 1251.98C2292.35 1254.68 2291.84 1257.12 2290.82 1259.31C2289.8 1261.45 2288.37 1263.29 2286.54 1264.81C2284.66 1266.34 2282.41 1267.51 2279.82 1268.33C2277.17 1269.14 2274.22 1269.55 2270.96 1269.55C2264.08 1269.55 2258.68 1267.38 2254.76 1263.06C2250.79 1258.73 2248.8 1251.98 2248.8 1242.81L2261.03 1242.81ZM2281.65 1251.98C2281.65 1250.76 2281.24 1249.69 2280.43 1248.77C2279.61 1247.85 2278.24 1247.4 2276.3 1247.4C2274.78 1247.4 2273.5 1247.91 2272.48 1248.92C2271.47 1249.94 2270.96 1251.22 2270.96 1252.74C2270.96 1253.76 2271.16 1254.65 2271.57 1255.42C2271.98 1256.13 2272.43 1256.77 2272.94 1257.33C2274.62 1257.28 2276.02 1257.1 2277.14 1256.79C2278.26 1256.49 2279.16 1256.1 2279.82 1255.65C2280.48 1255.14 2280.96 1254.58 2281.27 1253.97C2281.52 1253.35 2281.65 1252.69 2281.65 1251.98Z" fill="#070A13"/>
<path d="M84.0535 1262.68C84.0535 1259.52 83.6206 1256.85 82.7549 1254.66C81.8892 1252.47 80.6161 1250.81 78.9356 1249.69C79.343 1250.56 79.6485 1251.55 79.8522 1252.67C80.1068 1253.79 80.2341 1255.09 80.2341 1256.57C80.2341 1258.15 79.9541 1259.7 79.3939 1261.23C78.8846 1262.81 78.0953 1264.21 77.0259 1265.43C76.0074 1266.65 74.7343 1267.64 73.2065 1268.41C71.7297 1269.17 69.9983 1269.55 68.0122 1269.55C65.7206 1269.55 63.6327 1269.17 61.7485 1268.41C59.8643 1267.69 58.2602 1266.65 56.9361 1265.27C55.6121 1263.9 54.5681 1262.22 53.8043 1260.23C53.0913 1258.25 52.7348 1256.01 52.7348 1253.51C52.7348 1250.81 53.2441 1248.37 54.2626 1246.18C55.2811 1244.04 56.707 1242.21 58.5403 1240.68C60.4245 1239.15 62.6651 1237.98 65.2623 1237.16C67.9104 1236.35 70.864 1235.94 74.1232 1235.94C80.998 1235.94 86.396 1238.11 90.3172 1242.44C94.2893 1246.76 96.2754 1253.51 96.2754 1262.68L84.0535 1262.68ZM63.429 1253.51C63.429 1254.73 63.8364 1255.8 64.6512 1256.72C65.466 1257.64 66.841 1258.09 68.7761 1258.09C70.3038 1258.09 71.577 1257.59 72.5954 1256.57C73.6139 1255.55 74.1232 1254.28 74.1232 1252.75C74.1232 1251.73 73.9195 1250.84 73.5121 1250.07C73.1047 1249.36 72.6464 1248.72 72.1371 1248.16C70.4566 1248.22 69.0562 1248.39 67.9358 1248.7C66.8155 1249 65.9243 1249.39 65.2623 1249.84C64.6003 1250.35 64.1165 1250.91 63.811 1251.53C63.5563 1252.14 63.429 1252.8 63.429 1253.51Z" fill="#070A13"/>
<path d="M1115.69 2051.73C1116.05 2057.89 1114.93 2062.47 1112.33 2065.48C1109.79 2068.53 1105.81 2070.06 1100.42 2070.06C1098.68 2070.06 1097.18 2069.98 1095.91 2069.83C1094.69 2069.68 1093.67 2069.5 1092.85 2069.3C1091.94 2069.09 1091.15 2068.84 1090.49 2068.53L1091.25 2057.84C1091.71 2057.99 1092.27 2058.12 1092.93 2058.22C1094.2 2058.47 1095.93 2058.6 1098.12 2058.6C1100.26 2058.6 1101.74 2058.02 1102.55 2056.84C1103.37 2055.72 1103.88 2054.25 1104.08 2052.41C1103.47 2053.08 1102.66 2053.64 1101.64 2054.09C1100.62 2054.55 1099.32 2054.78 1097.74 2054.78C1095.81 2054.78 1094 2054.45 1092.32 2053.79C1090.69 2053.13 1089.24 2052.18 1087.96 2050.96C1086.74 2049.74 1085.77 2048.24 1085.06 2046.46C1084.35 2044.62 1083.99 2042.56 1083.99 2040.27C1083.99 2038.38 1084.3 2036.68 1084.91 2035.15C1085.57 2033.62 1086.46 2032.35 1087.58 2031.33C1088.7 2030.26 1090.03 2029.45 1091.55 2028.89C1093.08 2028.33 1094.76 2028.05 1096.6 2028.05C1098.84 2028.05 1100.59 2028.58 1101.87 2029.65C1103.19 2030.72 1104.16 2031.87 1104.77 2033.09L1105 2028.05L1114.93 2027.28L1115.69 2051.73ZM1100.42 2046.38C1101.13 2046.38 1101.82 2046.2 1102.48 2045.84C1103.19 2045.49 1103.83 2045.05 1104.39 2044.55L1104.62 2037.82C1104.21 2037.47 1103.65 2037.16 1102.94 2036.91C1102.27 2036.6 1101.43 2036.45 1100.42 2036.45C1099.86 2036.45 1099.27 2036.53 1098.66 2036.68C1098.1 2036.83 1097.56 2037.09 1097.05 2037.44C1096.6 2037.8 1096.21 2038.28 1095.91 2038.89C1095.6 2039.45 1095.45 2040.17 1095.45 2041.03C1095.45 2042 1095.6 2042.81 1095.91 2043.48C1096.21 2044.14 1096.6 2044.7 1097.05 2045.16C1097.56 2045.56 1098.1 2045.87 1098.66 2046.07C1099.27 2046.28 1099.86 2046.38 1100.42 2046.38Z" fill="#070A13"/>
<path d="M2291.58 1129.29L2260.8 1120.28L2260.26 1133.88L2248.8 1133.88L2250.33 1108.67L2291.58 1117.07L2291.58 1129.29Z" fill="#070A13"/>
<path d="M53.4987 1113.43L84.2826 1122.44L84.8174 1108.84L96.2754 1108.84L94.7477 1134.05L53.4987 1125.65L53.4987 1113.43Z" fill="#070A13"/>
<path d="M1232.9 2054.78L1233.66 2013.53L1243.59 2012.77L1243.97 2034.31C1244.18 2033.65 1244.48 2032.96 1244.89 2032.25C1245.3 2031.48 1245.78 2030.8 1246.34 2030.18C1246.95 2029.57 1247.67 2029.06 1248.48 2028.66C1249.3 2028.25 1250.21 2028.05 1251.23 2028.05C1252.96 2028.05 1254.36 2028.33 1255.43 2028.89C1256.55 2029.45 1257.44 2030.26 1258.11 2031.33C1258.77 2032.35 1259.23 2033.62 1259.48 2035.15C1259.79 2036.68 1259.96 2038.38 1260.02 2040.27L1260.4 2054.78H1248.18C1248.23 2052.9 1248.28 2051.09 1248.33 2049.36C1248.38 2047.88 1248.43 2046.38 1248.48 2044.85C1248.53 2043.27 1248.56 2042 1248.56 2041.03C1248.56 2039.3 1248.3 2038.1 1247.79 2037.44C1247.28 2036.78 1246.65 2036.45 1245.88 2036.45C1245.43 2036.45 1245.04 2036.6 1244.74 2036.91C1244.48 2037.16 1244.25 2037.44 1244.05 2037.75L1244.36 2054.78H1232.9Z" fill="#070A13"/>
<path d="M2279.36 1006.03C2277.78 1006.03 2276.43 1005.77 2275.31 1005.26C2274.14 1004.76 2273.17 1004.2 2272.41 1003.58C2271.49 1002.87 2270.75 1002.03 2270.19 1001.06C2269.63 1002.03 2268.89 1002.87 2267.98 1003.58C2267.21 1004.2 2266.27 1004.76 2265.15 1005.26C2264.03 1005.77 2262.66 1006.03 2261.03 1006.03C2257.21 1006.03 2254.1 1004.7 2251.71 1002.06C2249.26 999.357 2248.04 995.334 2248.04 989.987C2248.04 987.339 2248.4 985.022 2249.11 983.036C2249.82 980.999 2250.79 979.318 2252.01 977.994C2253.18 976.619 2254.56 975.601 2256.14 974.939C2257.67 974.277 2259.3 973.946 2261.03 973.946C2262.5 973.946 2263.83 974.226 2265 974.786C2266.12 975.295 2267.06 975.855 2267.83 976.467C2268.74 977.18 2269.53 977.994 2270.19 978.911C2270.91 977.994 2271.72 977.18 2272.64 976.467C2273.45 975.855 2274.42 975.295 2275.54 974.786C2276.61 974.226 2277.88 973.946 2279.36 973.946C2281.09 973.946 2282.75 974.277 2284.32 974.939C2285.85 975.601 2287.23 976.619 2288.45 977.994C2289.62 979.318 2290.56 980.999 2291.28 983.036C2291.99 985.022 2292.35 987.339 2292.35 989.987C2292.35 995.334 2291.15 999.357 2288.76 1002.06C2286.31 1004.7 2283.18 1006.03 2279.36 1006.03ZM2261.03 994.188C2262.55 994.188 2263.62 993.806 2264.24 993.043C2264.85 992.279 2265.46 991.133 2266.07 989.605C2265.46 988.077 2264.85 986.932 2264.24 986.168C2263.62 985.404 2262.55 985.022 2261.03 985.022C2259.86 985.022 2258.94 985.506 2258.28 986.473C2257.56 987.39 2257.21 988.434 2257.21 989.605C2257.21 990.776 2257.56 991.846 2258.28 992.813C2258.94 993.73 2259.86 994.188 2261.03 994.188ZM2279.05 994.188C2280.23 994.188 2281.17 993.73 2281.88 992.813C2282.54 991.846 2282.87 990.776 2282.87 989.605C2282.87 988.434 2282.54 987.39 2281.88 986.473C2281.17 985.506 2280.23 985.022 2279.05 985.022C2277.53 985.022 2276.46 985.404 2275.85 986.168C2275.23 986.932 2274.62 988.077 2274.01 989.605C2274.62 991.133 2275.23 992.279 2275.85 993.043C2276.46 993.806 2277.53 994.188 2279.05 994.188Z" fill="#070A13"/>
<path d="M65.7204 973.921C67.2991 973.921 68.6486 974.176 69.7689 974.685C70.9402 975.194 71.9078 975.754 72.6716 976.365C73.5883 977.078 74.3267 977.918 74.8869 978.886C75.447 977.918 76.1854 977.078 77.1021 976.365C77.8659 975.754 78.808 975.194 79.9284 974.685C81.0487 974.176 82.4237 973.921 84.0533 973.921C87.8726 973.921 90.979 975.245 93.3725 977.893C95.8169 980.592 97.0391 984.615 97.0391 989.962C97.0391 992.61 96.6826 994.927 95.9696 996.913C95.2567 998.95 94.2891 1000.63 93.0669 1001.95C91.8957 1003.33 90.5207 1004.35 88.942 1005.01C87.4143 1005.67 85.7847 1006 84.0533 1006C82.5765 1006 81.2524 1005.72 80.0812 1005.16C78.9608 1004.65 78.0187 1004.09 77.2548 1003.48C76.3382 1002.77 75.5489 1001.95 74.8869 1001.04C74.1739 1001.95 73.3591 1002.77 72.4425 1003.48C71.6277 1004.09 70.6601 1004.65 69.5398 1005.16C68.4704 1005.72 67.1972 1006 65.7204 1006C63.989 1006 62.3339 1005.67 60.7553 1005.01C59.2275 1004.35 57.8526 1003.33 56.6304 1001.95C55.4591 1000.63 54.517 998.95 53.8041 996.913C53.0911 994.927 52.7347 992.61 52.7347 989.962C52.7347 984.615 53.9314 980.592 56.3248 977.893C58.7692 975.245 61.9011 973.921 65.7204 973.921ZM84.0533 985.761C82.5255 985.761 81.4561 986.143 80.845 986.907C80.2339 987.671 79.6228 988.816 79.0117 990.344C79.6228 991.872 80.2339 993.018 80.845 993.781C81.4561 994.545 82.5255 994.927 84.0533 994.927C85.2246 994.927 86.1412 994.444 86.8032 993.476C87.5162 992.559 87.8726 991.515 87.8726 990.344C87.8726 989.173 87.5162 988.103 86.8032 987.136C86.1412 986.219 85.2246 985.761 84.0533 985.761ZM66.026 985.761C64.8547 985.761 63.9126 986.219 63.1997 987.136C62.5376 988.103 62.2066 989.173 62.2066 990.344C62.2066 991.515 62.5376 992.559 63.1997 993.476C63.9126 994.444 64.8547 994.927 66.026 994.927C67.5537 994.927 68.6231 994.545 69.2342 993.781C69.8453 993.018 70.4564 991.872 71.0675 990.344C70.4564 988.816 69.8453 987.671 69.2342 986.907C68.6231 986.143 67.5537 985.761 66.026 985.761Z" fill="#070A13"/>
<path d="M1387.58 2018.88C1387.58 2017.25 1388.06 2015.95 1389.03 2014.98C1390 2014.02 1391.3 2013.53 1392.93 2013.53C1394.56 2013.53 1395.86 2014.02 1396.82 2014.98C1397.79 2015.95 1398.27 2017.25 1398.27 2018.88C1398.27 2020.51 1397.79 2021.81 1396.82 2022.78C1395.86 2023.74 1394.56 2024.23 1392.93 2024.23C1391.3 2024.23 1390 2023.74 1389.03 2022.78C1388.06 2021.81 1387.58 2020.51 1387.58 2018.88ZM1387.58 2054.78L1388.34 2028.05L1398.27 2027.28L1399.04 2054.78H1387.58Z" fill="#070A13"/>
<path d="M2280.12 868.142C2280.12 864.629 2279.54 861.853 2278.37 859.816C2277.14 857.728 2275.64 856.175 2273.86 855.157C2274.32 855.971 2274.73 856.939 2275.08 858.059C2275.39 859.18 2275.54 860.504 2275.54 862.031C2275.54 863.559 2275.34 865.189 2274.93 866.92C2274.47 868.601 2273.76 870.154 2272.79 871.58C2271.77 873.006 2270.45 874.202 2268.82 875.17C2267.14 876.087 2265.05 876.545 2262.55 876.545C2259.91 876.545 2257.69 876.036 2255.91 875.017C2254.13 873.948 2252.73 872.573 2251.71 870.892C2250.64 869.212 2249.9 867.328 2249.49 865.24C2249.03 863.152 2248.8 861.064 2248.8 858.976C2248.8 855.717 2249.31 852.941 2250.33 850.65C2251.3 848.307 2252.67 846.398 2254.46 844.921C2256.19 843.444 2258.28 842.375 2260.72 841.712C2263.17 841 2265.81 840.643 2268.67 840.643C2271.52 840.643 2274.37 841.178 2277.22 842.247C2280.02 843.317 2282.54 844.946 2284.78 847.136C2287.02 849.326 2288.86 852.101 2290.28 855.462C2291.66 858.823 2292.35 862.795 2292.35 867.378L2280.12 868.142ZM2257.97 859.74C2257.97 861.268 2258.48 862.413 2259.5 863.177C2260.52 863.941 2261.79 864.323 2263.32 864.323C2264.8 864.323 2266.07 863.941 2267.14 863.177C2268.16 862.413 2268.67 861.268 2268.67 859.74C2268.67 858.161 2268.49 856.888 2268.13 855.92C2267.72 854.953 2267.26 854.189 2266.76 853.629C2265.53 853.68 2264.41 853.833 2263.39 854.087C2262.33 854.291 2261.38 854.622 2260.57 855.08C2259.75 855.539 2259.12 856.15 2258.66 856.913C2258.2 857.677 2257.97 858.619 2257.97 859.74Z" fill="#070A13"/>
<path d="M64.9568 849.035C64.9568 852.549 65.5424 855.325 66.7137 857.362C67.9358 859.449 69.4381 861.003 71.2205 862.021C70.7622 861.206 70.3548 860.239 69.9983 859.118C69.6927 857.998 69.54 856.674 69.54 855.146C69.54 853.619 69.7437 851.989 70.1511 850.258C70.6094 848.577 71.3223 847.024 72.2899 845.598C73.3084 844.172 74.6324 842.975 76.262 842.008C77.9425 841.091 80.0304 840.633 82.5257 840.633C85.1738 840.633 87.389 841.142 89.1714 842.161C90.9538 843.23 92.3542 844.605 93.3727 846.285C94.4421 847.966 95.1805 849.85 95.5879 851.938C96.0462 854.026 96.2754 856.114 96.2754 858.202C96.2754 861.461 95.7661 864.236 94.7477 866.528C93.7801 868.871 92.4051 870.78 90.6228 872.257C88.8913 873.734 86.8034 874.803 84.359 875.465C81.9147 876.178 79.2666 876.535 76.4148 876.535C73.563 876.535 70.7112 876 67.8595 874.931C65.0586 873.861 62.5378 872.232 60.2972 870.042C58.0565 867.852 56.2232 865.077 54.7973 861.716C53.4223 858.355 52.7348 854.382 52.7348 849.799L64.9568 849.035ZM87.109 857.438C87.109 855.91 86.5997 854.764 85.5812 854.001C84.5627 853.237 83.2896 852.855 81.7619 852.855C80.2851 852.855 79.0119 853.237 77.9425 854.001C76.924 854.764 76.4148 855.91 76.4148 857.438C76.4148 859.017 76.593 860.29 76.9495 861.257C77.3569 862.225 77.8152 862.989 78.3245 863.549C79.5467 863.498 80.667 863.345 81.6855 863.091C82.7549 862.887 83.697 862.556 84.5118 862.098C85.3266 861.639 85.9632 861.028 86.4215 860.264C86.8798 859.5 87.109 858.558 87.109 857.438Z" fill="#070A13"/>
<path d="M1534.48 2018.88C1534.48 2017.25 1534.96 2015.95 1535.93 2014.98C1536.9 2014.02 1538.2 2013.53 1539.83 2013.53C1541.46 2013.53 1542.75 2014.02 1543.72 2014.98C1544.69 2015.95 1545.17 2017.25 1545.17 2018.88C1545.17 2020.51 1544.69 2021.81 1543.72 2022.78C1542.75 2023.74 1541.46 2024.23 1539.83 2024.23C1538.2 2024.23 1536.9 2023.74 1535.93 2022.78C1534.96 2021.81 1534.48 2020.51 1534.48 2018.88ZM1545.94 2051.73C1546.09 2054.78 1545.99 2057.45 1545.63 2059.75C1545.33 2062.04 1544.66 2063.95 1543.65 2065.48C1542.68 2067 1541.3 2068.15 1539.52 2068.91C1537.79 2069.68 1535.6 2070.06 1532.95 2070.06C1531.63 2070.06 1530.48 2069.98 1529.51 2069.83C1528.55 2069.68 1527.76 2069.5 1527.15 2069.29C1526.43 2069.09 1525.82 2068.84 1525.31 2068.53L1526.08 2057.84C1526.38 2057.99 1526.79 2058.12 1527.3 2058.22C1528.22 2058.47 1529.59 2058.6 1531.42 2058.6C1532.59 2058.6 1533.38 2057.73 1533.79 2056C1534.25 2054.32 1534.48 2052.13 1534.48 2049.43L1535.24 2028.05L1545.17 2027.28L1545.94 2051.73Z" fill="#070A13"/>
<path d="M2270.19 737.263C2266.98 737.263 2264.08 736.83 2261.48 735.964C2258.84 735.047 2256.57 733.723 2254.69 731.992C2252.8 730.261 2251.35 728.147 2250.33 725.652C2249.31 723.157 2248.8 720.305 2248.8 717.097C2248.8 713.888 2249.31 711.037 2250.33 708.541C2251.35 705.995 2252.8 703.856 2254.69 702.125C2256.57 700.393 2258.84 699.069 2261.48 698.153C2264.08 697.236 2266.98 696.778 2270.19 696.778C2273.4 696.778 2276.35 697.261 2279.05 698.229C2281.75 699.146 2284.1 700.495 2286.08 702.277C2288.07 704.06 2289.62 706.224 2290.74 708.77C2291.81 711.317 2292.35 714.194 2292.35 717.402C2292.35 720.61 2291.81 723.462 2290.74 725.957C2289.62 728.402 2288.07 730.464 2286.08 732.145C2284.1 733.825 2281.75 735.098 2279.05 735.964C2276.35 736.83 2273.4 737.263 2270.19 737.263ZM2261.03 717.402C2261.03 720.203 2261.92 722.342 2263.7 723.819C2265.43 725.295 2267.7 726.034 2270.5 726.034C2273.3 726.034 2275.62 725.295 2277.45 723.819C2279.23 722.342 2280.12 720.203 2280.12 717.402C2280.12 714.601 2279.23 712.411 2277.45 710.833C2275.62 709.254 2273.3 708.465 2270.5 708.465C2267.7 708.465 2265.43 709.254 2263.7 710.833C2261.92 712.411 2261.03 714.601 2261.03 717.402Z" fill="#070A13"/>
<path d="M2291.58 753.1L2260.26 752.718L2261.03 757.684L2250.33 756.92L2249.57 742.406L2291.58 741.642L2291.58 753.1Z" fill="#070A13"/>
<path d="M74.8871 717.145C78.0953 717.145 80.998 717.577 83.5952 718.443C86.2432 719.36 88.5094 720.684 90.3936 722.415C92.2778 724.147 93.7292 726.26 94.7477 728.755C95.7661 731.251 96.2754 734.102 96.2754 737.311C96.2754 740.519 95.7661 743.371 94.7477 745.866C93.7292 748.412 92.2778 750.551 90.3936 752.283C88.5094 754.014 86.2432 755.338 83.5952 756.255C80.998 757.171 78.0953 757.63 74.8871 757.63C71.6788 757.63 68.7252 757.146 66.0262 756.178C63.3272 755.262 60.9846 753.912 58.9986 752.13C57.0125 750.347 55.4593 748.183 54.339 745.637C53.2696 743.091 52.7348 740.213 52.7348 737.005C52.7348 733.797 53.2696 730.945 54.339 728.45C55.4593 726.005 57.0125 723.943 58.9986 722.262C60.9846 720.582 63.3272 719.309 66.0262 718.443C68.7252 717.577 71.6788 717.145 74.8871 717.145ZM84.0535 737.005C84.0535 734.204 83.1623 732.065 81.3799 730.589C79.6485 729.112 77.3824 728.373 74.5815 728.373C71.7807 728.373 69.4636 729.112 67.6303 730.589C65.8479 732.065 64.9568 734.204 64.9568 737.005C64.9568 739.806 65.8479 741.996 67.6303 743.574C69.4636 745.153 71.7807 745.942 74.5815 745.942C77.3824 745.942 79.6485 745.153 81.3799 743.574C83.1623 741.996 84.0535 739.806 84.0535 737.005Z" fill="#070A13"/>
<path d="M53.497 701.307L84.8156 701.689L84.0517 696.724L94.7459 697.488L95.5098 712.001L53.497 712.765L53.497 701.307Z" fill="#070A13"/>
<path d="M1673.37 2054.78L1674.14 2013.53L1684.07 2012.77L1684.45 2037.52C1685.31 2037.31 1686.1 2036.8 1686.82 2035.99C1687.58 2035.18 1688.06 2033.8 1688.27 2031.87L1688.65 2028.05L1699.34 2027.28L1698.58 2032.63C1698.02 2036.4 1696.57 2039.2 1694.23 2041.03L1700.11 2054.78H1688.65L1685.75 2043.32C1685.54 2043.27 1685.34 2043.25 1685.14 2043.25C1684.93 2043.25 1684.75 2043.25 1684.6 2043.25L1684.83 2054.78H1673.37Z" fill="#070A13"/>
<path d="M2291.58 589.249L2260.26 588.867L2261.03 593.832L2250.33 593.068L2249.57 578.555L2291.58 577.791L2291.58 589.249Z" fill="#070A13"/>
<path d="M2291.58 609.593L2260.26 609.211L2261.03 614.176L2250.33 613.412L2249.57 598.898L2291.58 598.135L2291.58 609.593Z" fill="#070A13"/>
<path d="M53.497 602.387L84.8156 602.769L84.0517 597.804L94.7459 598.568L95.5098 613.081L53.497 613.845L53.497 602.387Z" fill="#070A13"/>
<path d="M53.497 582.043L84.8156 582.425L84.0517 577.46L94.7459 578.224L95.5098 592.737L53.497 593.501L53.497 582.043Z" fill="#070A13"/>
<path d="M1827.57 2054.78L1828.33 2013.53L1838.26 2012.77L1839.03 2054.78H1827.57Z" fill="#070A13"/>
<path d="M2251.1 465.935C2250.69 465.018 2250.31 463.974 2249.95 462.803C2249.7 461.785 2249.44 460.588 2249.19 459.213C2248.93 457.787 2248.8 456.208 2248.8 454.477C2248.8 452.745 2249.11 451.065 2249.72 449.435C2250.28 447.806 2251.15 446.354 2252.32 445.081C2253.44 443.757 2254.86 442.713 2256.6 441.949C2258.28 441.135 2260.26 440.727 2262.55 440.727C2265.2 440.727 2267.52 441.211 2269.51 442.179C2271.49 443.146 2273.22 444.343 2274.7 445.769C2276.18 447.195 2277.48 448.722 2278.6 450.352C2279.72 451.982 2280.76 453.433 2281.73 454.706L2280.89 440.727L2291.58 440.727L2291.58 467.463L2280.12 468.227C2278.95 465.375 2277.63 462.829 2276.15 460.588C2275.54 459.62 2274.88 458.678 2274.17 457.762C2273.4 456.845 2272.61 456.03 2271.8 455.317C2270.93 454.604 2270.07 454.044 2269.2 453.637C2268.28 453.178 2267.34 452.949 2266.37 452.949C2264.44 452.949 2263.06 453.458 2262.25 454.477C2261.43 455.495 2261.03 456.769 2261.03 458.296C2261.03 459.468 2261.1 460.537 2261.26 461.505C2261.41 462.421 2261.59 463.21 2261.79 463.873C2261.99 464.687 2262.25 465.375 2262.55 465.935L2251.1 465.935Z" fill="#070A13"/>
<path d="M2291.58 484.063L2260.26 483.681L2261.03 488.646L2250.33 487.883L2249.57 473.369L2291.58 472.605L2291.58 484.063Z" fill="#070A13"/>
<path d="M93.9818 462.931C94.3892 463.848 94.7712 464.892 95.1276 466.063C95.3823 467.082 95.6369 468.278 95.8915 469.653C96.1461 471.079 96.2734 472.658 96.2734 474.389C96.2734 476.121 95.9679 477.801 95.3568 479.431C94.7966 481.06 93.9309 482.512 92.7596 483.785C91.6393 485.109 90.2134 486.153 88.482 486.917C86.8015 487.732 84.8154 488.139 82.5238 488.139C79.8757 488.139 77.5586 487.655 75.5726 486.688C73.5865 485.72 71.8551 484.523 70.3783 483.097C68.9015 481.672 67.6029 480.144 66.4825 478.514C65.3622 476.885 64.3182 475.433 63.3507 474.16L64.1909 488.139L53.4968 488.139L53.4968 461.404L64.9548 460.64C66.1261 463.491 67.4501 466.038 68.9269 468.278C69.538 469.246 70.2 470.188 70.913 471.105C71.6769 472.021 72.4662 472.836 73.281 473.549C74.1467 474.262 75.0124 474.822 75.8781 475.23C76.7948 475.688 77.7369 475.917 78.7044 475.917C80.6396 475.917 82.0145 475.408 82.8293 474.389C83.6441 473.371 84.0515 472.098 84.0515 470.57C84.0515 469.399 83.9751 468.329 83.8224 467.362C83.6696 466.445 83.4914 465.656 83.2877 464.994C83.084 464.179 82.8293 463.491 82.5238 462.931L93.9818 462.931Z" fill="#070A13"/>
<path d="M53.497 444.802L84.8156 445.184L84.0517 440.219L94.7459 440.983L95.5098 455.496L53.497 456.26L53.497 444.802Z" fill="#070A13"/>
<path d="M1958.79 2054.78L1959.55 2028.05L1969.49 2027.28L1969.64 2033.7C1969.89 2033.04 1970.22 2032.37 1970.63 2031.71C1971.04 2031.05 1971.52 2030.47 1972.08 2029.96C1972.64 2029.4 1973.3 2028.94 1974.07 2028.58C1974.83 2028.22 1975.7 2028.05 1976.67 2028.05C1979.06 2028.05 1980.87 2028.58 1982.09 2029.65C1983.31 2030.72 1984.18 2032.25 1984.69 2034.23C1984.89 2033.57 1985.2 2032.88 1985.6 2032.17C1986.01 2031.41 1986.52 2030.72 1987.13 2030.11C1987.74 2029.5 1988.43 2029.01 1989.19 2028.66C1990.01 2028.25 1990.92 2028.05 1991.94 2028.05C1993.67 2028.05 1995.07 2028.33 1996.14 2028.89C1997.26 2029.45 1998.16 2030.26 1998.82 2031.33C1999.48 2032.35 1999.94 2033.62 2000.19 2035.15C2000.5 2036.68 2000.68 2038.38 2000.73 2040.27L2001.11 2054.78H1988.89C1988.94 2052.9 1988.99 2051.09 1989.04 2049.36C1989.09 2047.88 1989.14 2046.38 1989.19 2044.85C1989.24 2043.27 1989.27 2042 1989.27 2041.03C1989.27 2039.3 1989.01 2038.1 1988.51 2037.44C1988 2036.78 1987.36 2036.45 1986.6 2036.45C1986.34 2036.45 1986.09 2036.53 1985.83 2036.68C1985.63 2036.78 1985.42 2036.91 1985.22 2037.06L1985.83 2054.78H1973.61C1973.66 2052.9 1973.71 2051.09 1973.76 2049.36C1973.81 2047.88 1973.86 2046.38 1973.92 2044.85C1973.97 2043.27 1973.99 2042 1973.99 2041.03C1973.99 2039.3 1973.74 2038.1 1973.23 2037.44C1972.72 2036.78 1972.08 2036.45 1971.32 2036.45C1970.96 2036.45 1970.66 2036.55 1970.4 2036.75C1970.2 2036.91 1969.99 2037.11 1969.79 2037.37L1970.25 2054.78H1958.79Z" fill="#070A13"/>
<path d="M2251.1 335.03C2250.79 334.419 2250.54 333.655 2250.33 332.738C2250.13 331.975 2249.95 331.032 2249.8 329.912C2249.64 328.741 2249.57 327.391 2249.57 325.864C2249.57 322.604 2250.05 319.905 2251.02 317.767C2251.99 315.577 2253.21 313.922 2254.69 312.801C2256.16 311.63 2257.79 310.943 2259.58 310.739C2261.31 310.484 2262.96 310.637 2264.54 311.197C2266.12 311.707 2267.52 312.572 2268.74 313.795C2269.91 315.017 2270.65 316.494 2270.96 318.225C2271.42 316.035 2272.26 314.278 2273.48 312.954C2274.7 311.579 2276.1 310.663 2277.68 310.204C2279.26 309.746 2280.91 309.695 2282.64 310.052C2284.38 310.408 2285.95 311.172 2287.38 312.343C2288.81 313.514 2290 315.119 2290.97 317.156C2291.89 319.142 2292.35 321.535 2292.35 324.336C2292.35 326.628 2292.22 328.486 2291.96 329.912C2291.76 331.287 2291.5 332.357 2291.2 333.12C2290.89 334.037 2290.51 334.674 2290.05 335.03L2277.83 335.794C2278.39 335.336 2278.9 334.699 2279.36 333.884C2279.77 333.222 2280.12 332.357 2280.43 331.287C2280.73 330.218 2280.89 328.919 2280.89 327.391C2280.89 325.1 2280.53 323.445 2279.82 322.426C2279.1 321.357 2278.32 320.924 2277.45 321.128C2276.58 321.331 2275.79 322.172 2275.08 323.648C2274.37 325.074 2274.01 327.086 2274.01 329.683L2267.14 328.919C2267.14 326.78 2266.78 325.125 2266.07 323.954C2265.35 322.783 2264.57 322.121 2263.7 321.968C2262.83 321.815 2262.04 322.197 2261.33 323.114C2260.62 323.979 2260.26 325.405 2260.26 327.391C2260.26 328.359 2260.39 329.301 2260.64 330.218C2260.9 331.134 2261.15 331.949 2261.41 332.662C2261.76 333.528 2262.15 334.317 2262.55 335.03L2251.1 335.03Z" fill="#070A13"/>
<path d="M2291.58 351.708L2260.26 351.326L2261.03 356.291L2250.33 355.527L2249.57 341.014L2291.58 340.25L2291.58 351.708Z" fill="#070A13"/>
<path d="M93.982 331.064C94.2876 331.675 94.5422 332.439 94.7459 333.355C94.9496 334.119 95.1278 335.061 95.2806 336.182C95.4334 337.353 95.5098 338.702 95.5098 340.23C95.5098 343.489 95.026 346.188 94.0584 348.327C93.0908 350.517 91.8687 352.172 90.3918 353.292C88.915 354.464 87.2854 355.151 85.5031 355.355C83.7716 355.609 82.1166 355.457 80.5379 354.896C78.9593 354.387 77.5588 353.521 76.3367 352.299C75.1654 351.077 74.427 349.6 74.1214 347.869C73.6631 350.059 72.8229 351.815 71.6007 353.139C70.3785 354.514 68.978 355.431 67.3994 355.889C65.8207 356.348 64.1657 356.399 62.4342 356.042C60.7028 355.686 59.1241 354.922 57.6982 353.751C56.2724 352.579 55.0756 350.975 54.1081 348.938C53.1914 346.952 52.7331 344.559 52.7331 341.758C52.7331 339.466 52.8604 337.607 53.115 336.182C53.3187 334.807 53.5733 333.737 53.8789 332.973C54.1844 332.057 54.5664 331.42 55.0247 331.064L67.2466 330.3C66.6864 330.758 66.1772 331.395 65.7189 332.209C65.3115 332.871 64.955 333.737 64.6495 334.807C64.3439 335.876 64.1911 337.175 64.1911 338.702C64.1911 340.994 64.5476 342.649 65.2605 343.668C65.9735 344.737 66.7628 345.17 67.6285 344.966C68.4943 344.762 69.2836 343.922 69.9965 342.445C70.7095 341.019 71.066 339.008 71.066 336.411L77.9408 337.175C77.9408 339.313 78.2972 340.969 79.0102 342.14C79.7231 343.311 80.5125 343.973 81.3782 344.126C82.2439 344.279 83.0332 343.897 83.7462 342.98C84.4591 342.114 84.8156 340.688 84.8156 338.702C84.8156 337.735 84.6883 336.793 84.4337 335.876C84.179 334.959 83.9244 334.145 83.6698 333.432C83.3133 332.566 82.9314 331.777 82.524 331.064L93.982 331.064Z" fill="#070A13"/>
<path d="M53.497 314.386L84.8156 314.768L84.0517 309.803L94.7459 310.567L95.5098 325.08L53.497 325.844L53.497 314.386Z" fill="#070A13"/>
<path d="M2113.1 2054.78L2113.86 2028.05L2123.79 2027.28L2123.95 2033.7C2124.2 2033.04 2124.53 2032.37 2124.94 2031.71C2125.35 2031.05 2125.83 2030.47 2126.39 2029.96C2126.95 2029.4 2127.61 2028.94 2128.38 2028.58C2129.14 2028.22 2130.01 2028.05 2130.97 2028.05C2132.71 2028.05 2134.11 2028.33 2135.18 2028.89C2136.3 2029.45 2137.19 2030.26 2137.85 2031.33C2138.51 2032.35 2138.97 2033.62 2139.22 2035.15C2139.53 2036.68 2139.71 2038.38 2139.76 2040.27L2140.14 2054.78H2127.92C2127.97 2052.9 2128.02 2051.09 2128.07 2049.36C2128.12 2047.88 2128.17 2046.38 2128.22 2044.85C2128.28 2043.27 2128.3 2042 2128.3 2041.03C2128.3 2039.3 2128.05 2038.1 2127.54 2037.44C2127.03 2036.78 2126.39 2036.45 2125.63 2036.45C2125.27 2036.45 2124.97 2036.55 2124.71 2036.75C2124.51 2036.91 2124.3 2037.11 2124.1 2037.37L2124.56 2054.78H2113.1Z" fill="#070A13"/>
<path d="M2283.33 179.066L2291.58 178.99L2291.58 190.448L2283.48 190.219L2283.18 206.489L2271.72 207.253L2250.33 189.302L2249.57 179.372L2272.64 179.219L2272.48 175.934L2283.18 176.698L2283.33 179.066ZM2272.79 189.913L2264.39 189.684L2272.48 198.85L2272.79 189.913Z" fill="#070A13"/>
<path d="M2291.58 222.784L2260.26 222.402L2261.03 227.367L2250.33 226.603L2249.57 212.09L2291.58 211.326L2291.58 222.784Z" fill="#070A13"/>
<path d="M61.7467 224.257L53.497 224.333L53.497 212.875L61.594 213.105L61.8995 196.834L73.3576 196.07L94.7459 214.021L95.5098 223.952L72.4409 224.104L72.5937 227.389L61.8995 226.625L61.7467 224.257ZM72.2881 213.41L80.6907 213.639L72.5937 204.473L72.2881 213.41Z" fill="#070A13"/>
<path d="M53.497 180.539L84.8156 180.921L84.0517 175.956L94.7459 176.72L95.5098 191.233L53.497 191.997L53.497 180.539Z" fill="#070A13"/>
<path d="M215.459 54.5676C217.293 52.8362 219.61 51.9704 222.411 51.9704C224.346 51.9704 226.153 52.3014 227.834 52.9635C229.464 53.6255 230.915 54.5676 232.188 55.7898C233.41 57.012 234.378 58.5142 235.091 60.2966C235.804 62.1299 236.16 64.1923 236.16 66.484C236.16 68.3682 235.855 70.0741 235.244 71.6019C234.581 73.1296 233.69 74.4027 232.57 75.4212C231.45 76.4906 230.126 77.3054 228.598 77.8656C227.07 78.4258 225.39 78.7059 223.556 78.7059C222.334 78.7059 221.239 78.5022 220.272 78.0948C219.304 77.7383 218.489 77.28 217.827 76.7198C217.114 76.1596 216.529 75.5231 216.07 74.8101C215.612 74.1481 215.256 73.4861 215.001 72.8241L214.772 78.7059L204.842 79.4697L204.078 51.9704H215.536L215.459 54.5676ZM219.737 60.373C218.871 60.373 218.056 60.6022 217.293 61.0605C216.478 61.5697 215.79 62.1299 215.23 62.741L215.077 68.6228C215.485 68.9793 216.07 69.3357 216.834 69.6922C217.598 70.0996 218.566 70.3033 219.737 70.3033C220.297 70.3033 220.883 70.2269 221.494 70.0741C222.054 69.9214 222.589 69.6667 223.098 69.3103C223.556 68.9538 223.938 68.47 224.244 67.8589C224.549 67.2987 224.702 66.5858 224.702 65.7201C224.702 64.7525 224.549 63.9377 224.244 63.2757C223.938 62.6137 223.556 62.0535 223.098 61.5952C222.589 61.1878 222.054 60.8822 221.494 60.6785C220.883 60.4748 220.297 60.373 219.737 60.373Z" fill="white"/>
<path d="M382.594 51.9706L381.83 93.2195L371.9 93.9834L371.518 73.2825C371.212 73.8936 370.83 74.5302 370.372 75.1922C369.914 75.8542 369.353 76.4399 368.691 76.9491C367.978 77.4584 367.164 77.8658 366.247 78.1713C365.33 78.5278 364.286 78.706 363.115 78.706C361.282 78.706 359.601 78.4259 358.074 77.8658C356.546 77.3056 355.222 76.4908 354.101 75.4214C352.981 74.4029 352.115 73.1298 351.504 71.602C350.842 70.0743 350.511 68.3683 350.511 66.4841C350.511 64.1925 350.868 62.1301 351.581 60.2968C352.294 58.5144 353.287 57.0121 354.56 55.7899C355.782 54.5677 357.233 53.6256 358.914 52.9636C360.594 52.3016 362.377 51.9706 364.261 51.9706C365.585 51.9706 366.858 52.1743 368.08 52.5817C369.302 52.9891 370.346 53.6256 371.212 54.4914L371.136 51.9706H382.594ZM366.934 70.3035C368.004 70.3035 368.92 70.1252 369.684 69.7687C370.448 69.4123 371.034 69.0558 371.441 68.6993L371.365 62.5884C370.805 62.0282 370.143 61.519 369.379 61.0606C368.564 60.6023 367.749 60.3732 366.934 60.3732C366.374 60.3732 365.814 60.475 365.254 60.6787C364.643 60.8824 364.108 61.1879 363.65 61.5953C363.141 62.0537 362.733 62.6138 362.428 63.2759C362.122 63.9379 361.969 64.7527 361.969 65.7202C361.969 66.586 362.122 67.2989 362.428 67.8591C362.733 68.4702 363.141 68.954 363.65 69.3104C364.108 69.6669 364.643 69.9215 365.254 70.0743C365.814 70.2271 366.374 70.3035 366.934 70.3035Z" fill="white"/>
<path d="M526.129 66.484C526.129 68.3682 525.772 70.0996 525.059 71.6783C524.296 73.3078 523.226 74.6828 521.851 75.8032C520.476 76.9744 518.796 77.8656 516.81 78.4767C514.824 79.1387 512.583 79.4697 510.088 79.4697C508.56 79.4697 507.21 79.3424 506.039 79.0878C504.868 78.8332 503.875 78.5785 503.06 78.3239C502.143 77.9675 501.303 77.5855 500.539 77.1781L501.303 71.0672C501.354 71.169 501.914 71.4491 502.984 71.9074C504.053 72.3657 505.657 72.5949 507.796 72.5949C509.731 72.5949 511.361 72.0602 512.685 70.9908C514.009 69.9214 514.671 68.4191 514.671 66.484C514.671 64.5488 514.111 62.9192 512.99 61.5952C511.819 60.2711 510.088 59.6091 507.796 59.6091C505.759 59.6091 504.155 59.7364 502.984 59.9911C502.373 60.0929 501.812 60.2202 501.303 60.373V52.7343C501.863 52.4288 502.576 52.1741 503.442 51.9704C504.155 51.7667 505.072 51.5885 506.192 51.4357C507.261 51.283 508.56 51.2066 510.088 51.2066C512.583 51.2066 514.824 51.563 516.81 52.276C518.796 53.0399 520.476 54.0838 521.851 55.4078C523.226 56.7319 524.296 58.336 525.059 60.2202C525.772 62.1044 526.129 64.1923 526.129 66.484Z" fill="white"/>
<path d="M664.441 51.9706V54.4914C662.659 52.8109 660.367 51.9706 657.566 51.9706C655.631 51.9706 653.823 52.3016 652.143 52.9636C650.513 53.6256 649.062 54.5677 647.789 55.7899C646.566 57.0121 645.599 58.5144 644.886 60.2968C644.173 62.1301 643.816 64.1925 643.816 66.4841C643.816 68.3683 644.122 70.0743 644.733 71.602C645.395 73.1298 646.286 74.4029 647.407 75.4214C648.527 76.4908 649.851 77.3056 651.379 77.8658C652.906 78.4259 654.587 78.706 656.42 78.706C657.592 78.706 658.635 78.5278 659.552 78.1713C660.469 77.8658 661.258 77.4584 661.92 76.9491C662.633 76.4399 663.219 75.8542 663.677 75.1922C664.135 74.5302 664.517 73.8936 664.823 73.2825L665.205 93.2195L675.135 93.9834L675.899 51.9706L664.441 51.9706ZM660.24 60.3732C661.054 60.3732 661.844 60.6023 662.608 61.0606C663.371 61.519 664.033 62.0282 664.594 62.5884L664.746 68.6993C664.339 69.0558 663.753 69.4123 662.99 69.7687C662.277 70.1252 661.36 70.3035 660.24 70.3035C659.679 70.3035 659.094 70.2271 658.483 70.0743C657.923 69.9215 657.388 69.6669 656.879 69.3104C656.42 68.954 656.038 68.4702 655.733 67.8591C655.427 67.2989 655.274 66.586 655.274 65.7202C655.274 64.7527 655.427 63.9379 655.733 63.2759C656.038 62.6138 656.42 62.0537 656.879 61.5953C657.388 61.1879 657.923 60.8824 658.483 60.6787C659.094 60.475 659.679 60.3732 660.24 60.3732Z" fill="white"/>
<path d="M820.201 66.484C820.201 68.3682 819.87 70.0996 819.208 71.6783C818.495 73.3078 817.528 74.6828 816.305 75.8032C815.083 76.9744 813.606 77.8656 811.875 78.4767C810.144 79.1387 808.208 79.4697 806.07 79.4697C803.982 79.4697 802.123 79.1133 800.493 78.4003C798.864 77.6874 797.514 76.7198 796.445 75.4976C795.324 74.3263 794.484 72.9514 793.924 71.3727C793.364 69.845 793.084 68.2154 793.084 66.484L806.986 61.5188C805.815 60.2457 804.109 59.6091 801.868 59.6091C800.85 59.6091 799.908 59.6855 799.042 59.8383C798.125 59.9911 797.336 60.1693 796.674 60.373C795.91 60.5767 795.223 60.8313 794.612 61.1369L793.848 53.4982C794.713 53.0399 795.681 52.6579 796.75 52.3524C797.667 52.0468 798.762 51.7922 800.035 51.5885C801.257 51.3339 802.632 51.2066 804.16 51.2066C806.655 51.2066 808.896 51.563 810.882 52.276C812.868 53.0399 814.549 54.0838 815.924 55.4078C817.298 56.7319 818.368 58.336 819.132 60.2202C819.845 62.1044 820.201 64.1923 820.201 66.484ZM800.723 68.7756C800.723 68.8265 800.799 69.0047 800.952 69.3103C801.054 69.6158 801.257 69.9468 801.563 70.3033C801.817 70.7107 802.199 71.0672 802.709 71.3727C803.167 71.6783 803.778 71.831 804.542 71.831C806.07 71.831 807.164 71.3218 807.826 70.3033C808.438 69.2848 808.743 68.0372 808.743 66.5603L800.723 68.7756Z" fill="white"/>
<path d="M961.046 51.9706L960.359 73.2062L962.574 73.3589V79.4699L961.123 79.5463C961.377 80.3611 961.556 81.2268 961.658 82.1434C961.759 83.0601 961.81 83.9513 961.81 84.817C961.81 87.8724 960.715 90.1641 958.526 91.6918C956.285 93.2195 953.051 93.9834 948.825 93.9834H944.241V83.2892H949.588C950.963 83.2892 952.033 83.1365 952.797 82.8309C953.561 82.5763 954.121 82.2453 954.477 81.8379C954.834 81.4814 955.037 81.0995 955.088 80.6921C955.139 80.3356 955.139 80.0301 955.088 79.7754L946.533 80.2338V72.5951L950.276 72.7478L949.588 51.9706H961.046Z" fill="white"/>
<path d="M1084.25 55.0259C1083.89 48.864 1085.01 44.2808 1087.61 41.2763C1090.16 38.2208 1094.13 36.6931 1099.53 36.6931C1101.26 36.6931 1102.76 36.7694 1104.03 36.9222C1105.26 37.075 1106.28 37.2532 1107.09 37.4569C1108.01 37.6606 1108.8 37.9152 1109.46 38.2208L1108.69 48.915C1108.24 48.7622 1107.68 48.6349 1107.01 48.533C1105.74 48.2784 1104.01 48.1511 1101.82 48.1511C1099.68 48.1511 1098.2 48.7367 1097.39 49.908C1096.57 51.0283 1096.07 52.5051 1095.86 54.3384C1096.47 53.6764 1097.29 53.1162 1098.31 52.6579C1099.32 52.1996 1100.62 51.9704 1102.2 51.9704C1104.14 51.9704 1105.94 52.3014 1107.62 52.9635C1109.25 53.6255 1110.71 54.5676 1111.98 55.7898C1113.2 57.012 1114.17 58.5142 1114.88 60.2966C1115.59 62.1299 1115.95 64.1923 1115.95 66.484C1115.95 68.3682 1115.65 70.0741 1115.03 71.6019C1114.37 73.1296 1113.48 74.4027 1112.36 75.4212C1111.24 76.4906 1109.92 77.3054 1108.39 77.8656C1106.86 78.4258 1105.18 78.7059 1103.35 78.7059C1101.11 78.7059 1099.35 78.1711 1098.08 77.1017C1096.75 76.0323 1095.79 74.8865 1095.17 73.6643L1094.94 78.7059L1085.01 79.4697L1084.25 55.0259ZM1099.53 60.373C1098.82 60.373 1098.13 60.5512 1097.47 60.9077C1096.75 61.2642 1096.12 61.697 1095.56 62.2063L1095.33 68.9283C1095.73 69.2848 1096.29 69.5904 1097.01 69.845C1097.67 70.1505 1098.51 70.3033 1099.53 70.3033C1100.09 70.3033 1100.67 70.2269 1101.28 70.0741C1101.85 69.9214 1102.38 69.6667 1102.89 69.3103C1103.35 68.9538 1103.73 68.47 1104.03 67.8589C1104.34 67.2987 1104.49 66.5858 1104.49 65.7201C1104.49 64.7525 1104.34 63.9377 1104.03 63.2757C1103.73 62.6137 1103.35 62.0535 1102.89 61.5952C1102.38 61.1878 1101.85 60.8822 1101.28 60.6785C1100.67 60.4748 1100.09 60.373 1099.53 60.373Z" fill="white"/>
<path d="M1260.37 51.9706L1259.61 93.2195L1249.68 93.9834L1249.29 72.4423C1249.09 73.1043 1248.79 73.7918 1248.38 74.5047C1247.97 75.2686 1247.49 75.9561 1246.93 76.5672C1246.32 77.1783 1245.6 77.6875 1244.79 78.0949C1243.97 78.5023 1243.06 78.706 1242.04 78.706C1240.31 78.706 1238.91 78.4259 1237.84 77.8658C1236.72 77.3056 1235.83 76.4908 1235.16 75.4214C1234.5 74.4029 1234.04 73.1298 1233.79 71.602C1233.48 70.0743 1233.3 68.3683 1233.25 66.4841L1232.87 51.9706L1245.09 51.9706C1245.04 53.8548 1244.99 55.6626 1244.94 57.3941C1244.89 58.8709 1244.84 60.3732 1244.79 61.9009C1244.74 63.4796 1244.71 64.7527 1244.71 65.7202C1244.71 67.4517 1244.97 68.6484 1245.48 69.3104C1245.98 69.9724 1246.62 70.3035 1247.39 70.3035C1247.84 70.3035 1248.23 70.1507 1248.53 69.8451C1248.79 69.5905 1249.01 69.3104 1249.22 69.0049L1248.91 51.9706H1260.37Z" fill="white"/>
<path d="M1399.02 87.8717C1399.02 89.5013 1398.53 90.7998 1397.56 91.7674C1396.6 92.735 1395.3 93.2188 1393.67 93.2188C1392.04 93.2188 1390.74 92.735 1389.77 91.7674C1388.81 90.7998 1388.32 89.5013 1388.32 87.8717C1388.32 86.2421 1388.81 84.9435 1389.77 83.9759C1390.74 83.0084 1392.04 82.5246 1393.67 82.5246C1395.3 82.5246 1396.6 83.0084 1397.56 83.9759C1398.53 84.9435 1399.02 86.2421 1399.02 87.8717ZM1399.02 51.9698L1398.25 78.7052L1388.32 79.4691L1387.56 51.9698H1399.02Z" fill="white"/>
<path d="M1545.44 87.8717C1545.44 89.5013 1544.96 90.7998 1543.99 91.7674C1543.02 92.735 1541.73 93.2188 1540.1 93.2188C1538.47 93.2188 1537.17 92.735 1536.2 91.7674C1535.23 90.7998 1534.75 89.5013 1534.75 87.8717C1534.75 86.2421 1535.23 84.9435 1536.2 83.9759C1537.17 83.0084 1538.47 82.5246 1540.1 82.5246C1541.73 82.5246 1543.02 83.0084 1543.99 83.9759C1544.96 84.9435 1545.44 86.2421 1545.44 87.8717ZM1533.98 55.0253C1533.83 51.9698 1533.93 49.2963 1534.29 47.0047C1534.6 44.7131 1535.26 42.8034 1536.28 41.2756C1537.24 39.7479 1538.62 38.6021 1540.4 37.8382C1542.13 37.0744 1544.32 36.6924 1546.97 36.6924C1548.29 36.6924 1549.44 36.7688 1550.41 36.9216C1551.38 37.0744 1552.16 37.2526 1552.78 37.4563C1553.49 37.66 1554.1 37.9146 1554.61 38.2202L1553.85 48.9143C1553.54 48.7616 1553.13 48.6343 1552.62 48.5324C1551.71 48.2778 1550.33 48.1505 1548.5 48.1505C1547.33 48.1505 1546.54 49.0162 1546.13 50.7476C1545.67 52.4281 1545.44 54.6179 1545.44 57.3169L1544.68 78.7052L1534.75 79.4691L1533.98 55.0253Z" fill="white"/>
<path d="M1699.88 51.9706L1699.11 93.2195L1689.18 93.9834L1688.8 69.234C1687.93 69.4377 1687.14 69.947 1686.43 70.7618C1685.67 71.5766 1685.18 72.9515 1684.98 74.8867L1684.6 78.706L1673.9 79.4699L1674.67 74.1228C1675.23 70.3544 1676.68 67.5535 1679.02 65.7202L1673.14 51.9706L1684.6 51.9706L1687.5 63.4286C1687.7 63.4796 1687.91 63.505 1688.11 63.505C1688.32 63.505 1688.49 63.505 1688.65 63.505L1688.42 51.9706H1699.88Z" fill="white"/>
<path d="M1839 51.9706L1838.24 93.2195L1828.31 93.9834L1827.55 51.9706H1839Z" fill="white"/>
<path d="M2001.11 51.9704L2000.34 78.7059L1990.41 79.4697L1990.26 73.0532C1990.01 73.7152 1989.67 74.3773 1989.27 75.0393C1988.86 75.7013 1988.38 76.2869 1987.82 76.7962C1987.26 77.3564 1986.59 77.8147 1985.83 78.1711C1985.07 78.5276 1984.2 78.7059 1983.23 78.7059C1980.84 78.7059 1979.03 78.1711 1977.81 77.1017C1976.59 76.0323 1975.72 74.5046 1975.21 72.5185C1975.01 73.1805 1974.7 73.868 1974.3 74.581C1973.89 75.3448 1973.38 76.0323 1972.77 76.6434C1972.16 77.2545 1971.47 77.7383 1970.71 78.0948C1969.89 78.5022 1968.97 78.7059 1967.96 78.7059C1966.22 78.7059 1964.82 78.4258 1963.75 77.8656C1962.63 77.3054 1961.74 76.4906 1961.08 75.4212C1960.42 74.4027 1959.96 73.1296 1959.71 71.6019C1959.4 70.0741 1959.22 68.3682 1959.17 66.484L1958.79 51.9704L1971.01 51.9704C1970.96 53.8546 1970.91 55.6625 1970.86 57.3939C1970.81 58.8707 1970.76 60.373 1970.71 61.9007C1970.65 63.4794 1970.63 64.7525 1970.63 65.7201C1970.63 67.4515 1970.88 68.6482 1971.39 69.3103C1971.9 69.9723 1972.54 70.3033 1973.3 70.3033C1973.56 70.3033 1973.81 70.2269 1974.07 70.0741C1974.27 69.9723 1974.47 69.845 1974.68 69.6922L1974.07 51.9704H1986.29C1986.24 53.8546 1986.19 55.6625 1986.14 57.3939C1986.08 58.8707 1986.03 60.373 1985.98 61.9007C1985.93 63.4794 1985.91 64.7525 1985.91 65.7201C1985.91 67.4515 1986.16 68.6482 1986.67 69.3103C1987.18 69.9723 1987.82 70.3033 1988.58 70.3033C1988.94 70.3033 1989.24 70.2014 1989.5 69.9977C1989.7 69.845 1989.9 69.6413 1990.11 69.3867L1989.65 51.9704H2001.11Z" fill="white"/>
<path d="M2140.12 51.9704L2139.36 78.7059L2129.43 79.4697L2129.28 73.0532C2129.02 73.7152 2128.69 74.3773 2128.29 75.0393C2127.88 75.7013 2127.39 76.2869 2126.83 76.7962C2126.27 77.3564 2125.61 77.8147 2124.85 78.1711C2124.08 78.5276 2123.22 78.7059 2122.25 78.7059C2120.52 78.7059 2119.12 78.4258 2118.05 77.8656C2116.93 77.3054 2116.04 76.4906 2115.38 75.4212C2114.71 74.4027 2114.26 73.1296 2114 71.6019C2113.7 70.0741 2113.52 68.3682 2113.47 66.484L2113.08 51.9704H2125.31C2125.26 53.8546 2125.2 55.6625 2125.15 57.3939C2125.1 58.8707 2125.05 60.373 2125 61.9007C2124.95 63.4794 2124.92 64.7525 2124.92 65.7201C2124.92 67.4515 2125.18 68.6482 2125.69 69.3103C2126.2 69.9723 2126.83 70.3033 2127.6 70.3033C2127.95 70.3033 2128.26 70.2014 2128.51 69.9977C2128.72 69.845 2128.92 69.6413 2129.13 69.3867L2128.67 51.9704H2140.12Z" fill="white"/>
<path d="M1089.54 156.1L1100.87 168.933C1105.36 168.933 1109.36 169.681 1112.85 171.179C1116.27 172.747 1119.16 174.922 1121.51 177.702C1123.87 180.483 1125.65 183.762 1126.86 187.541C1128.07 191.319 1128.68 195.454 1128.68 199.946C1128.68 204.438 1128.07 208.501 1126.86 212.137C1125.58 215.845 1123.72 219.017 1121.3 221.655C1118.87 224.293 1115.92 226.325 1112.42 227.751C1108.93 229.177 1104.94 229.89 1100.45 229.89C1095.95 229.89 1091.96 229.177 1088.47 227.751C1084.9 226.325 1081.91 224.293 1079.48 221.655C1077.06 219.017 1075.21 215.845 1073.92 212.137C1072.64 208.501 1072 204.438 1072 199.946C1072 194.029 1073.14 188.753 1075.42 184.119C1077.63 179.556 1080.8 175.955 1084.94 173.317L1077.45 166.687L1089.54 156.1ZM1100.87 212.779C1104.79 212.779 1107.79 211.531 1109.86 209.036C1111.92 206.612 1112.96 203.439 1112.96 199.518C1112.96 195.597 1111.92 192.353 1109.86 189.787C1107.79 187.291 1104.79 186.044 1100.87 186.044C1096.95 186.044 1093.89 187.291 1091.68 189.787C1089.47 192.353 1088.36 195.597 1088.36 199.518C1088.36 203.439 1089.47 206.612 1091.68 209.036C1093.89 211.531 1096.95 212.779 1100.87 212.779Z" fill="#3186C1"/>
</svg>
