<svg width="112" height="84" viewBox="0 0 112 84" fill="none" xmlns="http://www.w3.org/2000/svg">
<path d="M49.8133 71.5562C42.8292 71.1454 36.4613 68.9885 30.7097 65.2568L30.7097 18.3879C41.494 11.1983 56.2839 9.96588 68.2322 15.7175C77.4416 20.1339 85.0078 26.6387 91.5126 34.4103C93.1901 36.396 93.1901 36.3959 95.3127 34.8211C97.9147 32.9039 100.756 32.3903 103.632 33.9652C106.474 35.5058 108.254 37.8681 108.254 41.189L108.254 41.3601C108.185 44.818 106.063 46.9748 103.255 48.5839C102.126 49.2344 101.167 49.0975 100.106 48.2758C88.6368 39.3745 75.0794 36.6698 61.0769 35.3689C58.3723 35.1292 55.5992 35.1977 52.8945 34.9923C51.2854 34.8896 50.7719 35.4716 50.7719 36.9095C50.7719 36.9779 50.7719 37.0464 50.7719 37.1491C50.8404 38.7925 50.8746 40.47 50.8746 42.1133C50.8746 43.5513 50.8404 44.9549 50.8061 46.3928C50.8061 46.4613 50.8061 46.5298 50.8061 46.6325C50.8061 48.2415 51.4909 48.7893 53.1684 48.8578C58.7489 49.0632 64.3293 49.5083 69.8413 50.5011C75.0109 51.4255 80.0093 52.8976 85.3501 55.2942C75.2505 65.2568 64.3293 72.4121 49.8133 71.5562Z" fill="#1CCCFF"/>
<path d="M30.3332 69.0537C36.256 72.58 42.6924 74.5657 49.5738 74.9765C66.8629 75.9694 79.0508 66.2806 87.7468 57.7217L91.3415 54.1953L86.7881 52.1412C81.4474 49.7447 76.2435 48.1356 70.4576 47.1085C65.6646 46.2526 60.5292 45.7049 54.2983 45.4652C54.3326 44.3697 54.3325 43.2741 54.3325 42.1443C54.3325 40.9803 54.2983 39.7821 54.2983 38.5153C55.0857 38.5496 55.8389 38.5838 56.5921 38.5838C58.0643 38.618 59.4679 38.6523 60.8374 38.7892C73.5389 39.9875 86.8224 42.2813 98.086 51.0114C100.243 52.689 102.708 52.8944 105.002 51.5934C109.452 49.06 111.643 45.7391 111.746 41.4596L111.746 41.22C111.746 36.8378 109.452 33.1746 105.31 30.9492C101.578 28.9293 97.504 29.2374 93.7723 31.7366C86.48 23.1777 78.6058 16.9125 69.7387 12.633C57.3111 6.64177 41.9734 7.56612 30.3332 14.5845C28.6214 6.26516 21.2607 9.29325e-07 12.4279 5.43229e-07L0.000242606 0L0.000238947 83.7067L12.4279 83.7067C21.2607 83.7067 28.6899 77.4073 30.3332 69.0537ZM68.2323 15.7143C77.4418 20.1307 85.0079 26.6355 91.5127 34.407C93.1903 36.3927 93.1903 36.3927 95.3129 34.8179C97.9148 32.9007 100.756 32.3871 103.632 33.962C106.474 35.5026 108.254 37.8648 108.254 41.1857L108.254 41.3569C108.186 44.8147 106.063 46.9716 103.256 48.5807C102.126 49.2312 101.167 49.0942 100.106 48.2726C88.6369 39.3712 75.0795 36.6666 61.077 35.3656C58.3724 35.126 55.5993 35.1945 52.8946 34.989C51.2856 34.8863 50.772 35.4683 50.772 36.9062C50.772 36.9747 50.772 37.0432 50.772 37.1459C50.8405 38.7892 50.8747 40.4668 50.8747 42.1101C50.8747 43.548 50.8405 44.9517 50.8063 46.3896C50.8063 46.4581 50.8063 46.5265 50.8063 46.6292C50.8063 48.2383 51.491 48.7861 53.1685 48.8546C58.749 49.06 64.3294 49.5051 69.8414 50.4979C75.011 51.4223 80.0094 52.8944 85.3502 55.2909C75.2164 65.2536 64.2952 72.4089 49.7792 71.553C42.7951 71.1421 36.4272 68.9853 30.6756 65.2535L30.6756 18.3846C41.4941 11.2293 56.284 9.96265 68.2323 15.7143ZM3.42383 80.2831L3.42383 3.42359L12.4279 3.42359C20.0967 3.42359 26.3961 9.20943 27.1835 16.6728C27.252 17.1864 27.252 17.7342 27.252 18.2477L27.252 65.4247C27.252 65.9383 27.2177 66.4518 27.1835 66.9653C26.3961 74.4288 20.0967 80.2489 12.4279 80.2489L3.42383 80.2489L3.42383 80.2831Z" fill="#050303"/>
<path d="M12.4278 80.2872L3.4238 80.2872L3.4238 3.42774L12.4278 3.42774C20.0967 3.42774 26.3961 9.21358 27.1835 16.677C27.252 17.1905 27.252 17.7383 27.252 18.2518L27.252 65.4289C27.252 65.9424 27.2177 66.4559 27.1835 66.9695C26.4303 74.4671 20.1309 80.2872 12.4278 80.2872Z" fill="#1CCCFF"/>
</svg>
