<svg width="107" height="84" viewBox="0 0 107 84" fill="none" xmlns="http://www.w3.org/2000/svg">
<path d="M97.0586 74.6365L79.7352 73.404C79.7352 73.404 74.9765 72.4796 71.6556 67.9263L71.8952 67.892L72.3403 65.427C72.4088 65.0162 74.2233 55.1905 74.2233 41.4962C74.2233 33.4507 73.607 25.7477 72.3403 18.5924L71.8952 16.0932L71.5871 16.0589C74.908 11.4713 79.701 10.5469 79.701 10.5469L97.0243 9.31446C100.756 13.4912 100.996 20.2699 100.996 22.1187C100.996 22.4268 100.996 22.598 100.996 22.598L88.705 25.508L88.705 32.1155L102.057 33.4507C102.981 35.4364 103.016 40.5033 103.016 41.907L103.016 42.0439C103.016 43.4476 102.947 48.5487 102.057 50.5002L88.705 51.8354L88.705 58.4771L100.996 61.3872C100.996 61.3872 100.996 61.5584 100.996 61.8323C101.03 63.6468 100.756 70.4597 97.0586 74.6365Z" fill="#1CCCFF"/>
<path d="M30.196 69.775C30.5041 68.4398 30.6753 67.0361 30.6753 65.5982L30.6753 18.4212C30.6753 17.1544 30.5384 15.9219 30.2987 14.6895L66.3491 18.9005L68.0951 19.1059L68.9852 19.2086C69.088 19.7906 69.1907 20.3726 69.2934 20.9546C70.2862 27.3225 70.7313 33.5534 70.7998 39.2366C70.7998 40.024 70.834 40.7772 70.834 41.5304C70.834 42.6259 70.834 43.7215 70.7998 44.7828C70.6286 53.3075 69.7727 59.9835 69.2934 63.0305C69.1222 64.1945 68.9852 64.845 68.9852 64.845L68.1294 64.9477L66.3833 65.1531L30.196 69.775Z" fill="#1CCCFF"/>
<path d="M28.9303 73.4017L67.8907 68.4032C69.1232 70.5259 70.5953 72.0665 71.9647 73.1963C75.3541 75.9694 78.7092 76.6883 79.0858 76.7568L79.2912 76.791L79.4966 76.791L96.82 78.0235L98.4975 78.1262L99.6273 76.8595C104.146 71.7926 104.489 64.0553 104.489 61.7957C104.489 61.4534 104.489 61.2137 104.489 61.1795L104.386 58.5776L101.853 57.9955L92.1981 55.7017L92.1981 54.8801L102.469 53.853L104.42 53.6476L105.242 51.8673C106.303 49.5735 106.543 45.2256 106.543 41.9732L106.543 41.8362C106.543 38.5838 106.338 34.2359 105.242 31.9421L104.42 30.1618L102.469 29.9564L92.1981 28.9293L92.1981 28.1076L101.853 25.8138L104.386 25.1976L104.489 22.5957C104.489 22.5614 104.489 22.356 104.489 21.9794C104.489 19.7199 104.146 11.9826 99.6273 6.91565L98.4975 5.64892L96.82 5.78586L79.4966 7.01835L79.2912 7.01835L79.0858 7.05259C78.7092 7.12106 75.3199 7.84001 71.9648 10.6131C70.5953 11.7429 69.0889 13.3178 67.8564 15.4746L29.1699 10.9555C26.3626 4.51913 19.892 8.69465e-07 12.4286 5.43229e-07L0.00097162 0L0.000967954 83.8778L12.4286 83.8778C19.6866 83.8778 25.986 79.5641 28.9303 73.4017ZM79.7363 10.5446L97.0596 9.31216C100.791 13.4889 101.031 20.2676 101.031 22.1164C101.031 22.4245 101.031 22.5957 101.031 22.5957L88.7403 25.5057L88.7403 32.1132L102.092 33.4484C103.017 35.4341 103.051 40.501 103.051 41.9047L103.051 42.0416C103.051 43.4453 102.982 48.5464 102.092 50.4979L88.7403 51.8331L88.7403 58.4748L101.031 61.3849C101.031 61.3849 101.031 61.5561 101.031 61.83C101.031 63.6445 100.757 70.4232 97.0596 74.6342L79.7363 73.4017C79.7363 73.4017 74.9775 72.4773 71.6566 67.9239L71.8963 67.8897L72.3413 65.4247C72.4098 65.0139 74.2243 55.1882 74.2243 41.4939C74.2243 33.4484 73.6081 25.7454 72.3413 18.5901L71.8963 16.0909L71.5882 16.0566C74.9433 11.5032 79.7363 10.5446 79.7363 10.5446ZM66.3501 18.8982L68.0961 19.1036L68.9862 19.2063C69.0889 19.7883 69.1916 20.3703 69.2944 20.9524C70.2872 27.3202 70.7323 33.5511 70.8007 39.2343C70.8007 40.0217 70.835 40.7749 70.835 41.5281C70.835 42.6236 70.835 43.7192 70.8007 44.7805C70.6296 53.3052 69.7737 59.9812 69.2944 63.0282C69.1232 64.1922 68.9862 64.8427 68.9862 64.8427L68.1303 64.9454L66.3843 65.1508L30.197 69.8069C30.5051 68.4717 30.6763 67.068 30.6763 65.6301L30.6763 18.4189C30.6763 17.1522 30.5394 15.9197 30.2997 14.6872L66.3501 18.8982ZM3.39033 80.4543L3.39033 3.56053L12.3944 3.56053C17.7352 3.56053 22.4255 6.40211 25.0274 10.6131C25.404 11.1951 25.7121 11.8114 25.986 12.4619C26.2599 13.0439 26.4653 13.6601 26.6365 14.2421C27.0131 15.5431 27.2185 16.9468 27.2185 18.3847L27.2185 65.5617C27.2185 67.205 26.9446 68.7456 26.4653 70.2177C26.2599 70.834 26.0202 71.4502 25.7121 72.0323C25.404 72.6827 25.0274 73.299 24.6508 73.9152C21.9804 77.8523 17.4955 80.42 12.3601 80.42L3.39033 80.42L3.39033 80.4543Z" fill="#050303"/>
<path d="M12.3927 80.4582L3.38864 80.4582L3.38865 3.56446L12.3927 3.56446C17.7335 3.56446 22.4238 6.40604 25.0257 10.617C25.4023 11.1991 25.7104 11.8153 25.9843 12.4658C26.2582 13.0478 26.4636 13.664 26.6348 14.2461C27.0114 15.547 27.2168 16.9507 27.2168 18.3886L27.2168 65.5656C27.2168 67.2089 26.9429 68.7495 26.4636 70.2217C26.2582 70.8379 26.0185 71.4542 25.7104 72.0362C25.4023 72.6867 25.0257 73.3029 24.6491 73.9192C22.0129 77.8563 17.528 80.4582 12.3927 80.4582Z" fill="#1CCCFF"/>
</svg>
