<svg width="109" height="109" viewBox="0 0 109 109" fill="none" xmlns="http://www.w3.org/2000/svg">
<path d="M66.2805 98.633C65.63 96.9212 64.7399 96.0996 63.1993 95.4491C52.1753 90.93 41.1514 86.4108 30.0932 81.8575C30.4013 80.5223 30.5725 79.1186 30.5725 77.6807L30.5725 30.5037C30.5725 29.1685 30.4356 27.8675 30.1617 26.6351C41.1172 22.1844 52.0384 17.5626 62.9939 13.0777C64.6372 12.3929 65.7327 11.7767 66.2463 9.72253C67.1364 6.162 71.279 3.42312 74.771 3.45735C78.0919 3.45735 81.5839 6.02507 82.8849 9.34594C83.2615 10.3045 83.4327 11.1947 83.4327 12.0848C83.4327 14.3101 82.3714 16.33 80.5226 18.1445C77.236 21.3627 73.8809 21.7736 70.0807 19.4797C69.259 19.0004 68.6428 18.8978 67.9581 19.5825C62.9939 24.4097 58.0297 29.2027 53.0655 34.03C53.2024 34.3039 53.3051 34.612 53.4421 34.8859C58.2351 34.6805 62.9596 35.194 67.7527 35.3652C73.4358 35.5706 79.1532 35.8787 84.8364 36.2895C86.4112 36.3923 87.1986 36.1184 87.9176 34.5093C89.5951 30.8461 92.6421 29.0316 96.7162 29.3397C100.79 29.6136 103.426 31.9759 104.83 35.6733C105.207 36.7004 105.412 37.7274 105.412 38.7203C105.412 41.6303 103.906 44.4035 101.27 46.1153C97.4352 48.6487 92.9503 48.5118 90.0744 45.2594C88.5681 43.5818 87.3356 43.7872 85.5895 44.2665C77.4756 46.3549 69.9095 49.9839 62.001 52.6201C60.7685 53.0309 59.2622 53.0309 58.2693 54.4003C61.7614 56.2148 65.5273 57.105 69.1563 58.4402C74.5998 60.4601 80.146 62.2403 85.5895 64.1575C87.3356 64.7738 88.4996 64.7738 90.006 63.1989C93.053 59.9465 97.264 59.7411 100.893 62.0692C103.769 63.9179 105.344 66.8622 105.344 69.9776C105.344 71.0047 105.172 72.0318 104.796 73.0589C103.666 76.3113 100.071 78.9817 96.4081 79.1529C92.6421 79.324 89.6978 77.6807 88.0888 74.2913C87.404 72.8534 86.8563 72.2372 85.1787 72.2372C74.6683 72.3057 64.2264 73.1958 53.7844 73.9148C53.6133 73.9148 53.4078 74.1202 53.2367 74.2229C53.2367 74.3598 53.2024 74.531 53.2024 74.6679C53.2024 74.7364 53.2024 74.8049 53.2709 74.8391C57.9954 79.2898 62.72 83.7405 67.4103 88.2254C68.4031 89.1497 69.4302 89.9714 70.56 88.7046C71.8952 87.1983 73.607 87.4037 75.2161 87.4722C78.8793 87.6433 82.1317 90.6219 83.1588 94.4563C83.33 95.1068 83.3984 95.7572 83.3984 96.4077C83.3984 99.0781 82.0975 101.714 79.7694 103.084C73.7439 106.747 68.4031 104.008 66.2805 98.633Z" fill="#1CCCFF"/>
<path d="M81.585 106.063C84.8716 104.111 86.8916 100.448 86.8916 96.4427C86.8916 95.4841 86.7889 94.5254 86.5492 93.6353C85.1455 88.2603 80.5922 84.3232 75.4568 84.1178C75.3541 84.1178 75.2514 84.1178 75.1487 84.1178C73.7108 84.0493 71.417 83.9123 69.3628 85.3502C67.1032 83.2276 64.8437 81.0708 62.6183 78.9824C61.8994 78.2977 61.1804 77.6129 60.4615 76.9282C68.5411 76.3462 76.8947 75.7642 85.0771 75.6957C85.1113 75.7299 85.1113 75.7642 85.1113 75.7984C87.2681 80.3518 91.4792 82.851 96.6488 82.6114C101.647 82.406 106.474 78.8797 108.118 74.2578C108.597 72.8884 108.837 71.4505 108.837 70.0126C108.837 65.6988 106.577 61.659 102.811 59.2283C97.6416 55.9074 91.6503 56.5579 87.5763 60.8716C87.4736 60.9743 87.3709 61.077 87.3366 61.1112C87.2339 61.077 87.0627 61.0428 86.8231 60.9401C84.5978 60.1526 82.304 59.3652 80.1129 58.612C76.9289 57.5165 73.6423 56.4209 70.4583 55.2227C69.534 54.8803 68.6096 54.5722 67.6852 54.2641C69.3286 53.6478 70.9719 52.9973 72.581 52.3811C77.3398 50.5324 81.8247 48.7863 86.5492 47.5538C86.7546 47.5196 87.1997 47.3827 87.4393 47.3484C87.4736 47.3827 87.542 47.4511 87.6105 47.5196C91.5476 51.936 97.8128 52.518 103.256 48.9575C106.817 46.6295 108.939 42.795 108.939 38.6867C108.939 37.2146 108.666 35.7767 108.152 34.4073C106.201 29.2719 102.263 26.2249 97.0938 25.8825C91.7188 25.5059 87.3366 28.0394 85.0428 32.8324C79.6336 32.4558 73.9162 32.1477 68.0276 31.9423C66.5555 31.8738 65.0491 31.8053 63.5769 31.7026C62.6183 31.6341 61.6597 31.5999 60.7011 31.5314C63.6454 28.6899 66.5897 25.8483 69.534 22.9725C74.327 25.4032 79.0173 24.5816 83.0914 20.576C85.6591 18.0425 87.0285 15.0983 87.0285 12.0855C87.0285 10.7503 86.7546 9.41507 86.2411 8.07988C84.4266 3.4238 79.6678 0.000221323 74.9432 0.000221116C69.6367 -0.034015 64.3301 3.97159 63.0634 8.86732C62.9265 9.41509 62.9265 9.44933 61.8309 9.89439C57.346 11.7431 52.8269 13.6261 48.4105 15.4406C42.1453 18.0425 35.6747 20.7472 29.2384 23.3491C26.4653 16.81 19.9604 12.2224 12.4286 12.2224L0.000945337 12.2224L0.000941678 95.9291L12.4286 95.9291C19.8577 95.9291 26.2599 91.4784 29.1357 85.0763C31.6349 86.1034 34.1341 87.1305 36.6333 88.1576C44.9526 91.5811 53.5801 95.1074 62.0363 98.5995C62.721 98.8734 62.8922 99.0104 63.2003 99.8662C64.6725 103.666 67.3771 106.405 70.8007 107.569C73.1287 108.391 76.9632 108.836 81.585 106.063ZM12.3259 92.5398L3.32182 92.5398L3.32183 15.6803L12.3259 15.6803C18.4541 15.6803 23.6922 19.3777 25.9517 24.65C26.1914 25.1636 26.3626 25.7114 26.5337 26.2591C26.7049 26.8069 26.8419 27.3547 26.9446 27.9367C27.0815 28.7583 27.1842 29.6142 27.1842 30.5044L27.1842 77.6814C27.1842 78.64 27.0815 79.5986 26.9103 80.523C26.8076 81.105 26.6707 81.6527 26.4995 82.2005C26.3283 82.7483 26.1229 83.2618 25.8833 83.8096C23.521 88.945 18.3514 92.5398 12.3259 92.5398ZM66.2816 98.6337C65.6311 96.9219 64.741 96.1003 63.2003 95.4498C52.1764 90.9307 41.1524 86.4115 30.0943 81.8582C30.4024 80.523 30.5736 79.1193 30.5736 77.6814L30.5736 30.5044C30.5736 29.1692 30.4366 27.8682 30.1627 26.6357C41.1182 22.1851 52.0395 17.5632 62.9949 13.0783C64.6383 12.3936 65.7338 11.7774 66.2473 9.72321C67.1375 6.16268 71.28 3.4238 74.7721 3.45803C78.0929 3.45803 81.585 6.02575 82.886 9.34663C83.2626 10.3052 83.4337 11.1954 83.4337 12.0855C83.4337 14.3108 82.3724 16.3307 80.5237 18.1452C77.237 21.3634 73.8819 21.7742 70.0818 19.4804C69.2601 19.0011 68.6438 18.8984 67.9591 19.5832C62.9949 24.4104 58.0307 29.2034 53.0665 34.0307C53.2035 34.3046 53.3062 34.6127 53.4431 34.8866C58.2361 34.6812 62.9607 35.1947 67.7537 35.3659C73.4369 35.5713 79.1543 35.8794 84.8374 36.2902C86.4123 36.3929 87.1997 36.1191 87.9186 34.51C89.5962 30.8467 92.6432 29.0323 96.7172 29.3404C100.791 29.6143 103.427 31.9765 104.831 35.674C105.208 36.7011 105.413 37.7281 105.413 38.721C105.413 41.631 103.907 44.4042 101.271 46.116C97.4362 48.6494 92.9513 48.5125 90.0755 45.2601C88.5691 43.5825 87.3366 43.7879 85.5906 44.2672C77.4767 46.3556 69.9106 49.9846 62.0021 52.6208C60.7696 53.0316 59.2632 53.0316 58.2704 54.401C61.7624 56.2155 65.5284 57.1057 69.1574 58.4409C74.6009 60.4608 80.1471 62.241 85.5906 64.1582C87.3366 64.7745 88.5006 64.7745 90.007 63.1996C93.054 59.9472 97.265 59.7418 100.894 62.0699C103.77 63.9186 105.345 66.8629 105.345 69.9783C105.345 71.0054 105.174 72.0325 104.797 73.0596C103.667 76.312 100.072 78.9824 96.4091 79.1536C92.6432 79.3247 89.6989 77.6814 88.0898 74.292C87.4051 72.8541 86.8573 72.2379 85.1798 72.2379C74.6694 72.3064 64.2274 73.1965 53.7855 73.9154C53.6143 73.9154 53.4089 74.1209 53.2377 74.2236C53.2377 74.3605 53.2035 74.5317 53.2035 74.6686C53.2035 74.7371 53.2035 74.8056 53.2719 74.8398C57.9965 79.2905 62.721 83.7412 67.4114 88.2261C68.4042 89.1504 69.4313 89.9721 70.5611 88.7053C71.8963 87.1989 73.608 87.4044 75.2171 87.4728C78.8804 87.644 82.1328 90.6225 83.1598 94.457C83.331 95.1074 83.3995 95.7579 83.3995 96.4084C83.3995 99.0788 82.0985 101.715 79.7705 103.084C73.745 106.748 68.4042 104.009 66.2816 98.6337Z" fill="#050303"/>
<path d="M12.3252 92.5392L3.3212 92.5392L3.3212 15.6797L12.3252 15.6797C18.4535 15.6797 23.6915 19.3771 25.9511 24.6495C26.1908 25.163 26.3619 25.7108 26.5331 26.2586C26.7043 26.8064 26.8412 27.3541 26.9439 27.9361C27.0809 28.7578 27.1836 29.6137 27.1836 30.5038L27.1836 77.6808C27.1836 78.6394 27.0809 79.598 26.9097 80.5224C26.807 81.1044 26.6701 81.6522 26.4989 82.1999C26.3277 82.7477 26.1223 83.2613 25.8826 83.8091C23.5204 88.9444 18.3507 92.5392 12.3252 92.5392Z" fill="#1CCCFF"/>
</svg>
