<svg width="116" height="107" viewBox="0 0 116 107" fill="none" xmlns="http://www.w3.org/2000/svg">
<path d="M63.473 103.168C73.2645 102.244 81.173 95.773 83.3641 86.5635C83.8434 84.5778 84.0146 82.5921 84.0146 80.6065C84.0146 78.073 83.7064 75.5053 83.2614 72.9719C82.6794 69.5825 81.618 66.3644 80.2486 63.2147C80.0774 62.8038 79.872 62.3588 79.872 61.9822C79.872 61.5714 80.1117 61.229 80.8306 61.0578C84.5966 60.2704 88.3625 59.5514 92.1969 58.7982L92.1969 66.4671C92.1969 67.4599 93.0186 68.2816 94.0114 68.2816L101.441 68.2816C102.433 68.2816 103.255 67.4599 103.255 66.4671L103.255 59.0036L110.342 59.0036C111.335 59.0036 112.156 58.182 112.156 57.1892L112.156 49.76C112.156 48.7671 111.335 47.9455 110.342 47.9455L103.563 47.9455C103.461 47.877 103.358 47.8085 103.255 47.7058L103.255 40.4821C103.255 39.4892 102.433 38.6675 101.441 38.6675L94.0114 38.6675C93.0186 38.6675 92.1969 39.4892 92.1969 40.4821L92.1969 48.2536C88.0886 47.3634 84.1173 46.5076 80.0432 45.6174C80.0432 45.3093 80.0432 45.1381 80.0432 45.0354C80.0432 44.967 80.0432 44.9327 80.0432 44.8985C80.2144 44.3507 80.4198 43.8372 80.6252 43.2894C82.6794 37.8801 83.9461 32.3682 83.9461 26.6165C83.9461 25.6237 83.9118 24.5966 83.8091 23.5695C82.5082 6.75973 63.1992 -0.874869 51.1481 5.76689C47.6218 7.71833 44.5748 10.2518 41.6648 12.9564C37.5907 16.7566 33.8933 21.0018 29.3057 24.22C30.1273 26.3084 30.6066 28.6022 30.6066 30.9987L30.6066 78.1757C30.6066 79.7848 30.4012 81.3596 29.9904 82.8318C32.2842 84.3039 34.4753 85.9815 36.2555 88.0357C39.5764 91.8016 43.1027 95.2936 47.1083 98.3749C51.9698 102.141 57.3448 103.75 63.473 103.168ZM52.2779 44.4876L52.2779 44.4192C49.2994 44.4192 46.3551 44.3849 43.3766 44.4534C41.8017 44.4876 41.0486 43.9399 41.0486 42.2966C41.0486 40.9271 40.7747 39.5919 40.7404 38.2225C40.7404 38.154 40.7404 38.0513 40.7404 37.9828C40.7404 36.9215 41.0486 35.8945 41.9044 35.1413C45.8758 31.5465 49.6075 27.6779 53.9212 24.4939C55.5988 23.2614 57.4475 22.474 59.6386 22.5425C63.8839 22.6794 67.1363 25.2471 67.8552 29.3896C68.0264 30.3825 68.1291 31.3753 68.1291 32.3339C68.1291 36.271 66.7254 39.8658 64.1578 43.1525C63.3019 44.248 62.2063 44.5561 60.8711 44.5219C57.9953 44.4534 55.1537 44.4876 52.2779 44.4876ZM55.9069 83.7562C54.4348 83.1057 53.1338 82.1813 51.9356 81.0858C48.9913 78.4154 46.1497 75.5738 43.0685 73.0403C41.4594 71.7051 40.8089 70.1988 40.8089 68.3843C40.8089 68.0419 40.8431 67.6653 40.8774 67.2887C41.6306 61.5371 39.9872 62.256 46.2182 62.256C48.1696 62.256 50.0868 62.256 52.0383 62.256L52.0383 62.2903C54.7771 62.2903 57.516 62.393 60.2549 62.256C62.3433 62.1533 63.6442 63.0777 64.774 64.6868C66.9309 67.8023 68.0606 71.1574 68.0606 74.7864C68.0606 75.5053 68.0264 76.2243 67.9237 76.9775C67.2047 82.8318 61.2135 86.1869 55.9069 83.7562Z" fill="#1CCCFF"/>
<path d="M67.9257 77.0447C68.0285 76.2915 68.0627 75.5725 68.0627 74.8536C68.0627 71.2246 66.9329 67.8695 64.776 64.754C63.6463 63.1107 62.3453 62.2206 60.2569 62.3233C57.518 62.4602 54.7792 62.3575 52.0403 62.3575L52.0403 62.3233C50.0889 62.3233 48.1717 62.3233 46.2202 62.3233C39.9893 62.289 41.6326 61.6043 40.8794 67.3559C40.8452 67.7325 40.8109 68.0749 40.8109 68.4515C40.8109 70.2317 41.4957 71.7724 43.0705 73.1076C46.1517 75.641 48.9591 78.4826 51.9376 81.153C53.1359 82.2143 54.4368 83.1387 55.909 83.8234C61.2155 86.1856 67.2068 82.8306 67.9257 77.0447ZM44.2345 68.4172C44.2345 68.2118 44.2345 68.0064 44.2688 67.801C44.3715 67.0136 44.4399 66.3289 44.4742 65.7469C44.9877 65.7469 45.5355 65.7811 46.186 65.7811C46.9734 65.7811 47.7951 65.7811 48.5825 65.7811L48.5825 65.8153L52.0061 65.8153C52.8277 65.8153 53.6494 65.8153 54.4368 65.8495C56.354 65.8838 58.3739 65.8838 60.3939 65.7811C60.9416 65.7469 61.2498 65.7468 61.9345 66.7397C63.7147 69.3416 64.6049 72.012 64.6049 74.8878C64.6049 75.4698 64.5706 76.0861 64.5022 76.6681C64.2967 78.3114 63.3724 79.7151 61.9687 80.5025C60.5308 81.2899 58.8532 81.3584 57.3126 80.6737C56.2513 80.1944 55.2242 79.4754 54.2314 78.5853C53.2386 77.6952 52.2457 76.7708 51.2871 75.8464C49.3699 74.0319 47.35 72.1832 45.2616 70.4372C44.4057 69.7182 44.2345 69.102 44.2345 68.4172Z" fill="#050303"/>
<path d="M52.277 44.4864C55.1185 44.4864 57.9944 44.4522 60.8359 44.5207C62.1711 44.5549 63.2667 44.2468 64.1226 43.1513C66.6903 39.8646 68.0939 36.2698 68.0939 32.3327C68.0939 31.3741 68.0255 30.3813 67.82 29.3884C67.1011 25.2459 63.8487 22.644 59.6034 22.5412C57.4466 22.4728 55.5636 23.2602 53.8861 24.4927C49.5723 27.6767 45.8406 31.5795 41.8693 35.1401C41.0134 35.9275 40.7053 36.9203 40.7052 37.9816C40.7052 38.0501 40.7052 38.1528 40.7052 38.2213C40.7395 39.5907 41.0134 40.9259 41.0134 42.2954C41.0134 43.9387 41.7666 44.4864 43.3414 44.4522C46.3199 44.3837 49.2642 44.418 52.2427 44.418L52.2427 44.4864L52.277 44.4864ZM44.1631 37.9816C44.1631 37.8104 44.1973 37.7078 44.1973 37.6735C45.3956 36.578 46.5938 35.4482 47.7578 34.3868C50.4967 31.8192 53.0986 29.3542 55.9402 27.2316C57.1727 26.3415 58.3025 25.9306 59.535 25.9648C62.2396 26.0333 64.0541 27.5055 64.4649 29.9705C64.6019 30.7921 64.6704 31.5795 64.6704 32.367C64.6704 35.4482 63.609 38.2897 61.4522 41.0628L61.4179 41.0971C61.3495 41.0971 61.2125 41.1313 60.9386 41.1313C59.1926 41.0971 57.4466 41.0971 55.7348 41.0971L55.7348 41.0628L52.3112 41.0628C51.4553 41.0628 50.5652 41.0628 49.7093 41.0628C47.9975 41.0628 46.2172 41.0628 44.4712 41.0628C44.437 40.6178 44.4027 40.1727 44.3342 39.7277C44.2658 39.1457 44.2315 38.6321 44.1973 38.1186C44.1631 38.0501 44.1631 38.0158 44.1631 37.9816Z" fill="#050303"/>
<path d="M33.7223 90.3613C37.4883 94.6407 41.1857 98.167 45.0544 101.146C50.6006 105.391 56.9 107.205 63.7814 106.555C69.2934 106.041 74.3603 103.953 78.4344 100.598C82.5769 97.14 85.4185 92.5866 86.651 87.3485C87.1645 85.2259 87.4041 83.0005 87.4041 80.604C87.4041 78.1733 87.1645 75.5714 86.6167 72.3874C86.1374 69.6486 85.35 66.8413 84.186 63.8627C85.7266 63.5546 87.233 63.2465 88.7393 62.9726L88.7393 66.4647C88.7393 69.3405 91.1016 71.7027 93.9774 71.7027L101.441 71.7027C104.351 71.7027 106.679 69.3405 106.679 66.4647L106.679 62.4248L110.342 62.4248C113.218 62.4248 115.58 60.0626 115.58 57.1867L115.58 49.7575C115.58 46.8817 113.218 44.5195 110.342 44.5195L106.713 44.5195L106.713 40.4796C106.713 37.6038 104.351 35.2415 101.475 35.2415L94.0459 35.2415C91.1701 35.2415 88.8078 37.6038 88.8078 40.4796L88.8078 44.0059L84.4256 43.0473C86.4455 37.3299 87.4384 31.9207 87.4384 26.6483C87.4384 25.5528 87.4042 24.423 87.3014 23.3275C86.6167 14.7685 81.7895 7.47627 74.0179 3.29949C70.252 1.27958 66.0067 0.115566 61.7957 0.0128581C57.3793 -0.124086 53.1683 0.834502 49.5735 2.82018C45.3625 5.14822 41.9389 8.16098 39.4055 10.5232C38.1388 11.7215 36.9063 12.9198 35.708 14.118C33.1061 16.7199 30.6069 19.1849 27.7995 21.2391C24.5471 16.1722 18.864 12.817 12.4276 12.817L3.53933e-06 12.817L-1.19609e-07 96.5237L12.4276 96.5237C19.6514 96.5237 25.9165 92.3127 28.8608 86.2187C30.8465 87.5539 32.4556 88.9233 33.7223 90.3613ZM12.3591 93.1001L3.35512 93.1001L3.35512 16.2406L12.3592 16.2406C17.6657 16.2406 22.3218 19.0137 24.9579 23.1905C25.2661 23.7041 25.5742 24.2176 25.8138 24.7654C26.1562 25.4843 26.4301 26.2375 26.6697 27.0249C27.0463 28.3259 27.2175 29.6611 27.2175 31.0648L27.2175 78.2418C27.2175 78.995 27.149 79.7139 27.0463 80.4671C26.9436 81.2203 26.7724 81.9392 26.567 82.624C26.3958 83.206 26.1562 83.788 25.9165 84.3358C23.5885 89.5054 18.4189 93.1001 12.3591 93.1001ZM30.0249 82.9321C30.4014 81.4599 30.6411 79.8851 30.6411 78.276L30.6411 31.099C30.6411 28.7025 30.1618 26.4087 29.3401 24.3203C33.9277 21.0679 37.6252 16.8569 41.6993 13.0567C44.6093 10.3178 47.6563 7.81863 51.1826 5.86718C63.1994 -0.808811 82.5084 6.86002 83.8436 23.6698C83.9121 24.6969 83.9806 25.6898 83.9806 26.7168C83.9806 32.4685 82.7138 37.9804 80.6597 43.3897C80.4543 43.9032 80.2489 44.451 80.0777 44.9987C80.0777 45.033 80.0777 45.0672 80.0777 45.1357C80.0777 45.2384 80.0777 45.4096 80.0777 45.7177C84.186 46.6079 88.1231 47.4637 92.2314 48.3539L92.2314 40.5824C92.2314 39.5895 93.0531 38.7678 94.0459 38.7678L101.441 38.7678C102.434 38.7678 103.255 39.5895 103.255 40.5824L103.255 47.8061C103.324 47.9088 103.427 47.9773 103.563 48.0457L110.342 48.0457C111.335 48.0457 112.157 48.8674 112.157 49.8603L112.157 57.2894C112.157 58.2823 111.335 59.1039 110.342 59.1039L103.29 59.1039L103.29 66.5673C103.29 67.5602 102.468 68.3819 101.475 68.3819L94.0459 68.3819C93.0531 68.3819 92.2314 67.5602 92.2314 66.5673L92.2314 58.8985C88.397 59.6517 84.631 60.3707 80.8651 61.1581C80.1461 61.295 79.9065 61.6716 79.9065 62.0824C79.9065 62.459 80.1119 62.9041 80.2831 63.3149C81.6525 66.4646 82.7138 69.6828 83.2958 73.0721C83.7409 75.6056 84.049 78.1733 84.049 80.7068C84.049 82.6924 83.8779 84.6781 83.3986 86.6638C81.2075 95.8733 73.299 102.344 63.5075 103.268C57.4135 103.85 52.0043 102.241 47.177 98.5436C43.2057 95.4966 39.6451 92.0046 36.3242 88.2044C34.5097 86.0818 32.3529 84.37 30.0249 82.9321Z" fill="#050303"/>
<path d="M12.3586 93.1036L3.35459 93.1036L3.3546 16.2441L12.3586 16.2441C17.6652 16.2441 22.3213 19.0173 24.9574 23.194C25.2655 23.7076 25.5737 24.2211 25.8133 24.7689C26.1557 25.4878 26.4296 26.241 26.6692 27.0284C27.0458 28.3294 27.217 29.6646 27.217 31.0683L27.217 78.2453C27.217 78.9985 27.1485 79.7175 27.0458 80.4707C26.9431 81.2238 26.7719 81.9428 26.5665 82.6275C26.3953 83.2095 26.1557 83.7915 25.916 84.3393C23.588 89.5089 18.4184 93.1036 12.3586 93.1036Z" fill="#1CCCFF"/>
</svg>
