<svg width="115" height="97" viewBox="0 0 115 97" fill="none" xmlns="http://www.w3.org/2000/svg">
<path d="M101.202 47.6565C101.339 46.869 101.818 46.2186 102.503 45.8077C109.555 41.5625 111.473 35.5712 111.473 35.5712C109.624 32.1134 99.7982 31.0521 99.7982 31.0521C96.8539 20.7813 84.3579 17.4947 79.2225 16.5703C77.6476 16.2964 76.1755 15.7144 74.8403 14.8243L57.1403 3.49219C44.6443 4.51927 44.4046 20.1993 44.4046 21.4318C44.4046 21.5003 44.4046 21.5003 44.4046 21.5003L54.1961 28.9294C54.0249 29.9223 53.9564 30.9151 53.9564 31.8395C53.9564 43.6508 65.5624 49.3682 65.5624 49.3682C58.4071 51.217 54.4357 53.0657 44.8839 40.0903C40.6044 34.236 35.1267 30.4358 30.4021 28.0393C30.5733 29.0321 30.676 30.0592 30.676 31.1205L30.676 78.2975C30.676 80.5571 30.2652 82.714 29.512 84.7339C87.6787 104.693 99.5928 56.0785 101.202 47.6565ZM84.2551 41.1859C83.1938 41.1174 82.0298 40.5354 81.2766 38.7894C80.8316 37.7965 80.7289 36.6667 80.8658 35.6054C81.0027 34.5099 81.037 32.6611 80.0441 30.7097C80.0441 30.7097 88.0553 33.0035 87.8499 37.7965C87.7814 39.7137 86.1724 41.3228 84.2551 41.1859Z" fill="#1CCCFF"/>
<path d="M28.0401 87.7808C48.1708 94.7991 65.1518 94.5937 78.5722 87.233C86.9258 82.6454 93.636 75.4216 98.5317 65.7329C102.298 58.3379 103.907 51.4907 104.489 48.6149C107.707 46.6292 110.446 44.0273 112.466 41.0146C112.705 40.638 114.896 37.3513 114.896 35.5711L114.896 34.7152L114.486 33.962C113.219 31.6339 110.412 29.9222 105.824 28.7239C104.557 28.3815 103.325 28.1419 102.332 27.9707C97.9497 17.5972 85.3167 14.2079 79.8047 13.2151C78.6749 13.0096 77.6136 12.5988 76.655 11.9826L58.9551 0.616265L57.9622 2.53357e-06L56.7982 0.102727C53.1692 0.410849 50.0538 1.74604 47.5203 4.07408C45.5346 5.88858 43.9598 8.28508 42.8642 11.1951C41.0497 15.9197 40.947 20.5758 40.947 21.4659C40.947 21.5344 40.947 21.6028 40.947 21.6028L40.9813 23.2804L42.3165 24.3075L50.5673 30.5726C50.5331 31.0177 50.5331 31.4628 50.5331 31.9078C50.5331 38.5838 53.5801 43.5823 56.7982 46.9716C54.3675 46.0815 51.389 43.2057 47.6573 38.1388C42.0768 30.5384 34.7161 26.122 29.0672 23.6912C26.1914 17.3576 19.8235 12.9412 12.4286 12.9412L0.000939193 12.9412L0.000935535 96.6478L12.4285 96.6478C19.0703 96.5451 24.8562 93.0188 28.0401 87.7808ZM44.9526 40.056C54.5044 53.0313 58.4758 51.1826 65.6311 49.3339C65.6311 49.3339 54.0251 43.6165 54.0251 31.8051C54.0251 30.8808 54.0936 29.9222 54.2648 28.8951L44.4733 21.4659C44.4733 21.4659 44.4733 21.4316 44.4733 21.3974C44.4733 20.1649 44.713 4.48491 57.2091 3.45784L74.909 14.8241C76.2442 15.68 77.7506 16.262 79.2912 16.5702C84.4266 17.4945 96.9569 20.7812 99.8669 31.0519C99.8669 31.0519 109.658 32.1132 111.541 35.5711C111.541 35.5711 109.624 41.5966 102.572 45.8076C101.887 46.2184 101.408 46.8689 101.271 47.6563C99.6615 56.0783 87.7474 104.693 29.6492 84.6995C30.4024 82.7138 30.8132 80.5228 30.8132 78.2632L30.8132 31.0862C30.8132 30.0249 30.7105 28.9978 30.5393 28.005C35.1954 30.4357 40.6731 34.2359 44.9526 40.056ZM3.45876 93.1215L3.45876 16.262L12.4628 16.262C17.0846 16.262 21.1929 18.3504 23.9318 21.6713C24.5138 22.3903 25.0616 23.1777 25.5067 23.9994C25.8832 24.7183 26.2256 25.4373 26.4995 26.2247C27.0473 27.7653 27.3212 29.4086 27.3212 31.1204L27.3212 78.2974C27.3212 80.1462 26.9788 81.9264 26.3625 83.5697C26.1571 84.1175 25.9175 84.631 25.6436 85.1446C25.3697 85.6581 25.0958 86.1717 24.7535 86.651C22.0831 90.5881 17.5639 93.1558 12.4628 93.1558L3.45876 93.1558L3.45876 93.1215Z" fill="#050303"/>
<path d="M84.2549 41.1871C83.1936 41.1187 82.0295 40.5366 81.2763 38.7906C80.8313 37.7978 80.7286 36.668 80.8655 35.6067C81.0025 34.5111 81.0367 32.6624 80.0439 30.7109C80.0439 30.7109 88.055 33.0047 87.8496 37.7978C87.7812 39.715 86.1721 41.3241 84.2549 41.1871Z" fill="#050303"/>
<path d="M12.4619 93.1251L3.45792 93.1251L3.45792 16.2656L12.462 16.2656C17.0838 16.2656 21.1921 18.354 23.931 21.6749C24.513 22.3939 25.0607 23.1813 25.5058 24.0029C25.8824 24.7219 26.2248 25.4409 26.4987 26.2283C27.0464 27.7689 27.3203 29.4122 27.3203 31.124L27.3203 78.301C27.3203 80.1497 26.978 81.93 26.3617 83.5733C26.1563 84.1211 25.9166 84.6346 25.6428 85.1482C25.3689 85.6617 25.095 86.1753 24.7526 86.6546C22.0822 90.5232 17.5973 93.1251 12.4619 93.1251Z" fill="#1CCCFF"/>
</svg>
