<svg width="95" height="75" viewBox="0 0 95 75" fill="none" xmlns="http://www.w3.org/2000/svg">
<path d="M75.2744 54.2147L73.0899 54.2147C69.4372 54.2147 66.0351 52.9613 63.385 50.8842L63.385 23.7748C66.0709 21.6977 69.4372 20.4443 73.0899 20.4443L75.2744 20.4443C84.0125 20.4443 91.0674 27.4992 91.0674 36.2373L91.0674 38.4218C91.0674 47.124 83.9767 54.2147 75.2744 54.2147Z" fill="#1CCCFF"/>
<path d="M30.5115 62.4162C31.8723 60.3033 33.4122 58.5127 35.1312 57.0803C38.0319 54.6451 42.0428 51.9592 46.6625 50.7774L46.6625 55.1823C46.6625 59.8019 50.4227 63.5263 55.0066 63.5263C59.6263 63.5263 63.3507 59.7661 63.3507 55.1823C66.2156 56.8654 69.5103 57.7965 73.0557 57.7965L75.2402 57.7965C85.912 57.7965 94.6142 49.0943 94.6142 38.4224L94.6142 36.2379C94.6142 25.5302 85.912 16.8638 75.2402 16.8638L73.0557 16.8638C69.5103 16.8638 66.1798 17.8308 63.3507 19.4781C63.3865 14.8584 59.6263 11.0982 55.0424 11.0982C50.4227 11.0982 46.6983 14.8584 46.6983 19.4423L46.6983 23.8471C42.0786 22.6295 38.0677 19.9795 35.167 17.5443C33.448 16.1118 31.8723 14.2854 30.5473 12.2083C22.239 -0.827083 4.15415 -0.0392282 3.4021 0.0323949L2.36317e-06 0.211453L-8.81847e-07 74.4489L3.4021 74.6279C4.11833 74.6638 22.2032 75.4874 30.5115 62.4162ZM3.54536 71.0468L3.54536 3.57774C3.54536 3.57774 20.1977 2.68245 27.5033 14.1422C28.9716 16.3983 30.7264 18.5112 32.8392 20.3018C36.0623 22.9876 40.8968 26.2465 46.6625 27.5357L46.6625 47.0888C40.8968 48.378 36.0623 51.6369 32.8392 54.3228C30.6905 56.1133 28.9716 58.2262 27.5033 60.4824C20.1977 71.9421 3.54536 71.0468 3.54536 71.0468ZM75.276 20.445C84.014 20.445 91.0689 27.4999 91.0689 36.2379L91.0689 38.4224C91.0689 47.1605 83.9782 54.2153 75.276 54.2153L73.0915 54.2153C69.4387 54.2153 66.0366 52.9619 63.3865 50.8849L63.3865 23.7755C66.0724 21.6984 69.4387 20.445 73.0915 20.445L75.276 20.445ZM50.2437 19.4423C50.2437 16.7922 52.3924 14.6793 55.0066 14.6793C57.6567 14.6793 59.7696 16.828 59.7696 19.4423L59.7695 55.1823C59.7695 57.8323 57.6209 59.9452 55.0066 59.9452C52.3565 59.9452 50.2437 57.7965 50.2437 55.1823L50.2437 19.4423Z" fill="#050303"/>
<path d="M3.5459 71.0498L3.5459 3.5808C3.5459 3.5808 20.1983 2.68552 27.5039 14.1452C28.9721 16.4014 30.7269 18.5142 32.8398 20.3048C36.0628 22.9907 40.8974 26.2495 46.6631 27.5388L46.6631 47.0919C40.8974 48.3811 36.0628 51.64 32.8398 54.3258C30.6911 56.1164 28.9721 58.2293 27.5039 60.4854C20.1983 71.9451 3.5459 71.0498 3.5459 71.0498Z" fill="#1CCCFF"/>
<path d="M55.0427 59.9475C52.3926 59.9475 50.2797 57.7988 50.2797 55.1846L50.2798 19.4446C50.2798 16.7945 52.4284 14.6816 55.0427 14.6816C57.6928 14.6816 59.8056 16.8303 59.8056 19.4446L59.8056 55.1846C59.8056 57.8346 57.6569 59.9475 55.0427 59.9475Z" fill="#1CCCFF"/>
</svg>
